<?xml version="1.0" standalone="no"?>
<!DOCTYPE svg PUBLIC "-//W3C//DTD SVG 1.1//EN" "http://www.w3.org/Graphics/SVG/1.1/DTD/svg11.dtd" >
<svg xmlns="http://www.w3.org/2000/svg" xmlns:xlink="http://www.w3.org/1999/xlink" version="1.1">
<metadata>
Created by FontForge 20190801 at Mon Jul 23 12:40:35 2012
 By Jimmy Wärting

</metadata>
<defs>
<font id="ThreeSix10Pro-090Medi" horiz-adv-x="540" >
  <font-face 
    font-family="ThreeSix10Pro-090Medi"
    font-weight="500"
    font-stretch="normal"
    units-per-em="1000"
    panose-1="4 1 6 5 2 1 1 1 1 1"
    ascent="750"
    descent="-250"
    x-height="504"
    cap-height="648"
    bbox="-225 -270 1215 900"
    underline-thickness="90"
    underline-position="-171"
    stemh="90"
    stemv="90"
    unicode-range="U+000D-FEFF"
  />
<missing-glyph 
d="M63 0v648h414v-648h-414zM153 90h234v468h-234v-468z" />
    <glyph glyph-name="f_i" unicode="fi" horiz-adv-x="603" 
d="M117 45v342c0 15 -12 27 -27 27h-36c-25 0 -45 20 -45 45s20 45 45 45h36c15 0 27 12 27 27v72c0 25 20 45 45 45c15 0 27 12 27 27c0 25 20 45 45 45h261c25 0 45 -20 45 -45s-20 -45 -45 -45h-261c-15 0 -27 -12 -27 -27v-73c0 -15 12 -26 27 -26h108
c25 0 45 -20 45 -45s-20 -45 -45 -45h-108c-15 0 -27 -12 -27 -27v-342c0 -25 -20 -45 -45 -45s-45 20 -45 45zM450 46v413c0 25 20 45 45 45s45 -20 45 -45v-413c0 -25 -20 -45 -45 -45s-45 20 -45 45z" />
    <glyph glyph-name="f_l" unicode="fl" horiz-adv-x="603" 
d="M117 45v342c0 15 -12 27 -27 27h-36c-25 0 -45 20 -45 45s20 45 45 45h36c15 0 27 12 27 27v72c0 25 20 45 45 45c15 0 27 12 27 27c0 25 20 45 45 45h108c25 0 45 -20 45 -45s-20 -45 -45 -45h-108c-15 0 -27 -12 -27 -27v-72c0 -15 12 -27 27 -27h108
c25 0 45 -20 45 -45s-20 -45 -45 -45h-108c-15 0 -27 -12 -27 -27v-342c0 -25 -20 -45 -45 -45s-45 20 -45 45zM450 45v630c0 25 20 45 45 45s45 -20 45 -45v-630c0 -25 -20 -45 -45 -45s-45 20 -45 45z" />
    <glyph glyph-name=".notdef" 
d="M63 0v648h414v-648h-414zM153 90h234v468h-234v-468z" />
    <glyph glyph-name=".null" horiz-adv-x="0" 
 />
    <glyph glyph-name=".null" horiz-adv-x="0" 
 />
    <glyph glyph-name="CR" unicode="&#xd;" horiz-adv-x="288" 
 />
    <glyph glyph-name="space" unicode=" " horiz-adv-x="288" 
 />
    <glyph glyph-name="exclam" unicode="!" horiz-adv-x="216" 
d="M63 45v36c0 25 20 45 45 45s45 -20 45 -45v-36c0 -25 -20 -45 -45 -45s-45 20 -45 45zM63 243v360c0 25 20 45 45 45s45 -20 45 -45v-360c0 -25 -20 -45 -45 -45s-45 20 -45 45z" />
    <glyph glyph-name="quotedbl" unicode="&#x22;" horiz-adv-x="288" 
d="M27 531v144c0 25 20 45 45 45s45 -20 45 -45v-144c0 -25 -20 -45 -45 -45s-45 20 -45 45zM171 531v144c0 25 20 45 45 45s45 -20 45 -45v-144c0 -25 -20 -45 -45 -45s-45 20 -45 45z" />
    <glyph glyph-name="numbersign" unicode="#" horiz-adv-x="774" 
d="M351 243h72c15 0 27 12 27 27v108c0 15 -12 27 -27 27h-72c-15 0 -27 -12 -27 -27v-108c0 -15 12 -27 27 -27zM567 243h45c25 0 45 -20 45 -45s-20 -45 -45 -45h-90c-15 0 -27 -12 -27 -27v-81c0 -25 -20 -45 -45 -45s-45 20 -45 45v81c0 15 -12 27 -27 27h-72
c-15 0 -27 -12 -27 -27v-81c0 -25 -20 -45 -45 -45s-45 20 -45 45v81c0 15 -12 27 -27 27h-54c-25 0 -45 20 -45 45s20 45 45 45h99c15 0 27 12 27 27v108c0 15 -12 27 -27 27h-45c-25 0 -45 20 -45 45s20 45 45 45h90c15 0 27 12 27 27v81c0 25 20 45 45 45s45 -20 45 -45
v-81c0 -15 12 -27 27 -27h72c15 0 27 12 27 27v81c0 25 20 45 45 45s45 -20 45 -45v-81c0 -15 12 -27 27 -27h54c25 0 45 -20 45 -45s-20 -45 -45 -45h-99c-15 0 -27 -12 -27 -27v-108c0 -15 12 -27 27 -27z" />
    <glyph glyph-name="dollar" unicode="$" 
d="M378 0h-36c-15 0 -27 -12 -27 -27v-36c0 -25 -20 -45 -45 -45s-45 20 -45 45v36c0 15 -12 27 -27 27h-72c-25 0 -45 20 -45 45s20 45 45 45h252c15 0 27 12 27 27v135c0 15 -12 27 -27 27h-216c-25 0 -45 20 -45 45c0 15 -12 27 -27 27c-25 0 -45 20 -45 45v135
c0 25 20 45 45 45c15 0 27 12 27 27c0 25 20 45 45 45h36c15 0 27 12 27 27v36c0 25 20 45 45 45s45 -20 45 -45v-36c0 -15 12 -27 27 -27h72c25 0 45 -20 45 -45s-20 -45 -45 -45h-252c-15 0 -27 -12 -27 -27v-135c0 -15 12 -27 27 -27h216c25 0 45 -20 45 -45
c0 -15 12 -27 27 -27c25 0 45 -20 45 -45v-135c0 -25 -20 -45 -45 -45c-15 0 -27 -12 -27 -27c0 -25 -20 -45 -45 -45z" />
    <glyph glyph-name="percent" unicode="%" horiz-adv-x="864" 
d="M513 117v126c0 25 20 45 45 45c15 0 27 12 27 27c0 25 20 45 45 45h90c25 0 45 -20 45 -45c0 -15 12 -27 27 -27c25 0 45 -20 45 -45v-126c0 -25 -20 -45 -45 -45c-15 0 -27 -12 -27 -27c0 -25 -20 -45 -45 -45h-90c-25 0 -45 20 -45 45c0 15 -12 27 -27 27
c-25 0 -45 20 -45 45zM630 90h90c15 0 27 12 27 27v126c0 15 -12 27 -27 27h-90c-15 0 -27 -12 -27 -27v-126c0 -15 12 -27 27 -27zM27 477v126c0 25 20 45 45 45c15 0 27 12 27 27c0 25 20 45 45 45h90c25 0 45 -20 45 -45c0 -15 12 -27 27 -27c25 0 45 -20 45 -45v-126
c0 -25 -20 -45 -45 -45c-15 0 -27 -12 -27 -27c0 -25 -20 -45 -45 -45h-90c-25 0 -45 20 -45 45c0 15 -12 27 -27 27c-25 0 -45 20 -45 45zM144 450h90c15 0 27 12 27 27v126c0 15 -12 27 -27 27h-90c-15 0 -27 -12 -27 -27v-126c0 -15 12 -27 27 -27zM549 675v-162
c0 -25 -20 -45 -45 -45c-15 0 -27 -12 -27 -27v-162c0 -25 -20 -45 -45 -45c-15 0 -27 -12 -27 -27v-162c0 -25 -20 -45 -45 -45s-45 20 -45 45v162c0 25 20 45 45 45c15 0 27 12 27 27v162c0 25 20 45 45 45c15 0 27 12 27 27v162c0 25 20 45 45 45s45 -20 45 -45z" />
    <glyph glyph-name="ampersand" unicode="&#x26;" horiz-adv-x="612" 
d="M63 117v135c0 25 20 45 45 45c15 0 27 12 27 27s-12 27 -27 27c-25 0 -45 20 -45 45v135c0 25 20 45 45 45c15 0 27 12 27 27c0 25 20 45 45 45h216c25 0 45 -20 45 -45s-20 -45 -45 -45h-216c-15 0 -27 -12 -27 -27v-135c0 -15 12 -27 27 -27h360c25 0 45 -20 45 -45
s-20 -45 -45 -45h-36c-15 0 -27 -12 -27 -27v-207c0 -25 -20 -45 -45 -45h-252c-25 0 -45 20 -45 45c0 15 -12 27 -27 27c-25 0 -45 20 -45 45zM180 90h180c15 0 27 12 27 27v135c0 15 -12 27 -27 27h-180c-15 0 -27 -12 -27 -27v-135c0 -15 12 -27 27 -27z" />
    <glyph glyph-name="quotesingle" unicode="'" horiz-adv-x="144" 
d="M27 531v144c0 25 20 45 45 45s45 -20 45 -45v-144c0 -25 -20 -45 -45 -45s-45 20 -45 45z" />
    <glyph glyph-name="parenleft" unicode="(" horiz-adv-x="324" 
d="M135 45v72c0 15 -12 27 -27 27c-25 0 -45 20 -45 45v270c0 25 20 45 45 45c15 0 27 12 27 27v72c0 25 20 45 45 45c15 0 27 12 27 27c0 25 20 45 45 45s45 -20 45 -45s-20 -45 -45 -45c-15 0 -27 -12 -27 -27v-72c0 -25 -20 -45 -45 -45c-15 0 -27 -12 -27 -27v-270
c0 -15 12 -27 27 -27c25 0 45 -20 45 -45v-72c0 -15 12 -27 27 -27c25 0 45 -20 45 -45s-20 -45 -45 -45s-45 20 -45 45c0 15 -12 27 -27 27c-25 0 -45 20 -45 45z" />
    <glyph glyph-name="parenright" unicode=")" horiz-adv-x="324" 
d="M99 45v72c0 25 20 45 45 45c15 0 27 12 27 27v270c0 15 -12 27 -27 27c-25 0 -45 20 -45 45v72c0 15 -12 27 -27 27c-25 0 -45 20 -45 45s20 45 45 45s45 -20 45 -45c0 -15 12 -27 27 -27c25 0 45 -20 45 -45v-72c0 -15 12 -27 27 -27c25 0 45 -20 45 -45v-270
c0 -25 -20 -45 -45 -45c-15 0 -27 -12 -27 -27v-72c0 -25 -20 -45 -45 -45c-15 0 -27 -12 -27 -27c0 -25 -20 -45 -45 -45s-45 20 -45 45s20 45 45 45c15 0 27 12 27 27z" />
    <glyph glyph-name="asterisk" unicode="*" horiz-adv-x="432" 
d="M45 657c0 25 20 45 45 45s45 -20 45 -45c0 -15 12 -27 27 -27c25 0 45 -20 45 -45s-20 -45 -45 -45s-45 20 -45 45c0 15 -12 27 -27 27c-25 0 -45 20 -45 45zM220 585c0 25 20 45 45 45c15 0 27 12 27 27c0 25 20 45 45 45s45 -20 45 -45s-20 -45 -45 -45
c-15 0 -27 -12 -27 -27c0 -25 -20 -45 -45 -45s-45 20 -45 45zM225 477c0 25 20 45 45 45s45 -20 45 -45c0 -15 12 -27 27 -27c25 0 45 -20 45 -45s-20 -45 -45 -45s-45 20 -45 45c0 15 -12 27 -27 27c-25 0 -45 20 -45 45zM45 405c0 25 20 45 45 45c15 0 27 12 27 27
c0 25 20 45 45 45s45 -20 45 -45s-20 -45 -45 -45c-15 0 -27 -12 -27 -27c0 -25 -20 -45 -45 -45s-45 20 -45 45zM171 387c0 25 20 45 45 45s45 -20 45 -45s-20 -45 -45 -45s-45 20 -45 45zM171 675c0 25 20 45 45 45s45 -20 45 -45s-20 -45 -45 -45s-45 20 -45 45zM360 486
c-25 0 -45 20 -45 45s20 45 45 45s45 -20 45 -45s-20 -45 -45 -45zM72 486c-25 0 -45 20 -45 45s20 45 45 45s45 -20 45 -45s-20 -45 -45 -45z" />
    <glyph glyph-name="plus" unicode="+" horiz-adv-x="576" 
d="M243 144v108c0 15 -12 27 -27 27h-108c-25 0 -45 20 -45 45s20 45 45 45h108c15 0 27 12 27 27v108c0 25 20 45 45 45s45 -20 45 -45v-108c0 -15 12 -27 27 -27h108c25 0 45 -20 45 -45s-20 -45 -45 -45h-108c-15 0 -27 -12 -27 -27v-108c0 -25 -20 -45 -45 -45
s-45 20 -45 45z" />
    <glyph glyph-name="comma" unicode="," horiz-adv-x="252" 
d="M27 -63v36c0 25 20 45 45 45c15 0 27 12 27 27v36c0 25 20 45 45 45s45 -20 45 -45v-36c0 -25 -20 -45 -45 -45c-15 0 -27 -12 -27 -27v-36c0 -25 -20 -45 -45 -45s-45 20 -45 45z" />
    <glyph glyph-name="hyphen" unicode="-" horiz-adv-x="396" 
d="M108 369h180c25 0 45 -20 45 -45s-20 -45 -45 -45h-180c-25 0 -45 20 -45 45s20 45 45 45z" />
    <glyph glyph-name="period" unicode="." horiz-adv-x="216" 
d="M63 45v36c0 25 20 45 45 45s45 -20 45 -45v-36c0 -25 -20 -45 -45 -45s-45 20 -45 45z" />
    <glyph glyph-name="slash" unicode="/" horiz-adv-x="360" 
d="M297 675v-162c0 -25 -20 -45 -45 -45c-15 0 -27 -12 -27 -27v-162c0 -25 -20 -45 -45 -45c-15 0 -27 -12 -27 -27v-162c0 -25 -20 -45 -45 -45s-45 20 -45 45v162c0 25 20 45 45 45c15 0 27 12 27 27v162c0 25 20 45 45 45c15 0 27 12 27 27v162c0 25 20 45 45 45
s45 -20 45 -45z" />
    <glyph glyph-name="zero" unicode="0" horiz-adv-x="576" 
d="M63 117v414c0 25 20 45 45 45c15 0 27 12 27 27c0 25 20 45 45 45h216c25 0 45 -20 45 -45c0 -15 12 -27 27 -27c25 0 45 -20 45 -45v-414c0 -25 -20 -45 -45 -45c-15 0 -27 -12 -27 -27c0 -25 -20 -45 -45 -45h-216c-25 0 -45 20 -45 45c0 15 -12 27 -27 27
c-25 0 -45 20 -45 45zM180 90h216c15 0 27 12 27 27v414c0 15 -12 27 -27 27h-216c-15 0 -27 -12 -27 -27v-414c0 -15 12 -27 27 -27z" />
    <glyph glyph-name="one" unicode="1" horiz-adv-x="576" 
d="M297 45v486c0 15 -12 27 -27 27h-135c-25 0 -45 20 -45 45s20 45 45 45h207c25 0 45 -20 45 -45v-558c0 -25 -20 -45 -45 -45s-45 20 -45 45z" />
    <glyph glyph-name="two" unicode="2" horiz-adv-x="576" 
d="M189 369h207c15 0 27 12 27 27v135c0 15 -12 27 -27 27h-279c-25 0 -45 20 -45 45s20 45 45 45h279c25 0 45 -20 45 -45c0 -15 12 -27 27 -27c25 0 45 -20 45 -45v-135c0 -25 -20 -45 -45 -45c-15 0 -27 -12 -27 -27c0 -25 -20 -45 -45 -45h-207c-15 0 -27 -12 -27 -27
v-135c0 -15 12 -27 27 -27h279c25 0 45 -20 45 -45s-20 -45 -45 -45h-351c-25 0 -45 20 -45 45v207c0 25 20 45 45 45c15 0 27 12 27 27c0 25 20 45 45 45z" />
    <glyph glyph-name="three" unicode="3" horiz-adv-x="576" 
d="M99 90h279c15 0 27 12 27 27v135c0 15 -12 27 -27 27h-180c-25 0 -45 20 -45 45s20 45 45 45h180c15 0 27 12 27 27v135c0 15 -12 27 -27 27h-279c-25 0 -45 20 -45 45s20 45 45 45h279c25 0 45 -20 45 -45c0 -15 12 -27 27 -27c25 0 45 -20 45 -45v-135
c0 -25 -20 -45 -45 -45c-15 0 -27 -12 -27 -27s12 -27 27 -27c25 0 45 -20 45 -45v-135c0 -25 -20 -45 -45 -45c-15 0 -27 -12 -27 -27c0 -25 -20 -45 -45 -45h-279c-25 0 -45 20 -45 45s20 45 45 45z" />
    <glyph glyph-name="four" unicode="4" horiz-adv-x="576" 
d="M216 603v-153c0 -25 -20 -45 -45 -45c-15 0 -27 -12 -27 -27v-108c0 -15 12 -27 27 -27h144c15 0 27 12 27 27v333c0 25 20 45 45 45s45 -20 45 -45v-333c0 -15 12 -27 27 -27h54c25 0 45 -20 45 -45s-20 -45 -45 -45h-54c-15 0 -27 -12 -27 -27v-81
c0 -25 -20 -45 -45 -45s-45 20 -45 45v81c0 15 -12 27 -27 27h-216c-25 0 -45 20 -45 45v180c0 25 20 45 45 45c15 0 27 12 27 27v153c0 25 20 45 45 45s45 -20 45 -45z" />
    <glyph glyph-name="five" unicode="5" horiz-adv-x="576" 
d="M162 531v-135c0 -15 12 -27 27 -27h207c25 0 45 -20 45 -45c0 -15 12 -27 27 -27c25 0 45 -20 45 -45v-135c0 -25 -20 -45 -45 -45c-15 0 -27 -12 -27 -27c0 -25 -20 -45 -45 -45h-279c-25 0 -45 20 -45 45s20 45 45 45h279c15 0 27 12 27 27v135c0 15 -12 27 -27 27
h-279c-25 0 -45 20 -45 45v279c0 25 20 45 45 45h315c25 0 45 -20 45 -45s-20 -45 -45 -45h-243c-15 0 -27 -12 -27 -27z" />
    <glyph glyph-name="six" unicode="6" horiz-adv-x="576" 
d="M153 288v-171c0 -15 12 -27 27 -27h225c15 0 27 12 27 27v171c0 15 -12 27 -27 27h-225c-15 0 -27 -12 -27 -27zM153 531v-99c0 -15 12 -27 27 -27h225c25 0 45 -20 45 -45c0 -15 12 -27 27 -27c25 0 45 -20 45 -45v-171c0 -25 -20 -45 -45 -45c-15 0 -27 -12 -27 -27
c0 -25 -20 -45 -45 -45h-225c-25 0 -45 20 -45 45c0 15 -12 27 -27 27c-25 0 -45 20 -45 45v414c0 25 20 45 45 45c15 0 27 12 27 27c0 25 20 45 45 45h261c25 0 45 -20 45 -45s-20 -45 -45 -45h-261c-15 0 -27 -12 -27 -27z" />
    <glyph glyph-name="seven" unicode="7" horiz-adv-x="576" 
d="M423 432v99c0 15 -12 27 -27 27h-306c-25 0 -45 20 -45 45s20 45 45 45h378c25 0 45 -20 45 -45v-171c0 -25 -20 -45 -45 -45c-15 0 -27 -12 -27 -27c0 -25 -20 -45 -45 -45c-15 0 -27 -12 -27 -27c0 -25 -20 -45 -45 -45c-15 0 -27 -12 -27 -27v-171
c0 -25 -20 -45 -45 -45s-45 20 -45 45v171c0 25 20 45 45 45c15 0 27 12 27 27c0 25 20 45 45 45c15 0 27 12 27 27c0 25 20 45 45 45c15 0 27 12 27 27z" />
    <glyph glyph-name="eight" unicode="8" horiz-adv-x="576" 
d="M63 117v135c0 25 20 45 45 45c15 0 27 12 27 27s-12 27 -27 27c-25 0 -45 20 -45 45v135c0 25 20 45 45 45c15 0 27 12 27 27c0 25 20 45 45 45h216c25 0 45 -20 45 -45c0 -15 12 -27 27 -27c25 0 45 -20 45 -45v-135c0 -25 -20 -45 -45 -45c-15 0 -27 -12 -27 -27
s12 -27 27 -27c25 0 45 -20 45 -45v-135c0 -25 -20 -45 -45 -45c-15 0 -27 -12 -27 -27c0 -25 -20 -45 -45 -45h-216c-25 0 -45 20 -45 45c0 15 -12 27 -27 27c-25 0 -45 20 -45 45zM180 369h216c15 0 27 12 27 27v135c0 15 -12 27 -27 27h-216c-15 0 -27 -12 -27 -27v-135
c0 -15 12 -27 27 -27zM180 90h216c15 0 27 12 27 27v135c0 15 -12 27 -27 27h-216c-15 0 -27 -12 -27 -27v-135c0 -15 12 -27 27 -27z" />
    <glyph glyph-name="nine" unicode="9" horiz-adv-x="576" 
d="M423 360v171c0 15 -12 27 -27 27h-225c-15 0 -27 -12 -27 -27v-171c0 -15 12 -27 27 -27h225c15 0 27 12 27 27zM423 117v99c0 15 -12 27 -27 27h-225c-25 0 -45 20 -45 45c0 15 -12 27 -27 27c-25 0 -45 20 -45 45v171c0 25 20 45 45 45c15 0 27 12 27 27
c0 25 20 45 45 45h225c25 0 45 -20 45 -45c0 -15 12 -27 27 -27c25 0 45 -20 45 -45v-414c0 -25 -20 -45 -45 -45c-15 0 -27 -12 -27 -27c0 -25 -20 -45 -45 -45h-261c-25 0 -45 20 -45 45s20 45 45 45h261c15 0 27 12 27 27z" />
    <glyph glyph-name="colon" unicode=":" horiz-adv-x="216" 
d="M63 45v36c0 25 20 45 45 45s45 -20 45 -45v-36c0 -25 -20 -45 -45 -45s-45 20 -45 45zM63 423v36c0 25 20 45 45 45s45 -20 45 -45v-36c0 -25 -20 -45 -45 -45s-45 20 -45 45z" />
    <glyph glyph-name="semicolon" unicode=";" horiz-adv-x="252" 
d="M27 -63v36c0 25 20 45 45 45c15 0 27 12 27 27v36c0 25 20 45 45 45s45 -20 45 -45v-36c0 -25 -20 -45 -45 -45c-15 0 -27 -12 -27 -27v-36c0 -25 -20 -45 -45 -45s-45 20 -45 45zM99 423v36c0 25 20 45 45 45s45 -20 45 -45v-36c0 -25 -20 -45 -45 -45s-45 20 -45 45z
" />
    <glyph glyph-name="less" unicode="&#x3c;" 
d="M432 135h-63c-25 0 -45 20 -45 45c0 15 -12 27 -27 27h-63c-25 0 -45 20 -45 45c0 15 -12 27 -27 27h-54c-25 0 -45 20 -45 45s20 45 45 45h54c15 0 27 12 27 27c0 25 20 45 45 45h63c15 0 27 12 27 27c0 25 20 45 45 45h63c25 0 45 -20 45 -45s-20 -45 -45 -45h-63
c-15 0 -27 -12 -27 -27c0 -25 -20 -45 -45 -45h-63c-15 0 -27 -12 -27 -27s12 -27 27 -27h63c25 0 45 -20 45 -45c0 -15 12 -27 27 -27h63c25 0 45 -20 45 -45s-20 -45 -45 -45z" />
    <glyph glyph-name="equal" unicode="=" 
d="M108 477h324c25 0 45 -20 45 -45s-20 -45 -45 -45h-324c-25 0 -45 20 -45 45s20 45 45 45zM108 261h324c25 0 45 -20 45 -45s-20 -45 -45 -45h-324c-25 0 -45 20 -45 45s20 45 45 45z" />
    <glyph glyph-name="greater" unicode="&#x3e;" 
d="M108 513h63c25 0 45 -20 45 -45c0 -15 12 -27 27 -27h63c25 0 45 -20 45 -45c0 -15 12 -27 27 -27h54c25 0 45 -20 45 -45s-20 -45 -45 -45h-54c-15 0 -27 -12 -27 -27c0 -25 -20 -45 -45 -45h-63c-15 0 -27 -12 -27 -27c0 -25 -20 -45 -45 -45h-63c-25 0 -45 20 -45 45
s20 45 45 45h63c15 0 27 12 27 27c0 25 20 45 45 45h63c15 0 27 12 27 27s-12 27 -27 27h-63c-25 0 -45 20 -45 45c0 15 -12 27 -27 27h-63c-25 0 -45 20 -45 45s20 45 45 45z" />
    <glyph glyph-name="question" unicode="?" horiz-adv-x="414" 
d="M117 243v45c0 25 20 45 45 45c15 0 27 12 27 27c0 25 20 45 45 45c15 0 27 12 27 27v99c0 15 -12 27 -27 27h-180c-25 0 -45 20 -45 45s20 45 45 45h180c25 0 45 -20 45 -45c0 -15 12 -27 27 -27c25 0 45 -20 45 -45v-99c0 -25 -20 -45 -45 -45c-15 0 -27 -12 -27 -27
c0 -25 -20 -45 -45 -45c-15 0 -27 -12 -27 -27v-45c0 -25 -20 -45 -45 -45s-45 20 -45 45zM117 45v36c0 25 20 45 45 45s45 -20 45 -45v-36c0 -25 -20 -45 -45 -45s-45 20 -45 45z" />
    <glyph glyph-name="at" unicode="@" horiz-adv-x="792" 
d="M495 216v36c0 15 -12 27 -27 27h-144c-15 0 -27 -12 -27 -27s12 -27 27 -27h108c25 0 45 -20 45 -45s-20 -45 -45 -45h-108c-25 0 -45 20 -45 45c0 15 -12 27 -27 27c-25 0 -45 20 -45 45s20 45 45 45c15 0 27 12 27 27c0 25 20 45 45 45h144c15 0 27 12 27 27
s-12 27 -27 27h-144c-25 0 -45 20 -45 45s20 45 45 45h144c25 0 45 -20 45 -45c0 -15 12 -27 27 -27c25 0 45 -20 45 -45v-180c0 -15 12 -27 27 -27s27 12 27 27v243c0 15 -12 27 -27 27c-25 0 -45 20 -45 45c0 15 -12 27 -27 27h-288c-15 0 -27 -12 -27 -27
c0 -25 -20 -45 -45 -45c-15 0 -27 -12 -27 -27v-270c0 -15 12 -27 27 -27c25 0 45 -20 45 -45c0 -15 12 -27 27 -27h252c25 0 45 -20 45 -45s-20 -45 -45 -45h-252c-25 0 -45 20 -45 45c0 15 -12 27 -27 27c-25 0 -45 20 -45 45c0 15 -12 27 -27 27c-25 0 -45 20 -45 45v270
c0 25 20 45 45 45c15 0 27 12 27 27c0 25 20 45 45 45c15 0 27 12 27 27c0 25 20 45 45 45h288c25 0 45 -20 45 -45c0 -15 12 -27 27 -27c25 0 45 -20 45 -45c0 -15 12 -27 27 -27c25 0 45 -20 45 -45v-243c0 -25 -20 -45 -45 -45c-15 0 -27 -12 -27 -27
c0 -25 -20 -45 -45 -45s-45 20 -45 45c0 15 -12 27 -27 27c-25 0 -45 20 -45 45z" />
    <glyph glyph-name="A" unicode="A" horiz-adv-x="594" 
d="M54 45v261c0 25 20 45 45 45c15 0 27 12 27 27v153c0 25 20 45 45 45c15 0 27 12 27 27c0 25 20 45 45 45h108c25 0 45 -20 45 -45c0 -15 12 -27 27 -27c25 0 45 -20 45 -45v-153c0 -15 12 -27 27 -27c25 0 45 -20 45 -45v-261c0 -25 -20 -45 -45 -45s-45 20 -45 45v63
c0 15 -12 27 -27 27h-252c-15 0 -27 -12 -27 -27v-63c0 -25 -20 -45 -45 -45s-45 20 -45 45zM171 225h252c15 0 27 12 27 27v54c0 15 -12 27 -27 27c-25 0 -45 20 -45 45v153c0 14 -13 27 -27 27h-108c-14 0 -27 -13 -27 -27v-153c0 -25 -20 -45 -45 -45
c-15 0 -27 -12 -27 -27v-54c0 -15 12 -27 27 -27z" />
    <glyph glyph-name="B" unicode="B" horiz-adv-x="612" 
d="M63 45v558c0 25 20 45 45 45h324c25 0 45 -20 45 -45c0 -15 12 -27 27 -27c25 0 45 -20 45 -45v-135c0 -25 -20 -45 -45 -45c-15 0 -27 -12 -27 -27s12 -27 27 -27c25 0 45 -20 45 -45v-135c0 -25 -20 -45 -45 -45c-15 0 -27 -12 -27 -27c0 -25 -20 -45 -45 -45h-324
c-25 0 -45 20 -45 45zM180 369h252c15 0 27 12 27 27v135c0 15 -12 27 -27 27h-252c-15 0 -27 -12 -27 -27v-135c0 -15 12 -27 27 -27zM180 90h252c15 0 27 12 27 27v135c0 15 -12 27 -27 27h-252c-15 0 -27 -12 -27 -27v-135c0 -15 12 -27 27 -27z" />
    <glyph glyph-name="C" unicode="C" horiz-adv-x="468" 
d="M63 117v414c0 25 20 45 45 45c15 0 27 12 27 27c0 25 20 45 45 45h216c25 0 45 -20 45 -45s-20 -45 -45 -45h-216c-15 0 -27 -12 -27 -27v-414c0 -15 12 -27 27 -27h216c25 0 45 -20 45 -45s-20 -45 -45 -45h-216c-25 0 -45 20 -45 45c0 15 -12 27 -27 27
c-25 0 -45 20 -45 45z" />
    <glyph glyph-name="D" unicode="D" horiz-adv-x="612" 
d="M63 45v558c0 25 20 45 45 45h324c25 0 45 -20 45 -45c0 -15 12 -27 27 -27c25 0 45 -20 45 -45v-414c0 -25 -20 -45 -45 -45c-15 0 -27 -12 -27 -27c0 -25 -20 -45 -45 -45h-324c-25 0 -45 20 -45 45zM180 90h252c15 0 27 12 27 27v414c0 15 -12 27 -27 27h-252
c-15 0 -27 -12 -27 -27v-414c0 -15 12 -27 27 -27z" />
    <glyph glyph-name="E" unicode="E" horiz-adv-x="468" 
d="M63 45v558c0 25 20 45 45 45h288c25 0 45 -20 45 -45s-20 -45 -45 -45h-216c-15 0 -27 -12 -27 -27v-135c0 -15 12 -27 27 -27h180c25 0 45 -20 45 -45s-20 -45 -45 -45h-180c-15 0 -27 -12 -27 -27v-135c0 -15 12 -27 27 -27h216c25 0 45 -20 45 -45s-20 -45 -45 -45
h-288c-25 0 -45 20 -45 45z" />
    <glyph glyph-name="F" unicode="F" horiz-adv-x="468" 
d="M63 45v558c0 25 20 45 45 45h288c25 0 45 -20 45 -45s-20 -45 -45 -45h-216c-15 0 -27 -12 -27 -27v-135c0 -15 12 -27 27 -27h180c25 0 45 -20 45 -45s-20 -45 -45 -45h-180c-15 0 -27 -12 -27 -27v-207c0 -25 -20 -45 -45 -45s-45 20 -45 45z" />
    <glyph glyph-name="G" unicode="G" horiz-adv-x="603" 
d="M63 117v414c0 25 20 45 45 45c15 0 27 12 27 27c0 25 20 45 45 45h288c25 0 45 -20 45 -45s-20 -45 -45 -45h-288c-15 0 -27 -12 -27 -27v-414c0 -15 12 -27 27 -27h252c15 0 27 12 27 27v135c0 15 -12 27 -27 27h-108c-25 0 -45 20 -45 45s20 45 45 45h180
c25 0 45 -20 45 -45v-207c0 -25 -20 -45 -45 -45c-15 0 -27 -12 -27 -27c0 -25 -20 -45 -45 -45h-252c-25 0 -45 20 -45 45c0 15 -12 27 -27 27c-25 0 -45 20 -45 45z" />
    <glyph glyph-name="H" unicode="H" horiz-adv-x="612" 
d="M63 45v558c0 25 20 45 45 45s45 -20 45 -45v-207c0 -15 12 -27 27 -27h252c15 0 27 12 27 27v207c0 25 20 45 45 45s45 -20 45 -45v-558c0 -25 -20 -45 -45 -45s-45 20 -45 45v207c0 15 -12 27 -27 27h-252c-15 0 -27 -12 -27 -27v-207c0 -25 -20 -45 -45 -45
s-45 20 -45 45z" />
    <glyph glyph-name="I" unicode="I" horiz-adv-x="216" 
d="M63 45v558c0 25 20 45 45 45s45 -20 45 -45v-558c0 -25 -20 -45 -45 -45s-45 20 -45 45z" />
    <glyph glyph-name="J" unicode="J" horiz-adv-x="378" 
d="M54 90h144c15 0 27 12 27 27v486c0 25 20 45 45 45s45 -20 45 -45v-486c0 -25 -20 -45 -45 -45c-15 0 -27 -12 -27 -27c0 -25 -20 -45 -45 -45h-144c-25 0 -45 20 -45 45s20 45 45 45z" />
    <glyph glyph-name="K" unicode="K" horiz-adv-x="585" 
d="M459 414v-180c0 -15 12 -27 27 -27c25 0 45 -20 45 -45v-117c0 -25 -20 -45 -45 -45s-45 20 -45 45v117c0 15 -12 27 -27 27c-25 0 -45 20 -45 45v18c0 15 -12 27 -27 27h-162c-15 0 -27 -12 -27 -27v-207c0 -25 -20 -45 -45 -45s-45 20 -45 45v558c0 25 20 45 45 45
s45 -20 45 -45v-207c0 -15 12 -27 27 -27h162c15 0 27 12 27 27v18c0 25 20 45 45 45c15 0 27 12 27 27v117c0 25 20 45 45 45s45 -20 45 -45v-117c0 -25 -20 -45 -45 -45c-15 0 -27 -12 -27 -27z" />
    <glyph glyph-name="L" unicode="L" horiz-adv-x="450" 
d="M63 45v558c0 25 20 45 45 45s45 -20 45 -45v-486c0 -15 12 -27 27 -27h216c25 0 45 -20 45 -45s-20 -45 -45 -45h-288c-25 0 -45 20 -45 45z" />
    <glyph glyph-name="M" unicode="M" horiz-adv-x="900" 
d="M63 45v486c0 25 20 45 45 45c15 0 27 12 27 27c0 25 20 45 45 45h540c25 0 45 -20 45 -45c0 -15 12 -27 27 -27c25 0 45 -20 45 -45v-486c0 -25 -20 -45 -45 -45s-45 20 -45 45v486c0 15 -12 27 -27 27h-198c-15 0 -27 -12 -27 -27v-486c0 -25 -20 -45 -45 -45
s-45 20 -45 45v486c0 15 -12 27 -27 27h-198c-15 0 -27 -12 -27 -27v-486c0 -25 -20 -45 -45 -45s-45 20 -45 45z" />
    <glyph glyph-name="N" unicode="N" horiz-adv-x="594" 
d="M531 531v-486c0 -25 -20 -45 -45 -45s-45 20 -45 45v486c0 15 -12 27 -27 27h-234c-15 0 -27 -12 -27 -27v-486c0 -25 -20 -45 -45 -45s-45 20 -45 45v486c0 25 20 45 45 45c15 0 27 12 27 27c0 25 20 45 45 45h234c25 0 45 -20 45 -45c0 -15 12 -27 27 -27
c25 0 45 -20 45 -45z" />
    <glyph glyph-name="O" unicode="O" horiz-adv-x="648" 
d="M63 117v414c0 25 20 45 45 45c15 0 27 12 27 27c0 25 20 45 45 45h288c25 0 45 -20 45 -45c0 -15 12 -27 27 -27c25 0 45 -20 45 -45v-414c0 -25 -20 -45 -45 -45c-15 0 -27 -12 -27 -27c0 -25 -20 -45 -45 -45h-288c-25 0 -45 20 -45 45c0 15 -12 27 -27 27
c-25 0 -45 20 -45 45zM180 90h288c15 0 27 12 27 27v414c0 15 -12 27 -27 27h-288c-15 0 -27 -12 -27 -27v-414c0 -15 12 -27 27 -27z" />
    <glyph glyph-name="P" unicode="P" horiz-adv-x="594" 
d="M63 45v558c0 25 20 45 45 45h324c25 0 45 -20 45 -45c0 -15 12 -27 27 -27c25 0 45 -20 45 -45v-135c0 -25 -20 -45 -45 -45c-15 0 -27 -12 -27 -27c0 -25 -20 -45 -45 -45h-252c-15 0 -27 -12 -27 -27v-207c0 -25 -20 -45 -45 -45s-45 20 -45 45zM180 369h252
c15 0 27 12 27 27v135c0 15 -12 27 -27 27h-252c-15 0 -27 -12 -27 -27v-135c0 -15 12 -27 27 -27z" />
    <glyph glyph-name="Q" unicode="Q" horiz-adv-x="648" 
d="M63 117v414c0 25 20 45 45 45c15 0 27 12 27 27c0 25 20 45 45 45h288c25 0 45 -20 45 -45c0 -15 12 -27 27 -27c25 0 45 -20 45 -45v-414c0 -25 -20 -45 -45 -45c-15 0 -27 -12 -27 -27s12 -27 27 -27c25 0 45 -20 45 -45v-72c0 -25 -20 -45 -45 -45s-45 20 -45 45v72
c0 15 -12 27 -27 27h-288c-25 0 -45 20 -45 45c0 15 -12 27 -27 27c-25 0 -45 20 -45 45zM180 90h288c15 0 27 12 27 27v414c0 15 -12 27 -27 27h-288c-15 0 -27 -12 -27 -27v-414c0 -15 12 -27 27 -27z" />
    <glyph glyph-name="R" unicode="R" horiz-adv-x="612" 
d="M180 369h252c15 0 27 12 27 27v135c0 15 -12 27 -27 27h-252c-15 0 -27 -12 -27 -27v-135c0 -15 12 -27 27 -27zM63 45v558c0 25 20 45 45 45h324c25 0 45 -20 45 -45c0 -15 12 -27 27 -27c25 0 45 -20 45 -45v-135c0 -25 -20 -45 -45 -45c-15 0 -27 -12 -27 -27
s12 -27 27 -27c25 0 45 -20 45 -45v-207c0 -25 -20 -45 -45 -45s-45 20 -45 45v207c0 15 -12 27 -27 27h-252c-15 0 -27 -12 -27 -27v-207c0 -25 -20 -45 -45 -45s-45 20 -45 45z" />
    <glyph glyph-name="S" unicode="S" 
d="M126 90h252c15 0 27 12 27 27v135c0 15 -12 27 -27 27h-216c-25 0 -45 20 -45 45c0 15 -12 27 -27 27c-25 0 -45 20 -45 45v135c0 25 20 45 45 45c15 0 27 12 27 27c0 25 20 45 45 45h252c25 0 45 -20 45 -45s-20 -45 -45 -45h-252c-15 0 -27 -12 -27 -27v-135
c0 -15 12 -27 27 -27h216c25 0 45 -20 45 -45c0 -15 12 -27 27 -27c25 0 45 -20 45 -45v-135c0 -25 -20 -45 -45 -45c-15 0 -27 -12 -27 -27c0 -25 -20 -45 -45 -45h-252c-25 0 -45 20 -45 45s20 45 45 45z" />
    <glyph glyph-name="T" unicode="T" horiz-adv-x="504" 
d="M207 45v486c0 15 -12 27 -27 27h-126c-25 0 -45 20 -45 45s20 45 45 45h396c25 0 45 -20 45 -45s-20 -45 -45 -45h-126c-15 0 -27 -12 -27 -27v-486c0 -25 -20 -45 -45 -45s-45 20 -45 45z" />
    <glyph glyph-name="U" unicode="U" horiz-adv-x="594" 
d="M63 117v486c0 25 20 45 45 45s45 -20 45 -45v-486c0 -15 12 -27 27 -27h234c15 0 27 12 27 27v486c0 25 20 45 45 45s45 -20 45 -45v-486c0 -25 -20 -45 -45 -45c-15 0 -27 -12 -27 -27c0 -25 -20 -45 -45 -45h-234c-25 0 -45 20 -45 45c0 15 -12 27 -27 27
c-25 0 -45 20 -45 45z" />
    <glyph glyph-name="V" unicode="V" horiz-adv-x="594" 
d="M126 117v171c0 15 -12 27 -27 27c-25 0 -45 20 -45 45v243c0 25 20 45 45 45s45 -20 45 -45v-243c0 -15 12 -27 27 -27c25 0 45 -20 45 -45v-171c0 -15 12 -27 27 -27h108c15 0 27 12 27 27v171c0 25 20 45 45 45c15 0 27 12 27 27v243c0 25 20 45 45 45s45 -20 45 -45
v-243c0 -25 -20 -45 -45 -45c-15 0 -27 -12 -27 -27v-171c0 -25 -20 -45 -45 -45c-15 0 -27 -12 -27 -27c0 -25 -20 -45 -45 -45h-108c-25 0 -45 20 -45 45c0 15 -12 27 -27 27c-25 0 -45 20 -45 45z" />
    <glyph glyph-name="W" unicode="W" horiz-adv-x="882" 
d="M126 117v171c0 15 -12 27 -27 27c-25 0 -45 20 -45 45v243c0 25 20 45 45 45s45 -20 45 -45v-243c0 -15 12 -27 27 -27c25 0 45 -20 45 -45v-171c0 -15 12 -27 27 -27h126c15 0 27 12 27 27v486c0 25 20 45 45 45s45 -20 45 -45v-486c0 -15 12 -27 27 -27h126
c15 0 27 12 27 27v171c0 25 20 45 45 45c15 0 27 12 27 27v243c0 25 20 45 45 45s45 -20 45 -45v-243c0 -25 -20 -45 -45 -45c-15 0 -27 -12 -27 -27v-171c0 -25 -20 -45 -45 -45c-15 0 -27 -12 -27 -27c0 -25 -20 -45 -45 -45h-396c-25 0 -45 20 -45 45c0 15 -12 27 -27 27
c-25 0 -45 20 -45 45z" />
    <glyph glyph-name="X" unicode="X" horiz-adv-x="576" 
d="M450 414v-180c0 -15 12 -27 27 -27c25 0 45 -20 45 -45v-117c0 -25 -20 -45 -45 -45s-45 20 -45 45v117c0 15 -12 27 -27 27c-25 0 -45 20 -45 45v18c0 15 -12 27 -27 27h-90c-15 0 -27 -12 -27 -27v-18c0 -25 -20 -45 -45 -45c-15 0 -27 -12 -27 -27v-117
c0 -25 -20 -45 -45 -45s-45 20 -45 45v117c0 25 20 45 45 45c15 0 27 12 27 27v180c0 15 -12 27 -27 27c-25 0 -45 20 -45 45v117c0 25 20 45 45 45s45 -20 45 -45v-117c0 -15 12 -27 27 -27c25 0 45 -20 45 -45v-18c0 -15 12 -27 27 -27h90c15 0 27 12 27 27v18
c0 25 20 45 45 45c15 0 27 12 27 27v117c0 25 20 45 45 45s45 -20 45 -45v-117c0 -25 -20 -45 -45 -45c-15 0 -27 -12 -27 -27z" />
    <glyph glyph-name="Y" unicode="Y" horiz-adv-x="558" 
d="M234 45v207c0 15 -12 27 -27 27h-36c-25 0 -45 20 -45 45c0 15 -12 27 -27 27c-25 0 -45 20 -45 45v207c0 25 20 45 45 45s45 -20 45 -45v-207c0 -15 12 -27 27 -27h216c15 0 27 12 27 27v207c0 25 20 45 45 45s45 -20 45 -45v-207c0 -25 -20 -45 -45 -45
c-15 0 -27 -12 -27 -27c0 -25 -20 -45 -45 -45h-36c-15 0 -27 -12 -27 -27v-207c0 -25 -20 -45 -45 -45s-45 20 -45 45z" />
    <glyph glyph-name="Z" unicode="Z" horiz-adv-x="522" 
d="M54 45v207c0 25 20 45 45 45c15 0 27 12 27 27c0 25 20 45 45 45h180c15 0 27 12 27 27v135c0 15 -12 27 -27 27h-252c-25 0 -45 20 -45 45s20 45 45 45h324c25 0 45 -20 45 -45v-207c0 -25 -20 -45 -45 -45c-15 0 -27 -12 -27 -27c0 -25 -20 -45 -45 -45h-180
c-15 0 -27 -12 -27 -27v-135c0 -15 12 -27 27 -27h252c25 0 45 -20 45 -45s-20 -45 -45 -45h-324c-25 0 -45 20 -45 45z" />
    <glyph glyph-name="bracketleft" unicode="[" horiz-adv-x="342" 
d="M63 -27v702c0 25 20 45 45 45h162c25 0 45 -20 45 -45s-20 -45 -45 -45h-90c-15 0 -27 -12 -27 -27v-558c0 -15 12 -27 27 -27h90c25 0 45 -20 45 -45s-20 -45 -45 -45h-162c-25 0 -45 20 -45 45z" />
    <glyph glyph-name="backslash" unicode="\" horiz-adv-x="360" 
d="M63 513v162c0 25 20 45 45 45s45 -20 45 -45v-162c0 -15 12 -27 27 -27c25 0 45 -20 45 -45v-162c0 -15 12 -27 27 -27c25 0 45 -20 45 -45v-162c0 -25 -20 -45 -45 -45s-45 20 -45 45v162c0 15 -12 27 -27 27c-25 0 -45 20 -45 45v162c0 15 -12 27 -27 27
c-25 0 -45 20 -45 45z" />
    <glyph glyph-name="bracketright" unicode="]" horiz-adv-x="342" 
d="M279 675v-702c0 -25 -20 -45 -45 -45h-162c-25 0 -45 20 -45 45s20 45 45 45h90c15 0 27 12 27 27v558c0 15 -12 27 -27 27h-90c-25 0 -45 20 -45 45s20 45 45 45h162c25 0 45 -20 45 -45z" />
    <glyph glyph-name="asciicircum" unicode="^" horiz-adv-x="504" 
d="M396 486c-25 0 -45 20 -45 45c0 15 -12 27 -27 27c-25 0 -45 20 -45 45c0 15 -12 27 -27 27s-27 -12 -27 -27c0 -25 -20 -45 -45 -45c-15 0 -27 -12 -27 -27c0 -25 -20 -45 -45 -45s-45 20 -45 45s20 45 45 45c15 0 27 12 27 27c0 25 20 45 45 45c15 0 27 12 27 27
c0 25 20 45 45 45s45 -20 45 -45c0 -15 12 -27 27 -27c25 0 45 -20 45 -45c0 -15 12 -27 27 -27c25 0 45 -20 45 -45s-20 -45 -45 -45z" />
    <glyph glyph-name="underscore" unicode="_" horiz-adv-x="576" 
d="M0 -126h576c25 0 45 -20 45 -45s-20 -45 -45 -45h-576c-25 0 -45 20 -45 45s20 45 45 45z" />
    <glyph glyph-name="grave" unicode="`" horiz-adv-x="396" 
d="M63 675c0 25 20 45 45 45h54c25 0 45 -20 45 -45c0 -15 12 -27 27 -27h54c25 0 45 -20 45 -45s-20 -45 -45 -45h-54c-25 0 -45 20 -45 45c0 15 -12 27 -27 27h-54c-25 0 -45 20 -45 45z" />
    <glyph glyph-name="a" unicode="a" horiz-adv-x="522" 
d="M45 117v63c0 25 20 45 45 45c15 0 27 12 27 27c0 25 20 45 45 45h180c15 0 27 12 27 27v63c0 15 -12 27 -27 27h-216c-25 0 -45 20 -45 45s20 45 45 45h216c25 0 45 -20 45 -45c0 -15 12 -27 27 -27c25 0 45 -20 45 -45v-342c0 -25 -20 -45 -45 -45h-252
c-25 0 -45 20 -45 45c0 15 -12 27 -27 27c-25 0 -45 20 -45 45zM162 90h180c15 0 27 12 27 27v63c0 15 -12 27 -27 27h-180c-15 0 -27 -12 -27 -27v-63c0 -15 12 -27 27 -27z" />
    <glyph glyph-name="b" unicode="b" 
d="M63 45v630c0 25 20 45 45 45s45 -20 45 -45v-144c0 -15 12 -27 27 -27h180c25 0 45 -20 45 -45c0 -15 12 -27 27 -27c25 0 45 -20 45 -45v-270c0 -25 -20 -45 -45 -45c-15 0 -27 -12 -27 -27c0 -25 -20 -45 -45 -45h-252c-25 0 -45 20 -45 45zM180 90h180
c15 0 27 12 27 27v270c0 15 -12 27 -27 27h-180c-15 0 -27 -12 -27 -27v-270c0 -15 12 -27 27 -27z" />
    <glyph glyph-name="c" unicode="c" horiz-adv-x="432" 
d="M63 117v270c0 25 20 45 45 45c15 0 27 12 27 27c0 25 20 45 45 45h180c25 0 45 -20 45 -45s-20 -45 -45 -45h-180c-15 0 -27 -12 -27 -27v-270c0 -15 12 -27 27 -27h180c25 0 45 -20 45 -45s-20 -45 -45 -45h-180c-25 0 -45 20 -45 45c0 15 -12 27 -27 27
c-25 0 -45 20 -45 45z" />
    <glyph glyph-name="d" unicode="d" 
d="M180 90h180c15 0 27 12 27 27v270c0 15 -12 27 -27 27h-180c-15 0 -27 -12 -27 -27v-270c0 -15 12 -27 27 -27zM63 117v270c0 25 20 45 45 45c15 0 27 12 27 27c0 25 20 45 45 45h180c15 0 27 12 27 27v144c0 25 20 45 45 45s45 -20 45 -45v-630c0 -25 -20 -45 -45 -45
h-252c-25 0 -45 20 -45 45c0 15 -12 27 -27 27c-25 0 -45 20 -45 45z" />
    <glyph glyph-name="e" unicode="e" horiz-adv-x="522" 
d="M180 297h180c15 0 27 12 27 27v63c0 15 -12 27 -27 27h-180c-15 0 -27 -12 -27 -27v-64c0 -14 12 -26 27 -26zM63 117v270c0 25 20 45 45 45c15 0 27 12 27 27c0 25 20 45 45 45h180c25 0 45 -20 45 -45c0 -15 12 -27 27 -27c25 0 45 -20 45 -45v-63
c0 -25 -20 -45 -45 -45c-15 0 -27 -12 -27 -27c0 -25 -20 -45 -45 -45h-180c-15 0 -27 -12 -27 -27v-63c0 -15 12 -27 27 -27h216c25 0 45 -20 45 -45s-20 -45 -45 -45h-216c-25 0 -45 20 -45 45c0 15 -12 27 -27 27c-25 0 -45 20 -45 45z" />
    <glyph glyph-name="f" unicode="f" horiz-adv-x="387" 
d="M117 45v342c0 15 -12 27 -27 27h-36c-25 0 -45 20 -45 45s20 45 45 45h36c15 0 27 12 27 27v72c0 25 20 45 45 45c15 0 27 12 27 27c0 25 20 45 45 45h108c25 0 45 -20 45 -45s-20 -45 -45 -45h-108c-15 0 -27 -12 -27 -27v-72c0 -15 12 -27 27 -27h108
c25 0 45 -20 45 -45s-20 -45 -45 -45h-108c-15 0 -27 -12 -27 -27v-342c0 -25 -20 -45 -45 -45s-45 20 -45 45z" />
    <glyph glyph-name="g" unicode="g" 
d="M180 90h180c15 0 27 12 27 27v270c0 15 -12 27 -27 27h-180c-15 0 -27 -12 -27 -27v-270c0 -15 12 -27 27 -27zM144 -126h216c15 0 27 12 27 27v72c0 15 -12 27 -27 27h-180c-25 0 -45 20 -45 45c0 15 -12 27 -27 27c-25 0 -45 20 -45 45v270c0 25 20 45 45 45
c15 0 27 12 27 27c0 25 20 45 45 45h252c25 0 45 -20 45 -45v-558c0 -25 -20 -45 -45 -45c-15 0 -27 -12 -27 -27c0 -25 -20 -45 -45 -45h-216c-25 0 -45 20 -45 45s20 45 45 45z" />
    <glyph glyph-name="h" unicode="h" 
d="M63 45v630c0 25 20 45 45 45s45 -20 45 -45v-144c0 -15 12 -27 27 -27h180c25 0 45 -20 45 -45c0 -15 12 -27 27 -27c25 0 45 -20 45 -45v-342c0 -25 -20 -45 -45 -45s-45 20 -45 45v342c0 15 -12 27 -27 27h-180c-15 0 -27 -12 -27 -27v-342c0 -25 -20 -45 -45 -45
s-45 20 -45 45z" />
    <glyph glyph-name="i" unicode="i" horiz-adv-x="216" 
d="M63 639v36c0 25 20 45 45 45s45 -20 45 -45v-36c0 -25 -20 -45 -45 -45s-45 20 -45 45zM63 45v414c0 25 20 45 45 45s45 -20 45 -45v-414c0 -25 -20 -45 -45 -45s-45 20 -45 45z" />
    <glyph glyph-name="j" unicode="j" horiz-adv-x="216" 
d="M63 639v36c0 25 20 45 45 45s45 -20 45 -45v-36c0 -25 -20 -45 -45 -45s-45 20 -45 45zM63 -171v630c0 25 20 45 45 45s45 -20 45 -45v-630c0 -25 -20 -45 -45 -45s-45 20 -45 45z" />
    <glyph glyph-name="k" unicode="k" horiz-adv-x="495" 
d="M369 324v-144c0 -15 12 -27 27 -27c25 0 45 -20 45 -45v-63c0 -25 -20 -45 -45 -45s-45 20 -45 45v63c0 15 -12 27 -27 27c-25 0 -45 20 -45 45c0 15 -12 27 -27 27h-72c-15 0 -27 -12 -27 -27v-135c0 -25 -20 -45 -45 -45s-45 20 -45 45v630c0 25 20 45 45 45
s45 -20 45 -45v-351c0 -15 12 -27 27 -27h72c15 0 27 12 27 27c0 25 20 45 45 45c15 0 27 12 27 27v63c0 25 20 45 45 45s45 -20 45 -45v-63c0 -25 -20 -45 -45 -45c-15 0 -27 -12 -27 -27z" />
    <glyph glyph-name="l" unicode="l" horiz-adv-x="216" 
d="M63 45v630c0 25 20 45 45 45s45 -20 45 -45v-630c0 -25 -20 -45 -45 -45s-45 20 -45 45z" />
    <glyph glyph-name="m" unicode="m" horiz-adv-x="792" 
d="M63 45v414c0 25 20 45 45 45h504c25 0 45 -20 45 -45c0 -15 12 -27 27 -27c25 0 45 -20 45 -45v-342c0 -25 -20 -45 -45 -45s-45 20 -45 45v342c0 15 -12 27 -27 27h-144c-15 0 -27 -12 -27 -27v-342c0 -25 -20 -45 -45 -45s-45 20 -45 45v342c0 15 -12 27 -27 27h-144
c-15 0 -27 -12 -27 -27v-342c0 -25 -20 -45 -45 -45s-45 20 -45 45z" />
    <glyph glyph-name="n" unicode="n" 
d="M63 45v414c0 25 20 45 45 45h252c25 0 45 -20 45 -45c0 -15 12 -27 27 -27c25 0 45 -20 45 -45v-342c0 -25 -20 -45 -45 -45s-45 20 -45 45v342c0 15 -12 27 -27 27h-180c-15 0 -27 -12 -27 -27v-342c0 -25 -20 -45 -45 -45s-45 20 -45 45z" />
    <glyph glyph-name="o" unicode="o" 
d="M63 117v270c0 25 20 45 45 45c15 0 27 12 27 27c0 25 20 45 45 45h180c25 0 45 -20 45 -45c0 -15 12 -27 27 -27c25 0 45 -20 45 -45v-270c0 -25 -20 -45 -45 -45c-15 0 -27 -12 -27 -27c0 -25 -20 -45 -45 -45h-180c-25 0 -45 20 -45 45c0 15 -12 27 -27 27
c-25 0 -45 20 -45 45zM180 90h180c15 0 27 12 27 27v270c0 15 -12 27 -27 27h-180c-15 0 -27 -12 -27 -27v-270c0 -15 12 -27 27 -27z" />
    <glyph glyph-name="p" unicode="p" 
d="M180 90h180c15 0 27 12 27 27v270c0 15 -12 27 -27 27h-180c-15 0 -27 -12 -27 -27v-270c0 -15 12 -27 27 -27zM63 -171v630c0 25 20 45 45 45h252c25 0 45 -20 45 -45c0 -15 12 -27 27 -27c25 0 45 -20 45 -45v-270c0 -25 -20 -45 -45 -45c-15 0 -27 -12 -27 -27
c0 -25 -20 -45 -45 -45h-180c-15 0 -27 -12 -27 -27v-144c0 -25 -20 -45 -45 -45s-45 20 -45 45z" />
    <glyph glyph-name="q" unicode="q" 
d="M63 117v270c0 25 20 45 45 45c15 0 27 12 27 27c0 25 20 45 45 45h180c25 0 45 -20 45 -45c0 -15 12 -27 27 -27c25 0 45 -20 45 -45v-558c0 -25 -20 -45 -45 -45s-45 20 -45 45v144c0 15 -12 27 -27 27h-180c-25 0 -45 20 -45 45c0 15 -12 27 -27 27
c-25 0 -45 20 -45 45zM180 90h180c15 0 27 12 27 27v270c0 15 -12 27 -27 27h-180c-15 0 -27 -12 -27 -27v-270c0 -15 12 -27 27 -27z" />
    <glyph glyph-name="r" unicode="r" horiz-adv-x="369" 
d="M63 45v342c0 25 20 45 45 45c15 0 27 12 27 27c0 25 20 45 45 45h144c25 0 45 -20 45 -45s-20 -45 -45 -45h-144c-15 0 -27 -12 -27 -27v-342c0 -25 -20 -45 -45 -45s-45 20 -45 45z" />
    <glyph glyph-name="s" unicode="s" horiz-adv-x="468" 
d="M126 90h180c15 0 27 12 27 27v63c0 15 -12 27 -27 27h-144c-25 0 -45 20 -45 45c0 15 -12 27 -27 27c-25 0 -45 20 -45 45v63c0 25 20 45 45 45c15 0 27 12 27 27c0 25 20 45 45 45h180c25 0 45 -20 45 -45s-20 -45 -45 -45h-180c-15 0 -27 -12 -27 -27v-63
c0 -15 12 -27 27 -27h144c25 0 45 -20 45 -45c0 -15 12 -27 27 -27c25 0 45 -20 45 -45v-63c0 -25 -20 -45 -45 -45c-15 0 -27 -12 -27 -27c0 -25 -20 -45 -45 -45h-180c-25 0 -45 20 -45 45s20 45 45 45z" />
    <glyph glyph-name="t" unicode="t" horiz-adv-x="396" 
d="M117 117v270c0 15 -12 27 -27 27h-36c-25 0 -45 20 -45 45s20 45 45 45h36c15 0 27 12 27 27v72c0 25 20 45 45 45s45 -20 45 -45v-72c0 -15 12 -27 27 -27h108c25 0 45 -20 45 -45s-20 -45 -45 -45h-108c-15 0 -27 -12 -27 -27v-270c0 -15 12 -27 27 -27h108
c25 0 45 -20 45 -45s-20 -45 -45 -45h-108c-25 0 -45 20 -45 45c0 15 -12 27 -27 27c-25 0 -45 20 -45 45z" />
    <glyph glyph-name="u" unicode="u" 
d="M63 117v342c0 25 20 45 45 45s45 -20 45 -45v-342c0 -15 12 -27 27 -27h180c15 0 27 12 27 27v342c0 25 20 45 45 45s45 -20 45 -45v-414c0 -25 -20 -45 -45 -45h-252c-25 0 -45 20 -45 45c0 15 -12 27 -27 27c-25 0 -45 20 -45 45z" />
    <glyph glyph-name="v" unicode="v" horiz-adv-x="522" 
d="M117 117v135c0 15 -12 27 -27 27c-25 0 -45 20 -45 45v135c0 25 20 45 45 45s45 -20 45 -45v-135c0 -15 12 -27 27 -27c25 0 45 -20 45 -45v-135c0 -15 12 -27 27 -27h54c15 0 27 12 27 27v135c0 25 20 45 45 45c15 0 27 12 27 27v135c0 25 20 45 45 45s45 -20 45 -45
v-135c0 -25 -20 -45 -45 -45c-15 0 -27 -12 -27 -27v-135c0 -25 -20 -45 -45 -45c-15 0 -27 -12 -27 -27c0 -25 -20 -45 -45 -45h-54c-25 0 -45 20 -45 45c0 15 -12 27 -27 27c-25 0 -45 20 -45 45z" />
    <glyph glyph-name="w" unicode="w" horiz-adv-x="792" 
d="M63 117v342c0 25 20 45 45 45s45 -20 45 -45v-342c0 -15 12 -27 27 -27h144c15 0 27 12 27 27v342c0 25 20 45 45 45s45 -20 45 -45v-342c0 -15 12 -27 27 -27h144c15 0 27 12 27 27v342c0 25 20 45 45 45s45 -20 45 -45v-342c0 -25 -20 -45 -45 -45
c-15 0 -27 -12 -27 -27c0 -25 -20 -45 -45 -45h-432c-25 0 -45 20 -45 45c0 15 -12 27 -27 27c-25 0 -45 20 -45 45z" />
    <glyph glyph-name="x" unicode="x" horiz-adv-x="522" 
d="M126 180v144c0 15 -12 27 -27 27c-25 0 -45 20 -45 45v63c0 25 20 45 45 45s45 -20 45 -45v-63c0 -15 12 -27 27 -27c25 0 45 -20 45 -45c0 -15 12 -27 27 -27h36c15 0 27 12 27 27c0 25 20 45 45 45c15 0 27 12 27 27v63c0 25 20 45 45 45s45 -20 45 -45v-63
c0 -25 -20 -45 -45 -45c-15 0 -27 -12 -27 -27v-144c0 -15 12 -27 27 -27c25 0 45 -20 45 -45v-63c0 -25 -20 -45 -45 -45s-45 20 -45 45v63c0 15 -12 27 -27 27c-25 0 -45 20 -45 45c0 15 -12 27 -27 27h-36c-15 0 -27 -12 -27 -27c0 -25 -20 -45 -45 -45
c-15 0 -27 -12 -27 -27v-63c0 -25 -20 -45 -45 -45s-45 20 -45 45v63c0 25 20 45 45 45c15 0 27 12 27 27z" />
    <glyph glyph-name="y" unicode="y" 
d="M144 -126h216c15 0 27 12 27 27v71c0 16 -12 28 -27 28h-180c-25 0 -45 20 -45 45c0 15 -12 27 -27 27c-25 0 -45 20 -45 45v342c0 25 20 45 45 45s45 -20 45 -45v-342c0 -15 12 -27 27 -27h180c15 0 27 12 27 27v342c0 25 20 45 45 45s45 -20 45 -45v-558
c0 -25 -20 -45 -45 -45c-15 0 -27 -12 -27 -27c0 -25 -20 -45 -45 -45h-216c-25 0 -45 20 -45 45s20 45 45 45z" />
    <glyph glyph-name="z" unicode="z" horiz-adv-x="468" 
d="M45 45v135c0 25 20 45 45 45c15 0 27 12 27 27c0 25 20 45 45 45h144c15 0 27 12 27 27v63c0 15 -12 27 -27 27h-216c-25 0 -45 20 -45 45s20 45 45 45h288c25 0 45 -20 45 -45v-135c0 -25 -20 -45 -45 -45c-15 0 -27 -12 -27 -27c0 -25 -20 -45 -45 -45h-144
c-15 0 -27 -12 -27 -27v-63c0 -15 12 -27 27 -27h216c25 0 45 -20 45 -45s-20 -45 -45 -45h-288c-25 0 -45 20 -45 45z" />
    <glyph glyph-name="braceleft" unicode="{" horiz-adv-x="396" 
d="M72 369h54c15 0 27 12 27 27v207c0 25 20 45 45 45c15 0 27 12 27 27c0 25 20 45 45 45h54c25 0 45 -20 45 -45s-20 -45 -45 -45h-54c-15 0 -27 -12 -27 -27v-207c0 -25 -20 -45 -45 -45c-15 0 -27 -12 -27 -27s12 -27 27 -27c25 0 45 -20 45 -45v-207
c0 -15 12 -27 27 -27h54c25 0 45 -20 45 -45s-20 -45 -45 -45h-54c-25 0 -45 20 -45 45c0 15 -12 27 -27 27c-25 0 -45 20 -45 45v207c0 15 -12 27 -27 27h-54c-25 0 -45 20 -45 45s20 45 45 45z" />
    <glyph glyph-name="bar" unicode="|" horiz-adv-x="216" 
d="M63 -27v702c0 25 20 45 45 45s45 -20 45 -45v-702c0 -25 -20 -45 -45 -45s-45 20 -45 45z" />
    <glyph glyph-name="braceright" unicode="}" horiz-adv-x="396" 
d="M324 279h-54c-15 0 -27 -12 -27 -27v-207c0 -25 -20 -45 -45 -45c-15 0 -27 -12 -27 -27c0 -25 -20 -45 -45 -45h-54c-25 0 -45 20 -45 45s20 45 45 45h54c15 0 27 12 27 27v207c0 25 20 45 45 45c15 0 27 12 27 27s-12 27 -27 27c-25 0 -45 20 -45 45v207
c0 15 -12 27 -27 27h-54c-25 0 -45 20 -45 45s20 45 45 45h54c25 0 45 -20 45 -45c0 -15 12 -27 27 -27c25 0 45 -20 45 -45v-207c0 -15 12 -27 27 -27h54c25 0 45 -20 45 -45s-20 -45 -45 -45z" />
    <glyph glyph-name="asciitilde" unicode="~" 
d="M306 432h54c15 0 27 12 27 27c0 25 20 45 45 45s45 -20 45 -45s-20 -45 -45 -45c-15 0 -27 -12 -27 -27c0 -25 -20 -45 -45 -45h-54c-25 0 -45 20 -45 45c0 15 -12 27 -27 27h-54c-15 0 -27 -12 -27 -27c0 -25 -20 -45 -45 -45s-45 20 -45 45s20 45 45 45
c15 0 27 12 27 27c0 25 20 45 45 45h54c25 0 45 -20 45 -45c0 -15 12 -27 27 -27z" />
    <glyph glyph-name="uni00A0" unicode="&#xa0;" horiz-adv-x="288" 
 />
    <glyph glyph-name="exclamdown" unicode="&#xa1;" horiz-adv-x="216" 
d="M153 459v-36c0 -25 -20 -45 -45 -45s-45 20 -45 45v36c0 25 20 45 45 45s45 -20 45 -45zM153 261v-360c0 -25 -20 -45 -45 -45s-45 20 -45 45v360c0 25 20 45 45 45s45 -20 45 -45z" />
    <glyph glyph-name="cent" unicode="&#xa2;" horiz-adv-x="432" 
d="M342 504h18c25 0 45 -20 45 -45s-20 -45 -45 -45h-180c-15 0 -27 -12 -27 -27v-270c0 -15 12 -27 27 -27h180c25 0 45 -20 45 -45s-20 -45 -45 -45h-18c-15 0 -27 -12 -27 -27v-36c0 -25 -20 -45 -45 -45s-45 20 -45 45v36c0 15 -12 27 -27 27h-18c-25 0 -45 20 -45 45
c0 15 -12 27 -27 27c-25 0 -45 20 -45 45v270c0 25 20 45 45 45c15 0 27 12 27 27c0 25 20 45 45 45h18c15 0 27 12 27 27v36c0 25 20 45 45 45s45 -20 45 -45v-36c0 -15 12 -27 27 -27z" />
    <glyph glyph-name="sterling" unicode="&#xa3;" 
d="M73 90h36c14 0 26 11 26 27v135c0 15 -12 27 -27 27h-36c-25 0 -45 20 -45 45s20 45 45 45h36c15 0 27 12 27 27v135c0 25 20 45 45 45c15 0 27 12 27 27c0 25 20 45 45 45h180c25 0 45 -20 45 -45s-20 -45 -45 -45h-180c-15 0 -27 -12 -27 -27v-135c0 -15 12 -27 27 -27
h108c25 0 45 -20 45 -45s-20 -45 -45 -45h-108c-15 0 -27 -12 -27 -27v-135c0 -15 12 -27 27 -27h216c25 0 45 -20 45 -45s-20 -45 -45 -45h-395c-25 0 -45 20 -45 45s20 45 45 45z" />
    <glyph glyph-name="currency" unicode="&#xa4;" horiz-adv-x="585" 
d="M405 135c-15 0 -27 -12 -27 -27c0 -25 -20 -45 -45 -45h-81c-25 0 -45 20 -45 45c0 15 -12 27 -27 27s-27 -12 -27 -27c0 -25 -20 -45 -45 -45s-45 20 -45 45s20 45 45 45c15 0 27 12 27 27s-12 27 -27 27c-25 0 -45 20 -45 45v72c0 25 20 45 45 45c15 0 27 12 27 27
s-12 27 -27 27c-25 0 -45 20 -45 45s20 45 45 45s45 -20 45 -45c0 -15 12 -27 27 -27s27 12 27 27c0 25 20 45 45 45h81c25 0 45 -20 45 -45c0 -15 12 -27 27 -27s27 12 27 27c0 25 20 45 45 45s45 -20 45 -45s-20 -45 -45 -45c-15 0 -27 -12 -27 -27s12 -27 27 -27
c25 0 45 -20 45 -45v-72c0 -25 -20 -45 -45 -45c-15 0 -27 -12 -27 -27s12 -27 27 -27c25 0 45 -20 45 -45s-20 -45 -45 -45s-45 20 -45 45c0 15 -12 27 -27 27zM252 153h81c15 0 27 12 27 27c0 25 20 45 45 45c15 0 27 12 27 27v72c0 15 -12 27 -27 27c-25 0 -45 20 -45 45
c0 15 -12 27 -27 27h-81c-15 0 -27 -12 -27 -27c0 -25 -20 -45 -45 -45c-15 0 -27 -12 -27 -27v-72c0 -15 12 -27 27 -27c25 0 45 -20 45 -45c0 -15 12 -27 27 -27z" />
    <glyph glyph-name="yen" unicode="&#xa5;" 
d="M315 252v-36c0 -15 12 -27 27 -27h72c25 0 45 -20 45 -45s-20 -45 -45 -45h-72c-15 0 -27 -12 -27 -27v-27c0 -25 -20 -45 -45 -45s-45 20 -45 45v27c0 15 -12 27 -27 27h-72c-25 0 -45 20 -45 45s20 45 45 45h72c15 0 27 12 27 27v36c0 15 -12 27 -27 27h-36
c-25 0 -45 20 -45 45c0 15 -12 27 -27 27c-25 0 -45 20 -45 45v207c0 25 20 45 45 45s45 -20 45 -45v-207c0 -15 12 -27 27 -27h216c15 0 27 12 27 27v207c0 25 20 45 45 45s45 -20 45 -45v-207c0 -25 -20 -45 -45 -45c-15 0 -27 -12 -27 -27c0 -25 -20 -45 -45 -45h-35
c-15 0 -28 -12 -28 -27z" />
    <glyph glyph-name="brokenbar" unicode="&#xa6;" horiz-adv-x="216" 
d="M63 414v261c0 25 20 45 45 45s45 -20 45 -45v-261c0 -25 -20 -45 -45 -45s-45 20 -45 45zM63 -27v261c0 25 20 45 45 45s45 -20 45 -45v-261c0 -25 -20 -45 -45 -45s-45 20 -45 45z" />
    <glyph glyph-name="section" unicode="&#xa7;" horiz-adv-x="468" 
d="M288 315h-108c-15 0 -27 -12 -27 -27v-144c0 -15 12 -27 27 -27h108c15 0 27 12 27 27v144c0 15 -12 27 -27 27zM333 72c0 -15 12 -27 27 -27c25 0 45 -20 45 -45v-99c0 -25 -20 -45 -45 -45c-15 0 -27 -12 -27 -27c0 -25 -20 -45 -45 -45h-162c-25 0 -45 20 -45 45
s20 45 45 45h162c15 0 27 12 27 27v99c0 15 -12 27 -27 27h-108c-25 0 -45 20 -45 45c0 15 -12 27 -27 27c-25 0 -45 20 -45 45v144c0 25 20 45 45 45c15 0 27 12 27 27s-12 27 -27 27c-25 0 -45 20 -45 45v99c0 25 20 45 45 45c15 0 27 12 27 27c0 25 20 45 45 45h162
c25 0 45 -20 45 -45s-20 -45 -45 -45h-162c-15 0 -27 -12 -27 -27v-99c0 -15 12 -27 27 -27h108c25 0 45 -20 45 -45c0 -15 12 -27 27 -27c25 0 45 -20 45 -45v-144c0 -25 -20 -45 -45 -45c-15 0 -27 -12 -27 -27z" />
    <glyph glyph-name="dieresis" unicode="&#xa8;" horiz-adv-x="396" 
d="M63 639v36c0 25 20 45 45 45s45 -20 45 -45v-36c0 -25 -20 -45 -45 -45s-45 20 -45 45zM243 639v36c0 25 20 45 45 45s45 -20 45 -45v-36c0 -25 -20 -45 -45 -45s-45 20 -45 45z" />
    <glyph glyph-name="copyright" unicode="&#xa9;" horiz-adv-x="792" 
d="M522 189c0 -25 -20 -45 -45 -45h-135c-25 0 -45 20 -45 45c0 15 -12 27 -27 27c-25 0 -45 20 -45 45v126c0 25 20 45 45 45c15 0 27 12 27 27c0 25 20 45 45 45h135c25 0 45 -20 45 -45s-20 -45 -45 -45h-135c-15 0 -27 -12 -27 -27v-126c0 -15 12 -27 27 -27h135
c25 0 45 -20 45 -45zM729 459v-270c0 -25 -20 -45 -45 -45c-15 0 -27 -12 -27 -27c0 -25 -20 -45 -45 -45c-15 0 -27 -12 -27 -27c0 -25 -20 -45 -45 -45h-288c-25 0 -45 20 -45 45c0 15 -12 27 -27 27c-25 0 -45 20 -45 45c0 15 -12 27 -27 27c-25 0 -45 20 -45 45v270
c0 25 20 45 45 45c15 0 27 12 27 27c0 25 20 45 45 45c15 0 27 12 27 27c0 25 20 45 45 45h288c25 0 45 -20 45 -45c0 -15 12 -27 27 -27c25 0 45 -20 45 -45c0 -15 12 -27 27 -27c25 0 45 -20 45 -45zM639 189v270c0 15 -12 27 -27 27c-25 0 -45 20 -45 45
c0 15 -12 27 -27 27h-288c-15 0 -27 -12 -27 -27c0 -25 -20 -45 -45 -45c-15 0 -27 -12 -27 -27v-270c0 -15 12 -27 27 -27c25 0 45 -20 45 -45c0 -15 12 -27 27 -27h288c15 0 27 12 27 27c0 25 20 45 45 45c15 0 27 12 27 27z" />
    <glyph glyph-name="ordfeminine" unicode="&#xaa;" horiz-adv-x="414" 
d="M27 423v18c0 25 20 45 45 45c15 0 27 12 27 27c0 25 20 45 45 45h126c15 0 27 12 27 27v18c0 15 -12 27 -27 27h-162c-25 0 -45 20 -45 45s20 45 45 45h162c25 0 45 -20 45 -45c0 -15 12 -27 27 -27c25 0 45 -20 45 -45v-252c0 -25 -20 -45 -45 -45h-198
c-25 0 -45 20 -45 45c0 15 -12 27 -27 27c-25 0 -45 20 -45 45zM144 396h126c15 0 27 12 27 27v18c0 15 -12 27 -27 27h-126c-15 0 -27 -12 -27 -27v-18c0 -15 12 -27 27 -27z" />
    <glyph glyph-name="guillemotleft" unicode="&#xab;" horiz-adv-x="720" 
d="M324 135h-36c-25 0 -45 20 -45 45c0 15 -12 27 -27 27h-36c-25 0 -45 20 -45 45c0 15 -12 27 -27 27h-36c-25 0 -45 20 -45 45s20 45 45 45h36c15 0 27 12 27 27c0 25 20 45 45 45h36c15 0 27 12 27 27c0 25 20 45 45 45h36c25 0 45 -20 45 -45s-20 -45 -45 -45h-36
c-15 0 -27 -12 -27 -27c0 -25 -20 -45 -45 -45h-36c-15 0 -27 -12 -27 -27s12 -27 27 -27h36c25 0 45 -20 45 -45c0 -15 12 -27 27 -27h36c25 0 45 -20 45 -45s-20 -45 -45 -45zM648 135h-36c-25 0 -45 20 -45 45c0 15 -12 27 -27 27h-36c-25 0 -45 20 -45 45
c0 15 -12 27 -27 27h-36c-25 0 -45 20 -45 45s20 45 45 45h36c15 0 27 12 27 27c0 25 20 45 45 45h36c15 0 27 12 27 27c0 25 20 45 45 45h36c25 0 45 -20 45 -45s-20 -45 -45 -45h-36c-15 0 -27 -12 -27 -27c0 -25 -20 -45 -45 -45h-36c-15 0 -27 -12 -27 -27
s12 -27 27 -27h36c25 0 45 -20 45 -45c0 -15 12 -27 27 -27h36c25 0 45 -20 45 -45s-20 -45 -45 -45z" />
    <glyph glyph-name="logicalnot" unicode="&#xac;" horiz-adv-x="792" 
d="M108 513h576c25 0 45 -20 45 -45v-288c0 -25 -20 -45 -45 -45s-45 20 -45 45v216c0 15 -12 27 -27 27h-504c-25 0 -45 20 -45 45s20 45 45 45z" />
    <glyph glyph-name="uni00AD" unicode="&#xad;" horiz-adv-x="396" 
d="M108 369h180c25 0 45 -20 45 -45s-20 -45 -45 -45h-180c-25 0 -45 20 -45 45s20 45 45 45z" />
    <glyph glyph-name="registered" unicode="&#xae;" horiz-adv-x="792" 
d="M729 459v-270c0 -25 -20 -45 -45 -45c-15 0 -27 -12 -27 -27c0 -25 -20 -45 -45 -45c-15 0 -27 -12 -27 -27c0 -25 -20 -45 -45 -45h-288c-25 0 -45 20 -45 45c0 15 -12 27 -27 27c-25 0 -45 20 -45 45c0 15 -12 27 -27 27c-25 0 -45 20 -45 45v270c0 25 20 45 45 45
c15 0 27 12 27 27c0 25 20 45 45 45c15 0 27 12 27 27c0 25 20 45 45 45h288c25 0 45 -20 45 -45c0 -15 12 -27 27 -27c25 0 45 -20 45 -45c0 -15 12 -27 27 -27c25 0 45 -20 45 -45zM639 189v270c0 15 -12 27 -27 27c-25 0 -45 20 -45 45c0 15 -12 27 -27 27h-288
c-15 0 -27 -12 -27 -27c0 -25 -20 -45 -45 -45c-15 0 -27 -12 -27 -27v-270c0 -15 12 -27 27 -27c25 0 45 -20 45 -45c0 -15 12 -27 27 -27h288c15 0 27 12 27 27c0 25 20 45 45 45c15 0 27 12 27 27zM333 387v-27c0 -15 12 -27 27 -27h72c15 0 27 12 27 27v27
c0 15 -12 27 -27 27h-72c-15 0 -27 -12 -27 -27zM333 216v-27c0 -25 -20 -45 -45 -45s-45 20 -45 45v270c0 25 20 45 45 45h144c25 0 45 -20 45 -45c0 -15 12 -27 27 -27c25 0 45 -20 45 -45v-27c0 -25 -20 -45 -45 -45c-15 0 -27 -12 -27 -27s12 -27 27 -27
c25 0 45 -20 45 -45v-27c0 -25 -20 -45 -45 -45s-45 20 -45 45v27c0 15 -12 27 -27 27h-72c-15 0 -27 -12 -27 -27z" />
    <glyph glyph-name="macron" unicode="&#xaf;" horiz-adv-x="396" 
d="M108 720h180c25 0 45 -20 45 -45s-20 -45 -45 -45h-180c-25 0 -45 20 -45 45s20 45 45 45z" />
    <glyph glyph-name="degree" unicode="&#xb0;" horiz-adv-x="342" 
d="M27 549v54c0 25 20 45 45 45c15 0 27 12 27 27c0 25 20 45 45 45h54c25 0 45 -20 45 -45c0 -15 12 -27 27 -27c25 0 45 -20 45 -45v-54c0 -25 -20 -45 -45 -45c-15 0 -27 -12 -27 -27c0 -25 -20 -45 -45 -45h-54c-25 0 -45 20 -45 45c0 15 -12 27 -27 27
c-25 0 -45 20 -45 45zM144 522h54c15 0 27 12 27 27v54c0 15 -12 27 -27 27h-54c-15 0 -27 -12 -27 -27v-54c0 -15 12 -27 27 -27z" />
    <glyph glyph-name="plusminus" unicode="&#xb1;" horiz-adv-x="576" 
d="M243 171v81c0 15 -12 27 -27 27h-108c-25 0 -45 20 -45 45s20 45 45 45h108c15 0 27 12 27 27v108c0 25 20 45 45 45s45 -20 45 -45v-108c0 -15 12 -27 27 -27h108c25 0 45 -20 45 -45s-20 -45 -45 -45h-108c-15 0 -27 -12 -27 -27v-81c0 -25 -20 -45 -45 -45
s-45 20 -45 45zM108 90h360c25 0 45 -20 45 -45s-20 -45 -45 -45h-360c-25 0 -45 20 -45 45s20 45 45 45z" />
    <glyph glyph-name="twosuperior" unicode="&#xb2;" horiz-adv-x="378" 
d="M27 351v90c0 25 20 45 45 45c15 0 27 12 27 27c0 25 20 45 45 45h90c15 0 27 12 27 27v18c0 15 -12 27 -27 27h-144c-25 0 -45 20 -45 45s20 45 45 45h144c25 0 45 -20 45 -45c0 -15 12 -27 27 -27c25 0 45 -20 45 -45v-18c0 -25 -20 -45 -45 -45c-15 0 -27 -12 -27 -27
c0 -25 -20 -45 -45 -45h-90c-15 0 -27 -12 -27 -27v-18c0 -15 12 -27 27 -27h162c25 0 45 -20 45 -45s-20 -45 -45 -45h-234c-25 0 -45 20 -45 45z" />
    <glyph glyph-name="threesuperior" unicode="&#xb3;" horiz-adv-x="342" 
d="M72 396h126c15 0 27 12 27 27v18c0 15 -12 27 -27 27h-90c-25 0 -45 20 -45 45s20 45 45 45h90c15 0 27 12 27 27v18c0 15 -12 27 -27 27h-126c-25 0 -45 20 -45 45s20 45 45 45h126c25 0 45 -20 45 -45c0 -15 12 -27 27 -27c25 0 45 -20 45 -45v-18
c0 -25 -20 -45 -45 -45c-15 0 -27 -12 -27 -27s12 -27 27 -27c25 0 45 -20 45 -45v-18c0 -25 -20 -45 -45 -45c-15 0 -27 -12 -27 -27c0 -25 -20 -45 -45 -45h-126c-25 0 -45 20 -45 45s20 45 45 45z" />
    <glyph glyph-name="acute" unicode="&#xb4;" horiz-adv-x="396" 
d="M333 675c0 -25 -20 -45 -45 -45h-54c-15 0 -27 -12 -27 -27c0 -25 -20 -45 -45 -45h-54c-25 0 -45 20 -45 45s20 45 45 45h54c15 0 27 12 27 27c0 25 20 45 45 45h54c25 0 45 -20 45 -45z" />
    <glyph glyph-name="mu" unicode="&#xb5;" 
d="M63 -171v629c0 25 20 45 45 45s45 -20 45 -45v-341c0 -15 12 -27 27 -27h180c15 0 27 12 27 27v342c0 25 20 45 45 45s45 -20 45 -45v-342c0 -25 -20 -45 -45 -45c-15 0 -27 -12 -27 -27c0 -25 -20 -45 -45 -45h-180c-15 0 -27 -12 -27 -27v-144c0 -25 -20 -45 -45 -45
s-45 20 -45 45z" />
    <glyph glyph-name="paragraph" unicode="&#xb6;" horiz-adv-x="612" 
d="M459 -171v774c0 25 20 45 45 45s45 -20 45 -45v-774c0 -25 -20 -45 -45 -45s-45 20 -45 45zM279 -171v414c0 15 -12 27 -27 27h-72c-25 0 -45 20 -45 45c0 15 -12 27 -27 27c-25 0 -45 20 -45 45v144c0 25 20 45 45 45c15 0 27 12 27 27c0 25 20 45 45 45h144
c25 0 45 -20 45 -45v-774c0 -25 -20 -45 -45 -45s-45 20 -45 45z" />
    <glyph glyph-name="periodcentered" unicode="&#xb7;" horiz-adv-x="216" 
d="M63 324v36c0 25 20 45 45 45s45 -20 45 -45v-36c0 -25 -20 -45 -45 -45s-45 20 -45 45z" />
    <glyph glyph-name="cedilla" unicode="&#xb8;" horiz-adv-x="288" 
d="M63 -99v36c0 25 20 45 45 45c15 0 27 12 27 27v36c0 25 20 45 45 45s45 -20 45 -45v-36c0 -25 -20 -45 -45 -45c-15 0 -27 -12 -27 -27v-36c0 -25 -20 -45 -45 -45s-45 20 -45 45z" />
    <glyph glyph-name="onesuperior" unicode="&#xb9;" horiz-adv-x="252" 
d="M135 351v252c0 15 -12 27 -27 27h-36c-25 0 -45 20 -45 45s20 45 45 45h108c25 0 45 -20 45 -45v-324c0 -25 -20 -45 -45 -45s-45 20 -45 45z" />
    <glyph glyph-name="ordmasculine" unicode="&#xba;" horiz-adv-x="414" 
d="M27 423v180c0 25 20 45 45 45c15 0 27 12 27 27c0 25 20 45 45 45h126c25 0 45 -20 45 -45c0 -15 12 -27 27 -27c25 0 45 -20 45 -45v-180c0 -25 -20 -45 -45 -45c-15 0 -27 -12 -27 -27c0 -25 -20 -45 -45 -45h-126c-25 0 -45 20 -45 45c0 15 -12 27 -27 27
c-25 0 -45 20 -45 45zM144 396h126c15 0 27 12 27 27v180c0 15 -12 27 -27 27h-126c-15 0 -27 -12 -27 -27v-180c0 -15 12 -27 27 -27z" />
    <glyph glyph-name="guillemotright" unicode="&#xbb;" horiz-adv-x="720" 
d="M396 512h36c25 0 45 -20 45 -45c0 -15 12 -27 27 -27h36c25 0 45 -20 45 -45c0 -15 12 -27 27 -27h36c25 0 45 -20 45 -45s-20 -45 -45 -45h-36c-15 0 -27 -12 -27 -27c0 -25 -20 -45 -45 -45h-36c-15 0 -27 -12 -27 -27c0 -25 -20 -45 -45 -45h-36c-25 0 -45 20 -45 45
s20 45 45 45h36c15 0 27 12 27 27c0 25 20 45 45 45h36c15 0 27 12 27 27s-12 27 -27 27h-36c-25 0 -45 20 -45 45c0 15 -12 27 -27 27h-36c-25 0 -45 20 -45 45s20 45 45 45zM72 512h36c25 0 45 -20 45 -45c0 -15 12 -27 27 -27h36c25 0 45 -20 45 -45c0 -15 12 -27 27 -27
h36c25 0 45 -20 45 -45s-20 -45 -45 -45h-36c-15 0 -27 -12 -27 -27c0 -25 -20 -45 -45 -45h-36c-15 0 -27 -12 -27 -27c0 -25 -20 -45 -45 -45h-36c-25 0 -45 20 -45 45s20 45 45 45h36c15 0 27 12 27 27c0 25 20 45 45 45h36c15 0 27 12 27 27s-12 27 -27 27h-36
c-25 0 -45 20 -45 45c0 15 -12 27 -27 27h-36c-25 0 -45 20 -45 45s20 45 45 45z" />
    <glyph glyph-name="onequarter" unicode="&#xbc;" horiz-adv-x="918" 
d="M621 315v-90c0 -15 12 -27 27 -27h18c15 0 27 12 27 27v144c0 25 20 45 45 45s45 -20 45 -45v-144c0 -15 12 -27 27 -27h36c25 0 45 -20 45 -45s-20 -45 -45 -45h-36c-15 0 -27 -12 -27 -27v-36c0 -25 -20 -45 -45 -45s-45 20 -45 45v36c0 15 -12 27 -27 27h-90
c-25 0 -45 20 -45 45v162c0 25 20 45 45 45s45 -20 45 -45zM135 351v252c0 15 -12 27 -27 27h-36c-25 0 -45 20 -45 45s20 45 45 45h108c25 0 45 -20 45 -45v-324c0 -25 -20 -45 -45 -45s-45 20 -45 45zM495 675v-162c0 -25 -20 -45 -45 -45c-15 0 -27 -12 -27 -27v-162
c0 -25 -20 -45 -45 -45c-15 0 -27 -12 -27 -27v-162c0 -25 -20 -45 -45 -45s-45 20 -45 45v162c0 25 20 45 45 45c15 0 27 12 27 27v162c0 25 20 45 45 45c15 0 27 12 27 27v162c0 25 20 45 45 45s45 -20 45 -45z" />
    <glyph glyph-name="onehalf" unicode="&#xbd;" horiz-adv-x="846" 
d="M135 351v252c0 15 -12 27 -27 27h-36c-25 0 -45 20 -45 45s20 45 45 45h108c25 0 45 -20 45 -45v-324c0 -25 -20 -45 -45 -45s-45 20 -45 45zM495 45v90c0 25 20 45 45 45c15 0 27 12 27 27c0 25 20 45 45 45h90c15 0 27 12 27 27v18c0 15 -12 27 -27 27h-144
c-25 0 -45 20 -45 45s20 45 45 45h144c25 0 45 -20 45 -45c0 -15 12 -27 27 -27c25 0 45 -20 45 -45v-18c0 -25 -20 -45 -45 -45c-15 0 -27 -12 -27 -27c0 -25 -20 -45 -45 -45h-90c-15 0 -27 -12 -27 -27v-18c0 -15 12 -27 27 -27h162c25 0 45 -20 45 -45s-20 -45 -45 -45
h-234c-25 0 -45 20 -45 45zM495 675v-162c0 -25 -20 -45 -45 -45c-15 0 -27 -12 -27 -27v-162c0 -25 -20 -45 -45 -45c-15 0 -27 -12 -27 -27v-162c0 -25 -20 -45 -45 -45s-45 20 -45 45v162c0 25 20 45 45 45c15 0 27 12 27 27v162c0 25 20 45 45 45c15 0 27 12 27 27v162
c0 25 20 45 45 45s45 -20 45 -45z" />
    <glyph glyph-name="threequarters" unicode="&#xbe;" horiz-adv-x="972" 
d="M72 396h126c15 0 27 12 27 27v18c0 15 -12 27 -27 27h-90c-25 0 -45 20 -45 45s20 45 45 45h90c15 0 27 12 27 27v18c0 15 -12 27 -27 27h-126c-25 0 -45 20 -45 45s20 45 45 45h126c25 0 45 -20 45 -45c0 -15 12 -27 27 -27c25 0 45 -20 45 -45v-18
c0 -25 -20 -45 -45 -45c-15 0 -27 -12 -27 -27s12 -27 27 -27c25 0 45 -20 45 -45v-18c0 -25 -20 -45 -45 -45c-15 0 -27 -12 -27 -27c0 -25 -20 -45 -45 -45h-126c-25 0 -45 20 -45 45s20 45 45 45zM549 675v-162c0 -25 -20 -45 -45 -45c-15 0 -27 -12 -27 -27v-162
c0 -25 -20 -45 -45 -45c-15 0 -27 -12 -27 -27v-162c0 -25 -20 -45 -45 -45s-45 20 -45 45v162c0 25 20 45 45 45c15 0 27 12 27 27v162c0 25 20 45 45 45c15 0 27 12 27 27v162c0 25 20 45 45 45s45 -20 45 -45zM675 315v-90c0 -15 12 -27 27 -27h18c15 0 27 12 27 27v144
c0 25 20 45 45 45s45 -20 45 -45v-144c0 -15 12 -27 27 -27h36c25 0 45 -20 45 -45s-20 -45 -45 -45h-36c-15 0 -27 -12 -27 -27v-36c0 -25 -20 -45 -45 -45s-45 20 -45 45v36c0 15 -12 27 -27 27h-90c-25 0 -45 20 -45 45v162c0 25 20 45 45 45s45 -20 45 -45z" />
    <glyph glyph-name="questiondown" unicode="&#xbf;" horiz-adv-x="414" 
d="M297 261v-45c0 -25 -20 -45 -45 -45c-15 0 -27 -12 -27 -27c0 -25 -20 -45 -45 -45c-15 0 -27 -12 -27 -27v-99c0 -15 12 -27 27 -27h180c25 0 45 -20 45 -45s-20 -45 -45 -45h-180c-25 0 -45 20 -45 45c0 15 -12 27 -27 27c-25 0 -45 20 -45 45v99c0 25 20 45 45 45
c15 0 27 12 27 27c0 25 20 45 45 45c15 0 27 12 27 27v45c0 25 20 45 45 45s45 -20 45 -45zM297 459v-36c0 -25 -20 -45 -45 -45s-45 20 -45 45v36c0 25 20 45 45 45s45 -20 45 -45z" />
    <glyph glyph-name="Agrave" unicode="&#xc0;" horiz-adv-x="594" 
d="M54 45v261c0 25 20 45 45 45c15 0 27 12 27 27v153c0 25 20 45 45 45c15 0 27 12 27 27c0 25 20 45 45 45h108c25 0 45 -20 45 -45c0 -15 12 -27 27 -27c25 0 45 -20 45 -45v-153c0 -15 12 -27 27 -27c25 0 45 -20 45 -45v-261c0 -25 -20 -45 -45 -45s-45 20 -45 45v63
c0 15 -12 27 -27 27h-252c-15 0 -27 -12 -27 -27v-63c0 -25 -20 -45 -45 -45s-45 20 -45 45zM171 225h252c15 0 27 12 27 27v54c0 15 -12 27 -27 27c-25 0 -45 20 -45 45v153c0 14 -13 27 -27 27h-108c-14 0 -27 -13 -27 -27v-153c0 -25 -20 -45 -45 -45
c-15 0 -27 -12 -27 -27v-54c0 -15 12 -27 27 -27zM162 819c0 25 20 45 45 45h54c25 0 45 -20 45 -45c0 -15 12 -27 27 -27h54c25 0 45 -20 45 -45s-20 -45 -45 -45h-54c-25 0 -45 20 -45 45c0 15 -12 27 -27 27h-54c-25 0 -45 20 -45 45z" />
    <glyph glyph-name="Aacute" unicode="&#xc1;" horiz-adv-x="594" 
d="M54 45v261c0 25 20 45 45 45c15 0 27 12 27 27v153c0 25 20 45 45 45c15 0 27 12 27 27c0 25 20 45 45 45h108c25 0 45 -20 45 -45c0 -15 12 -27 27 -27c25 0 45 -20 45 -45v-153c0 -15 12 -27 27 -27c25 0 45 -20 45 -45v-261c0 -25 -20 -45 -45 -45s-45 20 -45 45v63
c0 15 -12 27 -27 27h-252c-15 0 -27 -12 -27 -27v-63c0 -25 -20 -45 -45 -45s-45 20 -45 45zM171 225h252c15 0 27 12 27 27v54c0 15 -12 27 -27 27c-25 0 -45 20 -45 45v153c0 14 -13 27 -27 27h-108c-14 0 -27 -13 -27 -27v-153c0 -25 -20 -45 -45 -45
c-15 0 -27 -12 -27 -27v-54c0 -15 12 -27 27 -27zM432 819c0 -25 -20 -45 -45 -45h-54c-15 0 -27 -12 -27 -27c0 -25 -20 -45 -45 -45h-54c-25 0 -45 20 -45 45s20 45 45 45h54c15 0 27 12 27 27c0 25 20 45 45 45h54c25 0 45 -20 45 -45z" />
    <glyph glyph-name="Acircumflex" unicode="&#xc2;" horiz-adv-x="594" 
d="M54 45v261c0 25 20 45 45 45c15 0 27 12 27 27v153c0 25 20 45 45 45c15 0 27 12 27 27c0 25 20 45 45 45h108c25 0 45 -20 45 -45c0 -15 12 -27 27 -27c25 0 45 -20 45 -45v-153c0 -15 12 -27 27 -27c25 0 45 -20 45 -45v-261c0 -25 -20 -45 -45 -45s-45 20 -45 45v63
c0 15 -12 27 -27 27h-252c-15 0 -27 -12 -27 -27v-63c0 -25 -20 -45 -45 -45s-45 20 -45 45zM171 225h252c15 0 27 12 27 27v54c0 15 -12 27 -27 27c-25 0 -45 20 -45 45v153c0 14 -13 27 -27 27h-108c-14 0 -27 -13 -27 -27v-153c0 -25 -20 -45 -45 -45
c-15 0 -27 -12 -27 -27v-54c0 -15 12 -27 27 -27zM315 774h-36c-15 0 -27 -12 -27 -27c0 -25 -20 -45 -45 -45s-45 20 -45 45s20 45 45 45c15 0 27 12 27 27c0 25 20 45 45 45h36c25 0 45 -20 45 -45c0 -15 12 -27 27 -27c25 0 45 -20 45 -45s-20 -45 -45 -45s-45 20 -45 45
c0 15 -12 27 -27 27z" />
    <glyph glyph-name="Atilde" unicode="&#xc3;" horiz-adv-x="594" 
d="M54 45v261c0 25 20 45 45 45c15 0 27 12 27 27v153c0 25 20 45 45 45c15 0 27 12 27 27c0 25 20 45 45 45h108c25 0 45 -20 45 -45c0 -15 12 -27 27 -27c25 0 45 -20 45 -45v-153c0 -15 12 -27 27 -27c25 0 45 -20 45 -45v-261c0 -25 -20 -45 -45 -45s-45 20 -45 45v63
c0 15 -12 27 -27 27h-252c-15 0 -27 -12 -27 -27v-63c0 -25 -20 -45 -45 -45s-45 20 -45 45zM171 225h252c15 0 27 12 27 27v54c0 15 -12 27 -27 27c-25 0 -45 20 -45 45v153c0 14 -13 27 -27 27h-108c-14 0 -27 -13 -27 -27v-153c0 -25 -20 -45 -45 -45
c-15 0 -27 -12 -27 -27v-54c0 -15 12 -27 27 -27zM261 774c-15 0 -27 -12 -27 -27c0 -25 -20 -45 -45 -45s-45 20 -45 45s20 45 45 45c15 0 27 12 27 27c0 25 20 45 45 45s45 -20 45 -45c0 -15 12 -27 27 -27s27 12 27 27c0 25 20 45 45 45s45 -20 45 -45s-20 -45 -45 -45
c-15 0 -27 -12 -27 -27c0 -25 -20 -45 -45 -45s-45 20 -45 45c0 15 -12 27 -27 27z" />
    <glyph glyph-name="Adieresis" unicode="&#xc4;" horiz-adv-x="594" 
d="M54 45v261c0 25 20 45 45 45c15 0 27 12 27 27v153c0 25 20 45 45 45c15 0 27 12 27 27c0 25 20 45 45 45h108c25 0 45 -20 45 -45c0 -15 12 -27 27 -27c25 0 45 -20 45 -45v-153c0 -15 12 -27 27 -27c25 0 45 -20 45 -45v-261c0 -25 -20 -45 -45 -45s-45 20 -45 45v63
c0 15 -12 27 -27 27h-252c-15 0 -27 -12 -27 -27v-63c0 -25 -20 -45 -45 -45s-45 20 -45 45zM171 225h252c15 0 27 12 27 27v54c0 15 -12 27 -27 27c-25 0 -45 20 -45 45v153c0 14 -13 27 -27 27h-108c-14 0 -27 -13 -27 -27v-153c0 -25 -20 -45 -45 -45
c-15 0 -27 -12 -27 -27v-54c0 -15 12 -27 27 -27zM162 783v36c0 25 20 45 45 45s45 -20 45 -45v-36c0 -25 -20 -45 -45 -45s-45 20 -45 45zM342 783v36c0 25 20 45 45 45s45 -20 45 -45v-36c0 -25 -20 -45 -45 -45s-45 20 -45 45z" />
    <glyph glyph-name="Aring" unicode="&#xc5;" horiz-adv-x="594" 
d="M54 45v261c0 25 20 45 45 45c15 0 27 12 27 27v153c0 25 20 45 45 45c15 0 27 12 27 27c0 25 20 45 45 45h108c25 0 45 -20 45 -45c0 -15 12 -27 27 -27c25 0 45 -20 45 -45v-153c0 -15 12 -27 27 -27c25 0 45 -20 45 -45v-261c0 -25 -20 -45 -45 -45s-45 20 -45 45v63
c0 15 -12 27 -27 27h-252c-15 0 -27 -12 -27 -27v-63c0 -25 -20 -45 -45 -45s-45 20 -45 45zM171 225h252c15 0 27 12 27 27v54c0 15 -12 27 -27 27c-25 0 -45 20 -45 45v153c0 14 -13 27 -27 27h-108c-14 0 -27 -13 -27 -27v-153c0 -25 -20 -45 -45 -45
c-15 0 -27 -12 -27 -27v-54c0 -15 12 -27 27 -27zM180 783c0 25 20 45 45 45c15 0 27 12 27 27c0 25 20 45 45 45s45 -20 45 -45c0 -15 12 -27 27 -27c25 0 45 -20 45 -45s-20 -45 -45 -45c-15 0 -27 -12 -27 -27c0 -25 -20 -45 -45 -45s-45 20 -45 45c0 15 -12 27 -27 27
c-25 0 -45 20 -45 45zM324 783c0 15 -12 27 -27 27s-27 -12 -27 -27s12 -27 27 -27s27 12 27 27z" />
    <glyph glyph-name="AE" unicode="&#xc6;" horiz-adv-x="792" 
d="M234 648h486c25 0 45 -20 45 -45s-20 -45 -45 -45h-216c-15 0 -27 -12 -27 -27v-135c0 -15 12 -27 27 -27h180c25 0 45 -20 45 -45s-20 -45 -45 -45h-180c-15 0 -27 -12 -27 -27v-135c0 -15 12 -27 27 -27h216c25 0 45 -20 45 -45s-20 -45 -45 -45h-288
c-25 0 -45 20 -45 45v63c0 15 -12 27 -27 27h-198c-15 0 -27 -12 -27 -27v-63c0 -25 -20 -45 -45 -45s-45 20 -45 45v261c0 25 20 45 45 45c15 0 27 12 27 27v153c0 25 20 45 45 45c15 0 27 12 27 27c0 25 20 45 45 45zM387 252v279c0 15 -12 27 -27 27h-126
c-14 0 -27 -13 -27 -27v-153c0 -25 -20 -45 -45 -45c-15 0 -27 -12 -27 -27v-54c0 -15 12 -27 27 -27h198c15 0 27 12 27 27z" />
    <glyph glyph-name="Ccedilla" unicode="&#xc7;" horiz-adv-x="468" 
d="M396 0h-36c-15 0 -27 -12 -27 -27v-36c0 -25 -20 -45 -45 -45s-45 20 -45 45v36c0 15 -12 27 -27 27h-36c-25 0 -45 20 -45 45c0 15 -12 27 -27 27c-25 0 -45 20 -45 45v414c0 25 20 45 45 45c15 0 27 12 27 27c0 25 20 45 45 45h216c25 0 45 -20 45 -45s-20 -45 -45 -45
h-216c-15 0 -27 -12 -27 -27v-414c0 -15 12 -27 27 -27h216c25 0 45 -20 45 -45s-20 -45 -45 -45z" />
    <glyph glyph-name="Egrave" unicode="&#xc8;" horiz-adv-x="468" 
d="M63 45v558c0 25 20 45 45 45h288c25 0 45 -20 45 -45s-20 -45 -45 -45h-216c-15 0 -27 -12 -27 -27v-135c0 -15 12 -27 27 -27h180c25 0 45 -20 45 -45s-20 -45 -45 -45h-180c-15 0 -27 -12 -27 -27v-135c0 -15 12 -27 27 -27h216c25 0 45 -20 45 -45s-20 -45 -45 -45
h-288c-25 0 -45 20 -45 45zM99 819c0 25 20 45 45 45h54c25 0 45 -20 45 -45c0 -15 12 -27 27 -27h54c25 0 45 -20 45 -45s-20 -45 -45 -45h-54c-25 0 -45 20 -45 45c0 15 -12 27 -27 27h-54c-25 0 -45 20 -45 45z" />
    <glyph glyph-name="Eacute" unicode="&#xc9;" horiz-adv-x="468" 
d="M63 45v558c0 25 20 45 45 45h288c25 0 45 -20 45 -45s-20 -45 -45 -45h-216c-15 0 -27 -12 -27 -27v-135c0 -15 12 -27 27 -27h180c25 0 45 -20 45 -45s-20 -45 -45 -45h-180c-15 0 -27 -12 -27 -27v-135c0 -15 12 -27 27 -27h216c25 0 45 -20 45 -45s-20 -45 -45 -45
h-288c-25 0 -45 20 -45 45zM369 819c0 -25 -20 -45 -45 -45h-54c-15 0 -27 -12 -27 -27c0 -25 -20 -45 -45 -45h-54c-25 0 -45 20 -45 45s20 45 45 45h54c15 0 27 12 27 27c0 25 20 45 45 45h54c25 0 45 -20 45 -45z" />
    <glyph glyph-name="Ecircumflex" unicode="&#xca;" horiz-adv-x="468" 
d="M63 45v558c0 25 20 45 45 45h288c25 0 45 -20 45 -45s-20 -45 -45 -45h-216c-15 0 -27 -12 -27 -27v-135c0 -15 12 -27 27 -27h180c25 0 45 -20 45 -45s-20 -45 -45 -45h-180c-15 0 -27 -12 -27 -27v-135c0 -15 12 -27 27 -27h216c25 0 45 -20 45 -45s-20 -45 -45 -45
h-288c-25 0 -45 20 -45 45zM252 774h-36c-15 0 -27 -12 -27 -27c0 -25 -20 -45 -45 -45s-45 20 -45 45s20 45 45 45c15 0 27 12 27 27c0 25 20 45 45 45h36c25 0 45 -20 45 -45c0 -15 12 -27 27 -27c25 0 45 -20 45 -45s-20 -45 -45 -45s-45 20 -45 45c0 15 -12 27 -27 27z
" />
    <glyph glyph-name="Edieresis" unicode="&#xcb;" horiz-adv-x="468" 
d="M63 45v558c0 25 20 45 45 45h288c25 0 45 -20 45 -45s-20 -45 -45 -45h-216c-15 0 -27 -12 -27 -27v-135c0 -15 12 -27 27 -27h180c25 0 45 -20 45 -45s-20 -45 -45 -45h-180c-15 0 -27 -12 -27 -27v-135c0 -15 12 -27 27 -27h216c25 0 45 -20 45 -45s-20 -45 -45 -45
h-288c-25 0 -45 20 -45 45zM99 783v36c0 25 20 45 45 45s45 -20 45 -45v-36c0 -25 -20 -45 -45 -45s-45 20 -45 45zM279 783v36c0 25 20 45 45 45s45 -20 45 -45v-36c0 -25 -20 -45 -45 -45s-45 20 -45 45z" />
    <glyph glyph-name="Igrave" unicode="&#xcc;" horiz-adv-x="216" 
d="M63 45v558c0 25 20 45 45 45s45 -20 45 -45v-558c0 -25 -20 -45 -45 -45s-45 20 -45 45zM-27 819c0 25 20 45 45 45h54c25 0 45 -20 45 -45c0 -15 12 -27 27 -27h54c25 0 45 -20 45 -45s-20 -45 -45 -45h-54c-25 0 -45 20 -45 45c0 15 -12 27 -27 27h-54
c-25 0 -45 20 -45 45z" />
    <glyph glyph-name="Iacute" unicode="&#xcd;" horiz-adv-x="216" 
d="M63 45v558c0 25 20 45 45 45s45 -20 45 -45v-558c0 -25 -20 -45 -45 -45s-45 20 -45 45zM243 819c0 -25 -20 -45 -45 -45h-54c-15 0 -27 -12 -27 -27c0 -25 -20 -45 -45 -45h-54c-25 0 -45 20 -45 45s20 45 45 45h54c15 0 27 12 27 27c0 25 20 45 45 45h54
c25 0 45 -20 45 -45z" />
    <glyph glyph-name="Icircumflex" unicode="&#xce;" horiz-adv-x="216" 
d="M63 45v558c0 25 20 45 45 45s45 -20 45 -45v-558c0 -25 -20 -45 -45 -45s-45 20 -45 45zM126 774h-36c-15 0 -27 -12 -27 -27c0 -25 -20 -45 -45 -45s-45 20 -45 45s20 45 45 45c15 0 27 12 27 27c0 25 20 45 45 45h36c25 0 45 -20 45 -45c0 -15 12 -27 27 -27
c25 0 45 -20 45 -45s-20 -45 -45 -45s-45 20 -45 45c0 15 -12 27 -27 27z" />
    <glyph glyph-name="Idieresis" unicode="&#xcf;" horiz-adv-x="216" 
d="M63 45v558c0 25 20 45 45 45s45 -20 45 -45v-558c0 -25 -20 -45 -45 -45s-45 20 -45 45zM-27 783v36c0 25 20 45 45 45s45 -20 45 -45v-36c0 -25 -20 -45 -45 -45s-45 20 -45 45zM153 783v36c0 25 20 45 45 45s45 -20 45 -45v-36c0 -25 -20 -45 -45 -45s-45 20 -45 45z
" />
    <glyph glyph-name="Eth" unicode="&#xd0;" horiz-adv-x="648" 
d="M99 45v207c0 15 -12 27 -27 27h-36c-25 0 -45 20 -45 45s20 45 45 45h36c15 0 27 12 27 27v207c0 25 20 45 45 45h324c25 0 45 -20 45 -45c0 -15 12 -27 27 -27c25 0 45 -20 45 -45v-414c0 -25 -20 -45 -45 -45c-15 0 -27 -12 -27 -27c0 -25 -20 -45 -45 -45h-324
c-25 0 -45 20 -45 45zM189 252v-135c0 -15 12 -27 27 -27h252c15 0 27 12 27 27v414c0 15 -12 27 -27 27h-252c-15 0 -27 -12 -27 -27v-135c0 -15 12 -27 27 -27h36c25 0 45 -20 45 -45s-20 -45 -45 -45h-36c-15 0 -27 -12 -27 -27z" />
    <glyph glyph-name="Ntilde" unicode="&#xd1;" horiz-adv-x="594" 
d="M531 531v-486c0 -25 -20 -45 -45 -45s-45 20 -45 45v486c0 15 -12 27 -27 27h-234c-15 0 -27 -12 -27 -27v-486c0 -25 -20 -45 -45 -45s-45 20 -45 45v486c0 25 20 45 45 45c15 0 27 12 27 27c0 25 20 45 45 45h234c25 0 45 -20 45 -45c0 -15 12 -27 27 -27
c25 0 45 -20 45 -45zM261 774c-15 0 -27 -12 -27 -27c0 -25 -20 -45 -45 -45s-45 20 -45 45s20 45 45 45c15 0 27 12 27 27c0 25 20 45 45 45s45 -20 45 -45c0 -15 12 -27 27 -27s27 12 27 27c0 25 20 45 45 45s45 -20 45 -45s-20 -45 -45 -45c-15 0 -27 -12 -27 -27
c0 -25 -20 -45 -45 -45s-45 20 -45 45c0 15 -12 27 -27 27z" />
    <glyph glyph-name="Ograve" unicode="&#xd2;" horiz-adv-x="648" 
d="M63 117v414c0 25 20 45 45 45c15 0 27 12 27 27c0 25 20 45 45 45h288c25 0 45 -20 45 -45c0 -15 12 -27 27 -27c25 0 45 -20 45 -45v-414c0 -25 -20 -45 -45 -45c-15 0 -27 -12 -27 -27c0 -25 -20 -45 -45 -45h-288c-25 0 -45 20 -45 45c0 15 -12 27 -27 27
c-25 0 -45 20 -45 45zM180 90h288c15 0 27 12 27 27v414c0 15 -12 27 -27 27h-288c-15 0 -27 -12 -27 -27v-414c0 -15 12 -27 27 -27zM189 819c0 25 20 45 45 45h54c25 0 45 -20 45 -45c0 -15 12 -27 27 -27h54c25 0 45 -20 45 -45s-20 -45 -45 -45h-54c-25 0 -45 20 -45 45
c0 15 -12 27 -27 27h-54c-25 0 -45 20 -45 45z" />
    <glyph glyph-name="Oacute" unicode="&#xd3;" horiz-adv-x="648" 
d="M63 117v414c0 25 20 45 45 45c15 0 27 12 27 27c0 25 20 45 45 45h288c25 0 45 -20 45 -45c0 -15 12 -27 27 -27c25 0 45 -20 45 -45v-414c0 -25 -20 -45 -45 -45c-15 0 -27 -12 -27 -27c0 -25 -20 -45 -45 -45h-288c-25 0 -45 20 -45 45c0 15 -12 27 -27 27
c-25 0 -45 20 -45 45zM180 90h288c15 0 27 12 27 27v414c0 15 -12 27 -27 27h-288c-15 0 -27 -12 -27 -27v-414c0 -15 12 -27 27 -27zM459 819c0 -25 -20 -45 -45 -45h-54c-15 0 -27 -12 -27 -27c0 -25 -20 -45 -45 -45h-54c-25 0 -45 20 -45 45s20 45 45 45h54
c15 0 27 12 27 27c0 25 20 45 45 45h54c25 0 45 -20 45 -45z" />
    <glyph glyph-name="Ocircumflex" unicode="&#xd4;" horiz-adv-x="648" 
d="M63 117v414c0 25 20 45 45 45c15 0 27 12 27 27c0 25 20 45 45 45h288c25 0 45 -20 45 -45c0 -15 12 -27 27 -27c25 0 45 -20 45 -45v-414c0 -25 -20 -45 -45 -45c-15 0 -27 -12 -27 -27c0 -25 -20 -45 -45 -45h-288c-25 0 -45 20 -45 45c0 15 -12 27 -27 27
c-25 0 -45 20 -45 45zM180 90h288c15 0 27 12 27 27v414c0 15 -12 27 -27 27h-288c-15 0 -27 -12 -27 -27v-414c0 -15 12 -27 27 -27zM342 774h-36c-15 0 -27 -12 -27 -27c0 -25 -20 -45 -45 -45s-45 20 -45 45s20 45 45 45c15 0 27 12 27 27c0 25 20 45 45 45h36
c25 0 45 -20 45 -45c0 -15 12 -27 27 -27c25 0 45 -20 45 -45s-20 -45 -45 -45s-45 20 -45 45c0 15 -12 27 -27 27z" />
    <glyph glyph-name="Otilde" unicode="&#xd5;" horiz-adv-x="648" 
d="M63 117v414c0 25 20 45 45 45c15 0 27 12 27 27c0 25 20 45 45 45h288c25 0 45 -20 45 -45c0 -15 12 -27 27 -27c25 0 45 -20 45 -45v-414c0 -25 -20 -45 -45 -45c-15 0 -27 -12 -27 -27c0 -25 -20 -45 -45 -45h-288c-25 0 -45 20 -45 45c0 15 -12 27 -27 27
c-25 0 -45 20 -45 45zM180 90h288c15 0 27 12 27 27v414c0 15 -12 27 -27 27h-288c-15 0 -27 -12 -27 -27v-414c0 -15 12 -27 27 -27zM288 774c-15 0 -27 -12 -27 -27c0 -25 -20 -45 -45 -45s-45 20 -45 45s20 45 45 45c15 0 27 12 27 27c0 25 20 45 45 45s45 -20 45 -45
c0 -15 12 -27 27 -27s27 12 27 27c0 25 20 45 45 45s45 -20 45 -45s-20 -45 -45 -45c-15 0 -27 -12 -27 -27c0 -25 -20 -45 -45 -45s-45 20 -45 45c0 15 -12 27 -27 27z" />
    <glyph glyph-name="Odieresis" unicode="&#xd6;" horiz-adv-x="648" 
d="M63 117v414c0 25 20 45 45 45c15 0 27 12 27 27c0 25 20 45 45 45h288c25 0 45 -20 45 -45c0 -15 12 -27 27 -27c25 0 45 -20 45 -45v-414c0 -25 -20 -45 -45 -45c-15 0 -27 -12 -27 -27c0 -25 -20 -45 -45 -45h-288c-25 0 -45 20 -45 45c0 15 -12 27 -27 27
c-25 0 -45 20 -45 45zM180 90h288c15 0 27 12 27 27v414c0 15 -12 27 -27 27h-288c-15 0 -27 -12 -27 -27v-414c0 -15 12 -27 27 -27zM189 783v36c0 25 20 45 45 45s45 -20 45 -45v-36c0 -25 -20 -45 -45 -45s-45 20 -45 45zM369 783v36c0 25 20 45 45 45s45 -20 45 -45v-36
c0 -25 -20 -45 -45 -45s-45 20 -45 45z" />
    <glyph glyph-name="multiply" unicode="&#xd7;" horiz-adv-x="504" 
d="M207 324c0 15 -12 27 -27 27c-25 0 -45 20 -45 45c0 15 -12 27 -27 27c-25 0 -45 20 -45 45s20 45 45 45s45 -20 45 -45c0 -15 12 -27 27 -27c25 0 45 -20 45 -45c0 -15 12 -27 27 -27s27 12 27 27c0 25 20 45 45 45c15 0 27 12 27 27c0 25 20 45 45 45s45 -20 45 -45
s-20 -45 -45 -45c-15 0 -27 -12 -27 -27c0 -25 -20 -45 -45 -45c-15 0 -27 -12 -27 -27s12 -27 27 -27c25 0 45 -20 45 -45c0 -15 12 -27 27 -27c25 0 45 -20 45 -45s-20 -45 -45 -45s-45 20 -45 45c0 15 -12 27 -27 27c-25 0 -45 20 -45 45c0 15 -12 27 -27 27
s-27 -12 -27 -27c0 -25 -20 -45 -45 -45c-15 0 -27 -12 -27 -27c0 -25 -20 -45 -45 -45s-45 20 -45 45s20 45 45 45c15 0 27 12 27 27c0 25 20 45 45 45c15 0 27 12 27 27z" />
    <glyph glyph-name="Oslash" unicode="&#xd8;" horiz-adv-x="648" 
d="M468 0h-216c-15 0 -27 -12 -27 -27c0 -25 -20 -45 -45 -45s-45 20 -45 45v72c0 15 -12 27 -27 27c-25 0 -45 20 -45 45v414c0 25 20 45 45 45c15 0 27 12 27 27c0 25 20 45 45 45h216c15 0 27 12 27 27c0 25 20 45 45 45s45 -20 45 -45v-72c0 -15 12 -27 27 -27
c25 0 45 -20 45 -45v-414c0 -25 -20 -45 -45 -45c-15 0 -27 -12 -27 -27c0 -25 -20 -45 -45 -45zM180 90c15 0 27 12 27 27v81c0 25 20 45 45 45c15 0 27 12 27 27v108c0 25 20 45 45 45c15 0 27 12 27 27v81c0 15 -12 27 -27 27h-144c-15 0 -27 -12 -27 -27v-414
c0 -15 12 -27 27 -27zM495 117v414c0 15 -12 27 -27 27s-27 -12 -27 -27v-81c0 -25 -20 -45 -45 -45c-15 0 -27 -12 -27 -27v-108c0 -25 -20 -45 -45 -45c-15 0 -27 -12 -27 -27v-81c0 -15 12 -27 27 -27h144c15 0 27 12 27 27z" />
    <glyph glyph-name="Ugrave" unicode="&#xd9;" horiz-adv-x="594" 
d="M63 117v486c0 25 20 45 45 45s45 -20 45 -45v-486c0 -15 12 -27 27 -27h234c15 0 27 12 27 27v486c0 25 20 45 45 45s45 -20 45 -45v-486c0 -25 -20 -45 -45 -45c-15 0 -27 -12 -27 -27c0 -25 -20 -45 -45 -45h-234c-25 0 -45 20 -45 45c0 15 -12 27 -27 27
c-25 0 -45 20 -45 45zM162 819c0 25 20 45 45 45h54c25 0 45 -20 45 -45c0 -15 12 -27 27 -27h54c25 0 45 -20 45 -45s-20 -45 -45 -45h-54c-25 0 -45 20 -45 45c0 15 -12 27 -27 27h-54c-25 0 -45 20 -45 45z" />
    <glyph glyph-name="Uacute" unicode="&#xda;" horiz-adv-x="594" 
d="M63 117v486c0 25 20 45 45 45s45 -20 45 -45v-486c0 -15 12 -27 27 -27h234c15 0 27 12 27 27v486c0 25 20 45 45 45s45 -20 45 -45v-486c0 -25 -20 -45 -45 -45c-15 0 -27 -12 -27 -27c0 -25 -20 -45 -45 -45h-234c-25 0 -45 20 -45 45c0 15 -12 27 -27 27
c-25 0 -45 20 -45 45zM432 819c0 -25 -20 -45 -45 -45h-54c-15 0 -27 -12 -27 -27c0 -25 -20 -45 -45 -45h-54c-25 0 -45 20 -45 45s20 45 45 45h54c15 0 27 12 27 27c0 25 20 45 45 45h54c25 0 45 -20 45 -45z" />
    <glyph glyph-name="Ucircumflex" unicode="&#xdb;" horiz-adv-x="594" 
d="M63 117v486c0 25 20 45 45 45s45 -20 45 -45v-486c0 -15 12 -27 27 -27h234c15 0 27 12 27 27v486c0 25 20 45 45 45s45 -20 45 -45v-486c0 -25 -20 -45 -45 -45c-15 0 -27 -12 -27 -27c0 -25 -20 -45 -45 -45h-234c-25 0 -45 20 -45 45c0 15 -12 27 -27 27
c-25 0 -45 20 -45 45zM315 774h-36c-15 0 -27 -12 -27 -27c0 -25 -20 -45 -45 -45s-45 20 -45 45s20 45 45 45c15 0 27 12 27 27c0 25 20 45 45 45h36c25 0 45 -20 45 -45c0 -15 12 -27 27 -27c25 0 45 -20 45 -45s-20 -45 -45 -45s-45 20 -45 45c0 15 -12 27 -27 27z" />
    <glyph glyph-name="Udieresis" unicode="&#xdc;" horiz-adv-x="594" 
d="M63 117v486c0 25 20 45 45 45s45 -20 45 -45v-486c0 -15 12 -27 27 -27h234c15 0 27 12 27 27v486c0 25 20 45 45 45s45 -20 45 -45v-486c0 -25 -20 -45 -45 -45c-15 0 -27 -12 -27 -27c0 -25 -20 -45 -45 -45h-234c-25 0 -45 20 -45 45c0 15 -12 27 -27 27
c-25 0 -45 20 -45 45zM162 783v36c0 25 20 45 45 45s45 -20 45 -45v-36c0 -25 -20 -45 -45 -45s-45 20 -45 45zM342 783v36c0 25 20 45 45 45s45 -20 45 -45v-36c0 -25 -20 -45 -45 -45s-45 20 -45 45z" />
    <glyph glyph-name="Yacute" unicode="&#xdd;" horiz-adv-x="558" 
d="M234 45v207c0 15 -12 27 -27 27h-36c-25 0 -45 20 -45 45c0 15 -12 27 -27 27c-25 0 -45 20 -45 45v207c0 25 20 45 45 45s45 -20 45 -45v-207c0 -15 12 -27 27 -27h216c15 0 27 12 27 27v207c0 25 20 45 45 45s45 -20 45 -45v-207c0 -25 -20 -45 -45 -45
c-15 0 -27 -12 -27 -27c0 -25 -20 -45 -45 -45h-36c-15 0 -27 -12 -27 -27v-207c0 -25 -20 -45 -45 -45s-45 20 -45 45zM414 819c0 -25 -20 -45 -45 -45h-54c-15 0 -27 -12 -27 -27c0 -25 -20 -45 -45 -45h-54c-25 0 -45 20 -45 45s20 45 45 45h54c15 0 27 12 27 27
c0 25 20 45 45 45h54c25 0 45 -20 45 -45z" />
    <glyph glyph-name="Thorn" unicode="&#xde;" horiz-adv-x="594" 
d="M63 45v558c0 25 20 45 45 45s45 -20 45 -45v-72c0 -15 12 -27 27 -27h252c25 0 45 -20 45 -45c0 -15 12 -27 27 -27c25 0 45 -20 45 -45v-126c0 -25 -20 -45 -45 -45c-15 0 -27 -12 -27 -27c0 -25 -20 -45 -45 -45h-252c-15 0 -27 -12 -27 -27v-72c0 -25 -20 -45 -45 -45
s-45 20 -45 45zM180 234h252c15 0 27 12 27 27v126c0 15 -12 27 -27 27h-252c-15 0 -27 -12 -27 -27v-126c0 -15 12 -27 27 -27z" />
    <glyph glyph-name="germandbls" unicode="&#xdf;" horiz-adv-x="522" 
d="M63 45v486c0 25 20 45 45 45c15 0 27 12 27 27c0 25 20 45 45 45h162c25 0 45 -20 45 -45c0 -15 12 -27 27 -27c25 0 45 -20 45 -45v-135c0 -25 -20 -45 -45 -45c-15 0 -27 -12 -27 -27s12 -27 27 -27c25 0 45 -20 45 -45v-135c0 -25 -20 -45 -45 -45
c-15 0 -27 -12 -27 -27c0 -25 -20 -45 -45 -45h-72c-25 0 -45 20 -45 45s20 45 45 45h72c15 0 27 12 27 27v135c0 15 -12 27 -27 27h-72c-25 0 -45 20 -45 45s20 45 45 45h72c15 0 27 12 27 27v135c0 15 -12 27 -27 27h-162c-15 0 -27 -12 -27 -27v-486
c0 -25 -20 -45 -45 -45s-45 20 -45 45z" />
    <glyph glyph-name="agrave" unicode="&#xe0;" horiz-adv-x="522" 
d="M45 117v63c0 25 20 45 45 45c15 0 27 12 27 27c0 25 20 45 45 45h180c15 0 27 12 27 27v63c0 15 -12 27 -27 27h-216c-25 0 -45 20 -45 45s20 45 45 45h216c25 0 45 -20 45 -45c0 -15 12 -27 27 -27c25 0 45 -20 45 -45v-342c0 -25 -20 -45 -45 -45h-252
c-25 0 -45 20 -45 45c0 15 -12 27 -27 27c-25 0 -45 20 -45 45zM162 90h180c15 0 27 12 27 27v63c0 15 -12 27 -27 27h-180c-15 0 -27 -12 -27 -27v-63c0 -15 12 -27 27 -27zM126 675c0 25 20 45 45 45h54c25 0 45 -20 45 -45c0 -15 12 -27 27 -27h54c25 0 45 -20 45 -45
s-20 -45 -45 -45h-54c-25 0 -45 20 -45 45c0 15 -12 27 -27 27h-54c-25 0 -45 20 -45 45z" />
    <glyph glyph-name="aacute" unicode="&#xe1;" horiz-adv-x="522" 
d="M45 117v63c0 25 20 45 45 45c15 0 27 12 27 27c0 25 20 45 45 45h180c15 0 27 12 27 27v63c0 15 -12 27 -27 27h-216c-25 0 -45 20 -45 45s20 45 45 45h216c25 0 45 -20 45 -45c0 -15 12 -27 27 -27c25 0 45 -20 45 -45v-342c0 -25 -20 -45 -45 -45h-252
c-25 0 -45 20 -45 45c0 15 -12 27 -27 27c-25 0 -45 20 -45 45zM162 90h180c15 0 27 12 27 27v63c0 15 -12 27 -27 27h-180c-15 0 -27 -12 -27 -27v-63c0 -15 12 -27 27 -27zM396 675c0 -25 -20 -45 -45 -45h-54c-15 0 -27 -12 -27 -27c0 -25 -20 -45 -45 -45h-54
c-25 0 -45 20 -45 45s20 45 45 45h54c15 0 27 12 27 27c0 25 20 45 45 45h54c25 0 45 -20 45 -45z" />
    <glyph glyph-name="acircumflex" unicode="&#xe2;" horiz-adv-x="522" 
d="M45 117v63c0 25 20 45 45 45c15 0 27 12 27 27c0 25 20 45 45 45h180c15 0 27 12 27 27v63c0 15 -12 27 -27 27h-216c-25 0 -45 20 -45 45s20 45 45 45h216c25 0 45 -20 45 -45c0 -15 12 -27 27 -27c25 0 45 -20 45 -45v-342c0 -25 -20 -45 -45 -45h-252
c-25 0 -45 20 -45 45c0 15 -12 27 -27 27c-25 0 -45 20 -45 45zM162 90h180c15 0 27 12 27 27v63c0 15 -12 27 -27 27h-180c-15 0 -27 -12 -27 -27v-63c0 -15 12 -27 27 -27zM279 630h-36c-15 0 -27 -12 -27 -27c0 -25 -20 -45 -45 -45s-45 20 -45 45s20 45 45 45
c15 0 27 12 27 27c0 25 20 45 45 45h36c25 0 45 -20 45 -45c0 -15 12 -27 27 -27c25 0 45 -20 45 -45s-20 -45 -45 -45s-45 20 -45 45c0 15 -12 27 -27 27z" />
    <glyph glyph-name="atilde" unicode="&#xe3;" horiz-adv-x="522" 
d="M45 117v63c0 25 20 45 45 45c15 0 27 12 27 27c0 25 20 45 45 45h180c15 0 27 12 27 27v63c0 15 -12 27 -27 27h-216c-25 0 -45 20 -45 45s20 45 45 45h216c25 0 45 -20 45 -45c0 -15 12 -27 27 -27c25 0 45 -20 45 -45v-342c0 -25 -20 -45 -45 -45h-252
c-25 0 -45 20 -45 45c0 15 -12 27 -27 27c-25 0 -45 20 -45 45zM162 90h180c15 0 27 12 27 27v63c0 15 -12 27 -27 27h-180c-15 0 -27 -12 -27 -27v-63c0 -15 12 -27 27 -27zM225 630c-15 0 -27 -12 -27 -27c0 -25 -20 -45 -45 -45s-45 20 -45 45s20 45 45 45
c15 0 27 12 27 27c0 25 20 45 45 45s45 -20 45 -45c0 -15 12 -27 27 -27s27 12 27 27c0 25 20 45 45 45s45 -20 45 -45s-20 -45 -45 -45c-15 0 -27 -12 -27 -27c0 -25 -20 -45 -45 -45s-45 20 -45 45c0 15 -12 27 -27 27z" />
    <glyph glyph-name="adieresis" unicode="&#xe4;" horiz-adv-x="522" 
d="M45 117v63c0 25 20 45 45 45c15 0 27 12 27 27c0 25 20 45 45 45h180c15 0 27 12 27 27v63c0 15 -12 27 -27 27h-216c-25 0 -45 20 -45 45s20 45 45 45h216c25 0 45 -20 45 -45c0 -15 12 -27 27 -27c25 0 45 -20 45 -45v-342c0 -25 -20 -45 -45 -45h-252
c-25 0 -45 20 -45 45c0 15 -12 27 -27 27c-25 0 -45 20 -45 45zM162 90h180c15 0 27 12 27 27v63c0 15 -12 27 -27 27h-180c-15 0 -27 -12 -27 -27v-63c0 -15 12 -27 27 -27zM117 639v36c0 25 20 45 45 45s45 -20 45 -45v-36c0 -25 -20 -45 -45 -45s-45 20 -45 45zM297 639
v36c0 25 20 45 45 45s45 -20 45 -45v-36c0 -25 -20 -45 -45 -45s-45 20 -45 45z" />
    <glyph glyph-name="aring" unicode="&#xe5;" horiz-adv-x="522" 
d="M45 117v63c0 25 20 45 45 45c15 0 27 12 27 27c0 25 20 45 45 45h180c15 0 27 12 27 27v63c0 15 -12 27 -27 27h-216c-25 0 -45 20 -45 45s20 45 45 45h216c25 0 45 -20 45 -45c0 -15 12 -27 27 -27c25 0 45 -20 45 -45v-342c0 -25 -20 -45 -45 -45h-252
c-25 0 -45 20 -45 45c0 15 -12 27 -27 27c-25 0 -45 20 -45 45zM162 90h180c15 0 27 12 27 27v63c0 15 -12 27 -27 27h-180c-15 0 -27 -12 -27 -27v-63c0 -15 12 -27 27 -27zM144 639c0 25 20 45 45 45c15 0 27 12 27 27c0 25 20 45 45 45s45 -20 45 -45
c0 -15 12 -27 27 -27c25 0 45 -20 45 -45s-20 -45 -45 -45c-15 0 -27 -12 -27 -27c0 -25 -20 -45 -45 -45s-45 20 -45 45c0 15 -12 27 -27 27c-25 0 -45 20 -45 45zM288 639c0 15 -12 27 -27 27s-27 -12 -27 -27s12 -27 27 -27s27 12 27 27z" />
    <glyph glyph-name="ae" unicode="&#xe6;" horiz-adv-x="828" 
d="M414 432c15 0 27 12 27 27c0 25 20 45 45 45h180c25 0 45 -20 45 -45c0 -15 12 -27 27 -27c25 0 45 -20 45 -45v-63c0 -25 -20 -45 -45 -45c-15 0 -27 -12 -27 -27c0 -25 -20 -45 -45 -45h-180c-15 0 -27 -12 -27 -27v-63c0 -15 12 -27 27 -27h216c25 0 45 -20 45 -45
s-20 -45 -45 -45h-216c-25 0 -45 20 -45 45c0 15 -12 27 -27 27s-27 -12 -27 -27c0 -25 -20 -45 -45 -45h-180c-25 0 -45 20 -45 45c0 15 -12 27 -27 27c-25 0 -45 20 -45 45v63c0 25 20 45 45 45c15 0 27 12 27 27c0 25 20 45 45 45h180c15 0 27 12 27 27v63
c0 15 -12 27 -27 27h-216c-25 0 -45 20 -45 45s20 45 45 45h216c25 0 45 -20 45 -45c0 -15 12 -27 27 -27zM162 90h180c15 0 27 12 27 27v63c0 15 -12 27 -27 27h-180c-15 0 -27 -12 -27 -27v-63c0 -15 12 -27 27 -27zM486 297h180c15 0 27 12 27 27v63c0 15 -12 27 -27 27
h-180c-15 0 -27 -12 -27 -27v-64c0 -14 12 -26 27 -26z" />
    <glyph glyph-name="ccedilla" unicode="&#xe7;" horiz-adv-x="432" 
d="M360 0h-18c-15 0 -27 -12 -27 -27v-36c0 -25 -20 -45 -45 -45s-45 20 -45 45v36c0 15 -12 27 -27 27h-18c-25 0 -45 20 -45 45c0 15 -12 27 -27 27c-25 0 -45 20 -45 45v270c0 25 20 45 45 45c15 0 27 12 27 27c0 25 20 45 45 45h180c25 0 45 -20 45 -45s-20 -45 -45 -45
h-180c-15 0 -27 -12 -27 -27v-270c0 -15 12 -27 27 -27h180c25 0 45 -20 45 -45s-20 -45 -45 -45z" />
    <glyph glyph-name="egrave" unicode="&#xe8;" horiz-adv-x="522" 
d="M180 297h180c15 0 27 12 27 27v63c0 15 -12 27 -27 27h-180c-15 0 -27 -12 -27 -27v-64c0 -14 12 -26 27 -26zM63 117v270c0 25 20 45 45 45c15 0 27 12 27 27c0 25 20 45 45 45h180c25 0 45 -20 45 -45c0 -15 12 -27 27 -27c25 0 45 -20 45 -45v-63
c0 -25 -20 -45 -45 -45c-15 0 -27 -12 -27 -27c0 -25 -20 -45 -45 -45h-180c-15 0 -27 -12 -27 -27v-63c0 -15 12 -27 27 -27h216c25 0 45 -20 45 -45s-20 -45 -45 -45h-216c-25 0 -45 20 -45 45c0 15 -12 27 -27 27c-25 0 -45 20 -45 45zM126 675c0 25 20 45 45 45h54
c25 0 45 -20 45 -45c0 -15 12 -27 27 -27h54c25 0 45 -20 45 -45s-20 -45 -45 -45h-54c-25 0 -45 20 -45 45c0 15 -12 27 -27 27h-54c-25 0 -45 20 -45 45z" />
    <glyph glyph-name="eacute" unicode="&#xe9;" horiz-adv-x="522" 
d="M180 297h180c15 0 27 12 27 27v63c0 15 -12 27 -27 27h-180c-15 0 -27 -12 -27 -27v-64c0 -14 12 -26 27 -26zM63 117v270c0 25 20 45 45 45c15 0 27 12 27 27c0 25 20 45 45 45h180c25 0 45 -20 45 -45c0 -15 12 -27 27 -27c25 0 45 -20 45 -45v-63
c0 -25 -20 -45 -45 -45c-15 0 -27 -12 -27 -27c0 -25 -20 -45 -45 -45h-180c-15 0 -27 -12 -27 -27v-63c0 -15 12 -27 27 -27h216c25 0 45 -20 45 -45s-20 -45 -45 -45h-216c-25 0 -45 20 -45 45c0 15 -12 27 -27 27c-25 0 -45 20 -45 45zM396 675c0 -25 -20 -45 -45 -45
h-54c-15 0 -27 -12 -27 -27c0 -25 -20 -45 -45 -45h-54c-25 0 -45 20 -45 45s20 45 45 45h54c15 0 27 12 27 27c0 25 20 45 45 45h54c25 0 45 -20 45 -45z" />
    <glyph glyph-name="ecircumflex" unicode="&#xea;" horiz-adv-x="522" 
d="M180 297h180c15 0 27 12 27 27v63c0 15 -12 27 -27 27h-180c-15 0 -27 -12 -27 -27v-64c0 -14 12 -26 27 -26zM63 117v270c0 25 20 45 45 45c15 0 27 12 27 27c0 25 20 45 45 45h180c25 0 45 -20 45 -45c0 -15 12 -27 27 -27c25 0 45 -20 45 -45v-63
c0 -25 -20 -45 -45 -45c-15 0 -27 -12 -27 -27c0 -25 -20 -45 -45 -45h-180c-15 0 -27 -12 -27 -27v-63c0 -15 12 -27 27 -27h216c25 0 45 -20 45 -45s-20 -45 -45 -45h-216c-25 0 -45 20 -45 45c0 15 -12 27 -27 27c-25 0 -45 20 -45 45zM279 630h-36
c-15 0 -27 -12 -27 -27c0 -25 -20 -45 -45 -45s-45 20 -45 45s20 45 45 45c15 0 27 12 27 27c0 25 20 45 45 45h36c25 0 45 -20 45 -45c0 -15 12 -27 27 -27c25 0 45 -20 45 -45s-20 -45 -45 -45s-45 20 -45 45c0 15 -12 27 -27 27z" />
    <glyph glyph-name="edieresis" unicode="&#xeb;" horiz-adv-x="522" 
d="M180 297h180c15 0 27 12 27 27v63c0 15 -12 27 -27 27h-180c-15 0 -27 -12 -27 -27v-64c0 -14 12 -26 27 -26zM63 117v270c0 25 20 45 45 45c15 0 27 12 27 27c0 25 20 45 45 45h180c25 0 45 -20 45 -45c0 -15 12 -27 27 -27c25 0 45 -20 45 -45v-63
c0 -25 -20 -45 -45 -45c-15 0 -27 -12 -27 -27c0 -25 -20 -45 -45 -45h-180c-15 0 -27 -12 -27 -27v-63c0 -15 12 -27 27 -27h216c25 0 45 -20 45 -45s-20 -45 -45 -45h-216c-25 0 -45 20 -45 45c0 15 -12 27 -27 27c-25 0 -45 20 -45 45zM126 639v36c0 25 20 45 45 45
s45 -20 45 -45v-36c0 -25 -20 -45 -45 -45s-45 20 -45 45zM306 639v36c0 25 20 45 45 45s45 -20 45 -45v-36c0 -25 -20 -45 -45 -45s-45 20 -45 45z" />
    <glyph glyph-name="igrave" unicode="&#xec;" horiz-adv-x="216" 
d="M63 45v414c0 25 20 45 45 45s45 -20 45 -45v-414c0 -25 -20 -45 -45 -45s-45 20 -45 45zM-27 675c0 25 20 45 45 45h54c25 0 45 -20 45 -45c0 -15 12 -27 27 -27h54c25 0 45 -20 45 -45s-20 -45 -45 -45h-54c-25 0 -45 20 -45 45c0 15 -12 27 -27 27h-54
c-25 0 -45 20 -45 45z" />
    <glyph glyph-name="iacute" unicode="&#xed;" horiz-adv-x="216" 
d="M63 45v414c0 25 20 45 45 45s45 -20 45 -45v-414c0 -25 -20 -45 -45 -45s-45 20 -45 45zM243 675c0 -25 -20 -45 -45 -45h-54c-15 0 -27 -12 -27 -27c0 -25 -20 -45 -45 -45h-54c-25 0 -45 20 -45 45s20 45 45 45h54c15 0 27 12 27 27c0 25 20 45 45 45h54
c25 0 45 -20 45 -45z" />
    <glyph glyph-name="icircumflex" unicode="&#xee;" horiz-adv-x="216" 
d="M63 45v414c0 25 20 45 45 45s45 -20 45 -45v-414c0 -25 -20 -45 -45 -45s-45 20 -45 45zM126 630h-36c-15 0 -27 -12 -27 -27c0 -25 -20 -45 -45 -45s-45 20 -45 45s20 45 45 45c15 0 27 12 27 27c0 25 20 45 45 45h36c25 0 45 -20 45 -45c0 -15 12 -27 27 -27
c25 0 45 -20 45 -45s-20 -45 -45 -45s-45 20 -45 45c0 15 -12 27 -27 27z" />
    <glyph glyph-name="idieresis" unicode="&#xef;" horiz-adv-x="216" 
d="M63 45v414c0 25 20 45 45 45s45 -20 45 -45v-414c0 -25 -20 -45 -45 -45s-45 20 -45 45zM-27 639v36c0 25 20 45 45 45s45 -20 45 -45v-36c0 -25 -20 -45 -45 -45s-45 20 -45 45zM153 639v36c0 25 20 45 45 45s45 -20 45 -45v-36c0 -25 -20 -45 -45 -45s-45 20 -45 45z
" />
    <glyph glyph-name="eth" unicode="&#xf0;" horiz-adv-x="576" 
d="M180 405h180c15 0 27 12 27 27v36c0 15 -12 27 -27 27h-36c-25 0 -45 20 -45 45s20 45 45 45h36c15 0 27 12 27 27v63c0 25 20 45 45 45s45 -20 45 -45v-63c0 -15 12 -27 27 -27h36c25 0 45 -20 45 -45s-20 -45 -45 -45h-36c-15 0 -27 -12 -27 -27v-351
c0 -25 -20 -45 -45 -45c-15 0 -27 -12 -27 -27c0 -25 -20 -45 -45 -45h-180c-25 0 -45 20 -45 45c0 15 -12 27 -27 27c-25 0 -45 20 -45 45v171c0 25 20 45 45 45c15 0 27 12 27 27c0 25 20 45 45 45zM180 90h180c15 0 27 12 27 27v171c0 15 -12 27 -27 27h-180
c-15 0 -27 -12 -27 -27v-171c0 -15 12 -27 27 -27z" />
    <glyph glyph-name="ntilde" unicode="&#xf1;" 
d="M63 45v414c0 25 20 45 45 45h252c25 0 45 -20 45 -45c0 -15 12 -27 27 -27c25 0 45 -20 45 -45v-342c0 -25 -20 -45 -45 -45s-45 20 -45 45v342c0 15 -12 27 -27 27h-180c-15 0 -27 -12 -27 -27v-342c0 -25 -20 -45 -45 -45s-45 20 -45 45zM234 630
c-15 0 -27 -12 -27 -27c0 -25 -20 -45 -45 -45s-45 20 -45 45s20 45 45 45c15 0 27 12 27 27c0 25 20 45 45 45s45 -20 45 -45c0 -15 12 -27 27 -27s27 12 27 27c0 25 20 45 45 45s45 -20 45 -45s-20 -45 -45 -45c-15 0 -27 -12 -27 -27c0 -25 -20 -45 -45 -45
s-45 20 -45 45c0 15 -12 27 -27 27z" />
    <glyph glyph-name="ograve" unicode="&#xf2;" 
d="M63 117v270c0 25 20 45 45 45c15 0 27 12 27 27c0 25 20 45 45 45h180c25 0 45 -20 45 -45c0 -15 12 -27 27 -27c25 0 45 -20 45 -45v-270c0 -25 -20 -45 -45 -45c-15 0 -27 -12 -27 -27c0 -25 -20 -45 -45 -45h-180c-25 0 -45 20 -45 45c0 15 -12 27 -27 27
c-25 0 -45 20 -45 45zM180 90h180c15 0 27 12 27 27v270c0 15 -12 27 -27 27h-180c-15 0 -27 -12 -27 -27v-270c0 -15 12 -27 27 -27zM135 675c0 25 20 45 45 45h54c25 0 45 -20 45 -45c0 -15 12 -27 27 -27h54c25 0 45 -20 45 -45s-20 -45 -45 -45h-54c-25 0 -45 20 -45 45
c0 15 -12 27 -27 27h-54c-25 0 -45 20 -45 45z" />
    <glyph glyph-name="oacute" unicode="&#xf3;" 
d="M63 117v270c0 25 20 45 45 45c15 0 27 12 27 27c0 25 20 45 45 45h180c25 0 45 -20 45 -45c0 -15 12 -27 27 -27c25 0 45 -20 45 -45v-270c0 -25 -20 -45 -45 -45c-15 0 -27 -12 -27 -27c0 -25 -20 -45 -45 -45h-180c-25 0 -45 20 -45 45c0 15 -12 27 -27 27
c-25 0 -45 20 -45 45zM180 90h180c15 0 27 12 27 27v270c0 15 -12 27 -27 27h-180c-15 0 -27 -12 -27 -27v-270c0 -15 12 -27 27 -27zM405 675c0 -25 -20 -45 -45 -45h-54c-15 0 -27 -12 -27 -27c0 -25 -20 -45 -45 -45h-54c-25 0 -45 20 -45 45s20 45 45 45h54
c15 0 27 12 27 27c0 25 20 45 45 45h54c25 0 45 -20 45 -45z" />
    <glyph glyph-name="ocircumflex" unicode="&#xf4;" 
d="M63 117v270c0 25 20 45 45 45c15 0 27 12 27 27c0 25 20 45 45 45h180c25 0 45 -20 45 -45c0 -15 12 -27 27 -27c25 0 45 -20 45 -45v-270c0 -25 -20 -45 -45 -45c-15 0 -27 -12 -27 -27c0 -25 -20 -45 -45 -45h-180c-25 0 -45 20 -45 45c0 15 -12 27 -27 27
c-25 0 -45 20 -45 45zM180 90h180c15 0 27 12 27 27v270c0 15 -12 27 -27 27h-180c-15 0 -27 -12 -27 -27v-270c0 -15 12 -27 27 -27zM288 630h-36c-15 0 -27 -12 -27 -27c0 -25 -20 -45 -45 -45s-45 20 -45 45s20 45 45 45c15 0 27 12 27 27c0 25 20 45 45 45h36
c25 0 45 -20 45 -45c0 -15 12 -27 27 -27c25 0 45 -20 45 -45s-20 -45 -45 -45s-45 20 -45 45c0 15 -12 27 -27 27z" />
    <glyph glyph-name="otilde" unicode="&#xf5;" 
d="M63 117v270c0 25 20 45 45 45c15 0 27 12 27 27c0 25 20 45 45 45h180c25 0 45 -20 45 -45c0 -15 12 -27 27 -27c25 0 45 -20 45 -45v-270c0 -25 -20 -45 -45 -45c-15 0 -27 -12 -27 -27c0 -25 -20 -45 -45 -45h-180c-25 0 -45 20 -45 45c0 15 -12 27 -27 27
c-25 0 -45 20 -45 45zM180 90h180c15 0 27 12 27 27v270c0 15 -12 27 -27 27h-180c-15 0 -27 -12 -27 -27v-270c0 -15 12 -27 27 -27zM234 630c-15 0 -27 -12 -27 -27c0 -25 -20 -45 -45 -45s-45 20 -45 45s20 45 45 45c15 0 27 12 27 27c0 25 20 45 45 45s45 -20 45 -45
c0 -15 12 -27 27 -27s27 12 27 27c0 25 20 45 45 45s45 -20 45 -45s-20 -45 -45 -45c-15 0 -27 -12 -27 -27c0 -25 -20 -45 -45 -45s-45 20 -45 45c0 15 -12 27 -27 27z" />
    <glyph glyph-name="odieresis" unicode="&#xf6;" 
d="M63 117v270c0 25 20 45 45 45c15 0 27 12 27 27c0 25 20 45 45 45h180c25 0 45 -20 45 -45c0 -15 12 -27 27 -27c25 0 45 -20 45 -45v-270c0 -25 -20 -45 -45 -45c-15 0 -27 -12 -27 -27c0 -25 -20 -45 -45 -45h-180c-25 0 -45 20 -45 45c0 15 -12 27 -27 27
c-25 0 -45 20 -45 45zM180 90h180c15 0 27 12 27 27v270c0 15 -12 27 -27 27h-180c-15 0 -27 -12 -27 -27v-270c0 -15 12 -27 27 -27zM135 639v36c0 25 20 45 45 45s45 -20 45 -45v-36c0 -25 -20 -45 -45 -45s-45 20 -45 45zM315 639v36c0 25 20 45 45 45s45 -20 45 -45v-36
c0 -25 -20 -45 -45 -45s-45 20 -45 45z" />
    <glyph glyph-name="divide" unicode="&#xf7;" horiz-adv-x="576" 
d="M108 369h360c25 0 45 -20 45 -45s-20 -45 -45 -45h-360c-25 0 -45 20 -45 45s20 45 45 45zM243 144v36c0 25 20 45 45 45s45 -20 45 -45v-36c0 -25 -20 -45 -45 -45s-45 20 -45 45zM333 504v-36c0 -25 -20 -45 -45 -45s-45 20 -45 45v36c0 25 20 45 45 45s45 -20 45 -45z
" />
    <glyph glyph-name="oslash" unicode="&#xf8;" 
d="M315 117c0 -15 12 -27 27 -27h18c15 0 27 12 27 27v270c0 15 -12 27 -27 27h-18c-15 0 -27 -12 -27 -27v-270zM180 90h18c15 0 27 12 27 27v270c0 15 -12 27 -27 27h-18c-15 0 -27 -12 -27 -27v-270c0 -15 12 -27 27 -27zM360 0h-109c-15 0 -26 -12 -26 -27v-18
c0 -25 -20 -45 -45 -45c-24 0 -45 19 -45 45v90c0 15 -12 27 -27 27c-25 0 -45 20 -45 45v270c0 25 20 45 45 45c15 0 27 12 27 27c0 25 20 45 45 45h108c15 0 27 12 27 27v18c0 25 20 45 45 45s45 -20 45 -45v-90c0 -15 12 -27 27 -27c25 0 45 -20 45 -45v-270
c0 -25 -20 -45 -45 -45c-15 0 -27 -12 -27 -27c0 -25 -20 -45 -45 -45z" />
    <glyph glyph-name="ugrave" unicode="&#xf9;" 
d="M63 117v342c0 25 20 45 45 45s45 -20 45 -45v-342c0 -15 12 -27 27 -27h180c15 0 27 12 27 27v342c0 25 20 45 45 45s45 -20 45 -45v-414c0 -25 -20 -45 -45 -45h-252c-25 0 -45 20 -45 45c0 15 -12 27 -27 27c-25 0 -45 20 -45 45zM135 675c0 25 20 45 45 45h54
c25 0 45 -20 45 -45c0 -15 12 -27 27 -27h54c25 0 45 -20 45 -45s-20 -45 -45 -45h-54c-25 0 -45 20 -45 45c0 15 -12 27 -27 27h-54c-25 0 -45 20 -45 45z" />
    <glyph glyph-name="uacute" unicode="&#xfa;" 
d="M63 117v342c0 25 20 45 45 45s45 -20 45 -45v-342c0 -15 12 -27 27 -27h180c15 0 27 12 27 27v342c0 25 20 45 45 45s45 -20 45 -45v-414c0 -25 -20 -45 -45 -45h-252c-25 0 -45 20 -45 45c0 15 -12 27 -27 27c-25 0 -45 20 -45 45zM405 675c0 -25 -20 -45 -45 -45h-54
c-15 0 -27 -12 -27 -27c0 -25 -20 -45 -45 -45h-54c-25 0 -45 20 -45 45s20 45 45 45h54c15 0 27 12 27 27c0 25 20 45 45 45h54c25 0 45 -20 45 -45z" />
    <glyph glyph-name="ucircumflex" unicode="&#xfb;" 
d="M63 117v342c0 25 20 45 45 45s45 -20 45 -45v-342c0 -15 12 -27 27 -27h180c15 0 27 12 27 27v342c0 25 20 45 45 45s45 -20 45 -45v-414c0 -25 -20 -45 -45 -45h-252c-25 0 -45 20 -45 45c0 15 -12 27 -27 27c-25 0 -45 20 -45 45zM288 630h-36c-15 0 -27 -12 -27 -27
c0 -25 -20 -45 -45 -45s-45 20 -45 45s20 45 45 45c15 0 27 12 27 27c0 25 20 45 45 45h36c25 0 45 -20 45 -45c0 -15 12 -27 27 -27c25 0 45 -20 45 -45s-20 -45 -45 -45s-45 20 -45 45c0 15 -12 27 -27 27z" />
    <glyph glyph-name="udieresis" unicode="&#xfc;" 
d="M63 117v342c0 25 20 45 45 45s45 -20 45 -45v-342c0 -15 12 -27 27 -27h180c15 0 27 12 27 27v342c0 25 20 45 45 45s45 -20 45 -45v-414c0 -25 -20 -45 -45 -45h-252c-25 0 -45 20 -45 45c0 15 -12 27 -27 27c-25 0 -45 20 -45 45zM135 639v36c0 25 20 45 45 45
s45 -20 45 -45v-36c0 -25 -20 -45 -45 -45s-45 20 -45 45zM315 639v36c0 25 20 45 45 45s45 -20 45 -45v-36c0 -25 -20 -45 -45 -45s-45 20 -45 45z" />
    <glyph glyph-name="yacute" unicode="&#xfd;" 
d="M144 -126h216c15 0 27 12 27 27v71c0 16 -12 28 -27 28h-180c-25 0 -45 20 -45 45c0 15 -12 27 -27 27c-25 0 -45 20 -45 45v342c0 25 20 45 45 45s45 -20 45 -45v-342c0 -15 12 -27 27 -27h180c15 0 27 12 27 27v342c0 25 20 45 45 45s45 -20 45 -45v-558
c0 -25 -20 -45 -45 -45c-15 0 -27 -12 -27 -27c0 -25 -20 -45 -45 -45h-216c-25 0 -45 20 -45 45s20 45 45 45zM405 675c0 -25 -20 -45 -45 -45h-54c-15 0 -27 -12 -27 -27c0 -25 -20 -45 -45 -45h-54c-25 0 -45 20 -45 45s20 45 45 45h54c15 0 27 12 27 27
c0 25 20 45 45 45h54c25 0 45 -20 45 -45z" />
    <glyph glyph-name="thorn" unicode="&#xfe;" 
d="M180 90h180c15 0 27 12 27 27v270c0 15 -12 27 -27 27h-180c-15 0 -27 -12 -27 -27v-270c0 -15 12 -27 27 -27zM63 -171v846c0 25 20 45 45 45s45 -20 45 -45v-144c0 -15 12 -27 27 -27h180c25 0 45 -20 45 -45c0 -15 12 -27 27 -27c25 0 45 -20 45 -45v-270
c0 -25 -20 -45 -45 -45c-15 0 -27 -12 -27 -27c0 -25 -20 -45 -45 -45h-180c-15 0 -27 -12 -27 -27v-144c0 -25 -20 -45 -45 -45s-45 20 -45 45z" />
    <glyph glyph-name="ydieresis" unicode="&#xff;" 
d="M144 -126h216c15 0 27 12 27 27v71c0 16 -12 28 -27 28h-180c-25 0 -45 20 -45 45c0 15 -12 27 -27 27c-25 0 -45 20 -45 45v342c0 25 20 45 45 45s45 -20 45 -45v-342c0 -15 12 -27 27 -27h180c15 0 27 12 27 27v342c0 25 20 45 45 45s45 -20 45 -45v-558
c0 -25 -20 -45 -45 -45c-15 0 -27 -12 -27 -27c0 -25 -20 -45 -45 -45h-216c-25 0 -45 20 -45 45s20 45 45 45zM135 639v36c0 25 20 45 45 45s45 -20 45 -45v-36c0 -25 -20 -45 -45 -45s-45 20 -45 45zM315 639v36c0 25 20 45 45 45s45 -20 45 -45v-36
c0 -25 -20 -45 -45 -45s-45 20 -45 45z" />
    <glyph glyph-name="Amacron" unicode="&#x100;" horiz-adv-x="594" 
d="M54 45v261c0 25 20 45 45 45c15 0 27 12 27 27v153c0 25 20 45 45 45c15 0 27 12 27 27c0 25 20 45 45 45h108c25 0 45 -20 45 -45c0 -15 12 -27 27 -27c25 0 45 -20 45 -45v-153c0 -15 12 -27 27 -27c25 0 45 -20 45 -45v-261c0 -25 -20 -45 -45 -45s-45 20 -45 45v63
c0 15 -12 27 -27 27h-252c-15 0 -27 -12 -27 -27v-63c0 -25 -20 -45 -45 -45s-45 20 -45 45zM171 225h252c15 0 27 12 27 27v54c0 15 -12 27 -27 27c-25 0 -45 20 -45 45v153c0 14 -13 27 -27 27h-108c-14 0 -27 -13 -27 -27v-153c0 -25 -20 -45 -45 -45
c-15 0 -27 -12 -27 -27v-54c0 -15 12 -27 27 -27zM207 864h180c25 0 45 -20 45 -45s-20 -45 -45 -45h-180c-25 0 -45 20 -45 45s20 45 45 45z" />
    <glyph glyph-name="amacron" unicode="&#x101;" horiz-adv-x="522" 
d="M45 117v63c0 25 20 45 45 45c15 0 27 12 27 27c0 25 20 45 45 45h180c15 0 27 12 27 27v63c0 15 -12 27 -27 27h-216c-25 0 -45 20 -45 45s20 45 45 45h216c25 0 45 -20 45 -45c0 -15 12 -27 27 -27c25 0 45 -20 45 -45v-342c0 -25 -20 -45 -45 -45h-252
c-25 0 -45 20 -45 45c0 15 -12 27 -27 27c-25 0 -45 20 -45 45zM162 90h180c15 0 27 12 27 27v63c0 15 -12 27 -27 27h-180c-15 0 -27 -12 -27 -27v-63c0 -15 12 -27 27 -27zM162 720h180c25 0 45 -20 45 -45s-20 -45 -45 -45h-180c-25 0 -45 20 -45 45s20 45 45 45z" />
    <glyph glyph-name="Abreve" unicode="&#x102;" horiz-adv-x="594" 
d="M54 45v261c0 25 20 45 45 45c15 0 27 12 27 27v153c0 25 20 45 45 45c15 0 27 12 27 27c0 25 20 45 45 45h108c25 0 45 -20 45 -45c0 -15 12 -27 27 -27c25 0 45 -20 45 -45v-153c0 -15 12 -27 27 -27c25 0 45 -20 45 -45v-261c0 -25 -20 -45 -45 -45s-45 20 -45 45v63
c0 15 -12 27 -27 27h-252c-15 0 -27 -12 -27 -27v-63c0 -25 -20 -45 -45 -45s-45 20 -45 45zM171 225h252c15 0 27 12 27 27v54c0 15 -12 27 -27 27c-25 0 -45 20 -45 45v153c0 14 -13 27 -27 27h-108c-14 0 -27 -13 -27 -27v-153c0 -25 -20 -45 -45 -45
c-15 0 -27 -12 -27 -27v-54c0 -15 12 -27 27 -27zM243 792h108c15 0 27 12 27 27c0 25 20 45 45 45s45 -20 45 -45s-20 -45 -45 -45c-15 0 -27 -12 -27 -27c0 -25 -20 -45 -45 -45h-108c-25 0 -45 20 -45 45c0 15 -12 27 -27 27c-25 0 -45 20 -45 45s20 45 45 45
s45 -20 45 -45c0 -15 12 -27 27 -27z" />
    <glyph glyph-name="abreve" unicode="&#x103;" horiz-adv-x="522" 
d="M45 117v63c0 25 20 45 45 45c15 0 27 12 27 27c0 25 20 45 45 45h180c15 0 27 12 27 27v63c0 15 -12 27 -27 27h-216c-25 0 -45 20 -45 45s20 45 45 45h216c25 0 45 -20 45 -45c0 -15 12 -27 27 -27c25 0 45 -20 45 -45v-342c0 -25 -20 -45 -45 -45h-252
c-25 0 -45 20 -45 45c0 15 -12 27 -27 27c-25 0 -45 20 -45 45zM162 90h180c15 0 27 12 27 27v63c0 15 -12 27 -27 27h-180c-15 0 -27 -12 -27 -27v-63c0 -15 12 -27 27 -27zM198 648h108c15 0 27 12 27 27c0 25 20 45 45 45s45 -20 45 -45s-20 -45 -45 -45
c-15 0 -27 -12 -27 -27c0 -25 -20 -45 -45 -45h-108c-25 0 -45 20 -45 45c0 15 -12 27 -27 27c-25 0 -45 20 -45 45s20 45 45 45s45 -20 45 -45c0 -15 12 -27 27 -27z" />
    <glyph glyph-name="Aogonek" unicode="&#x104;" horiz-adv-x="594" 
d="M54 45v261c0 25 20 45 45 45c15 0 27 12 27 27v153c0 25 20 45 45 45c15 0 27 12 27 27c0 25 20 45 45 45h108c25 0 45 -20 45 -45c0 -15 12 -27 27 -27c25 0 45 -20 45 -45v-153c0 -15 12 -27 27 -27c25 0 45 -20 45 -45v-261c0 -25 -20 -45 -45 -45s-45 20 -45 45v63
c0 15 -12 27 -27 27h-252c-15 0 -27 -12 -27 -27v-63c0 -25 -20 -45 -45 -45s-45 20 -45 45zM171 225h252c15 0 27 12 27 27v54c0 15 -12 27 -27 27c-25 0 -45 20 -45 45v153c0 14 -13 27 -27 27h-108c-14 0 -27 -13 -27 -27v-153c0 -25 -20 -45 -45 -45
c-15 0 -27 -12 -27 -27v-54c0 -15 12 -27 27 -27zM567 -153v-36c0 -25 -20 -45 -45 -45s-45 20 -45 45v36c0 15 -12 27 -27 27c-25 0 -45 20 -45 45v36c0 25 20 45 45 45s45 -20 45 -45v-36c0 -15 12 -27 27 -27c25 0 45 -20 45 -45z" />
    <glyph glyph-name="aogonek" unicode="&#x105;" horiz-adv-x="522" 
d="M459 -153v-36c0 -25 -20 -45 -45 -45s-45 20 -45 45v36c0 15 -12 27 -27 27c-25 0 -45 20 -45 45v36c0 24 18 43 41 45h-176c-25 0 -45 20 -45 45c0 15 -12 27 -27 27c-25 0 -45 20 -45 45v63c0 25 20 45 45 45c15 0 27 12 27 27c0 25 20 45 45 45h180c15 0 27 12 27 27
v63c0 15 -12 27 -27 27h-216c-25 0 -45 20 -45 45s20 45 45 45h216c25 0 45 -20 45 -45c0 -15 12 -27 27 -27c25 0 45 -20 45 -45v-342c0 -25 -20 -45 -45 -45h-69c23 -2 42 -21 42 -45v-36c0 -15 12 -27 27 -27c25 0 45 -20 45 -45zM162 90h180c15 0 27 12 27 27v63
c0 15 -12 27 -27 27h-180c-15 0 -27 -12 -27 -27v-63c0 -15 12 -27 27 -27z" />
    <glyph glyph-name="Cacute" unicode="&#x106;" horiz-adv-x="468" 
d="M63 117v414c0 25 20 45 45 45c15 0 27 12 27 27c0 25 20 45 45 45h216c25 0 45 -20 45 -45s-20 -45 -45 -45h-216c-15 0 -27 -12 -27 -27v-414c0 -15 12 -27 27 -27h216c25 0 45 -20 45 -45s-20 -45 -45 -45h-216c-25 0 -45 20 -45 45c0 15 -12 27 -27 27
c-25 0 -45 20 -45 45zM405 819c0 -25 -20 -45 -45 -45h-54c-15 0 -27 -12 -27 -27c0 -25 -20 -45 -45 -45h-54c-25 0 -45 20 -45 45s20 45 45 45h54c15 0 27 12 27 27c0 25 20 45 45 45h54c25 0 45 -20 45 -45z" />
    <glyph glyph-name="cacute" unicode="&#x107;" horiz-adv-x="432" 
d="M63 117v270c0 25 20 45 45 45c15 0 27 12 27 27c0 25 20 45 45 45h180c25 0 45 -20 45 -45s-20 -45 -45 -45h-180c-15 0 -27 -12 -27 -27v-270c0 -15 12 -27 27 -27h180c25 0 45 -20 45 -45s-20 -45 -45 -45h-180c-25 0 -45 20 -45 45c0 15 -12 27 -27 27
c-25 0 -45 20 -45 45zM387 675c0 -25 -20 -45 -45 -45h-54c-15 0 -27 -12 -27 -27c0 -25 -20 -45 -45 -45h-54c-25 0 -45 20 -45 45s20 45 45 45h54c15 0 27 12 27 27c0 25 20 45 45 45h54c25 0 45 -20 45 -45z" />
    <glyph glyph-name="Ccircumflex" unicode="&#x108;" horiz-adv-x="468" 
d="M63 117v414c0 25 20 45 45 45c15 0 27 12 27 27c0 25 20 45 45 45h216c25 0 45 -20 45 -45s-20 -45 -45 -45h-216c-15 0 -27 -12 -27 -27v-414c0 -15 12 -27 27 -27h216c25 0 45 -20 45 -45s-20 -45 -45 -45h-216c-25 0 -45 20 -45 45c0 15 -12 27 -27 27
c-25 0 -45 20 -45 45zM288 774h-36c-15 0 -27 -12 -27 -27c0 -25 -20 -45 -45 -45s-45 20 -45 45s20 45 45 45c15 0 27 12 27 27c0 25 20 45 45 45h36c25 0 45 -20 45 -45c0 -15 12 -27 27 -27c25 0 45 -20 45 -45s-20 -45 -45 -45s-45 20 -45 45c0 15 -12 27 -27 27z" />
    <glyph glyph-name="ccircumflex" unicode="&#x109;" horiz-adv-x="432" 
d="M63 117v270c0 25 20 45 45 45c15 0 27 12 27 27c0 25 20 45 45 45h180c25 0 45 -20 45 -45s-20 -45 -45 -45h-180c-15 0 -27 -12 -27 -27v-270c0 -15 12 -27 27 -27h180c25 0 45 -20 45 -45s-20 -45 -45 -45h-180c-25 0 -45 20 -45 45c0 15 -12 27 -27 27
c-25 0 -45 20 -45 45zM270 630h-36c-15 0 -27 -12 -27 -27c0 -25 -20 -45 -45 -45s-45 20 -45 45s20 45 45 45c15 0 27 12 27 27c0 25 20 45 45 45h36c25 0 45 -20 45 -45c0 -15 12 -27 27 -27c25 0 45 -20 45 -45s-20 -45 -45 -45s-45 20 -45 45c0 15 -12 27 -27 27z" />
    <glyph glyph-name="Cdotaccent" unicode="&#x10a;" horiz-adv-x="468" 
d="M63 117v414c0 25 20 45 45 45c15 0 27 12 27 27c0 25 20 45 45 45h216c25 0 45 -20 45 -45s-20 -45 -45 -45h-216c-15 0 -27 -12 -27 -27v-414c0 -15 12 -27 27 -27h216c25 0 45 -20 45 -45s-20 -45 -45 -45h-216c-25 0 -45 20 -45 45c0 15 -12 27 -27 27
c-25 0 -45 20 -45 45zM225 783v36c0 25 20 45 45 45s45 -20 45 -45v-36c0 -25 -20 -45 -45 -45s-45 20 -45 45z" />
    <glyph glyph-name="cdotaccent" unicode="&#x10b;" horiz-adv-x="432" 
d="M63 117v270c0 25 20 45 45 45c15 0 27 12 27 27c0 25 20 45 45 45h180c25 0 45 -20 45 -45s-20 -45 -45 -45h-180c-15 0 -27 -12 -27 -27v-270c0 -15 12 -27 27 -27h180c25 0 45 -20 45 -45s-20 -45 -45 -45h-180c-25 0 -45 20 -45 45c0 15 -12 27 -27 27
c-25 0 -45 20 -45 45zM207 639v36c0 25 20 45 45 45s45 -20 45 -45v-36c0 -25 -20 -45 -45 -45s-45 20 -45 45z" />
    <glyph glyph-name="Ccaron" unicode="&#x10c;" horiz-adv-x="468" 
d="M63 117v414c0 25 20 45 45 45c15 0 27 12 27 27c0 25 20 45 45 45h216c25 0 45 -20 45 -45s-20 -45 -45 -45h-216c-15 0 -27 -12 -27 -27v-414c0 -15 12 -27 27 -27h216c25 0 45 -20 45 -45s-20 -45 -45 -45h-216c-25 0 -45 20 -45 45c0 15 -12 27 -27 27
c-25 0 -45 20 -45 45zM252 792h36c15 0 27 12 27 27c0 25 20 45 45 45s45 -20 45 -45s-20 -45 -45 -45c-15 0 -27 -12 -27 -27c0 -25 -20 -45 -45 -45h-36c-25 0 -45 20 -45 45c0 15 -12 27 -27 27c-25 0 -45 20 -45 45s20 45 45 45s45 -20 45 -45c0 -15 12 -27 27 -27z" />
    <glyph glyph-name="ccaron" unicode="&#x10d;" horiz-adv-x="432" 
d="M63 117v270c0 25 20 45 45 45c15 0 27 12 27 27c0 25 20 45 45 45h180c25 0 45 -20 45 -45s-20 -45 -45 -45h-180c-15 0 -27 -12 -27 -27v-270c0 -15 12 -27 27 -27h180c25 0 45 -20 45 -45s-20 -45 -45 -45h-180c-25 0 -45 20 -45 45c0 15 -12 27 -27 27
c-25 0 -45 20 -45 45zM234 648h36c15 0 27 12 27 27c0 25 20 45 45 45s45 -20 45 -45s-20 -45 -45 -45c-15 0 -27 -12 -27 -27c0 -25 -20 -45 -45 -45h-36c-25 0 -45 20 -45 45c0 15 -12 27 -27 27c-25 0 -45 20 -45 45s20 45 45 45s45 -20 45 -45c0 -15 12 -27 27 -27z" />
    <glyph glyph-name="Dcaron" unicode="&#x10e;" horiz-adv-x="612" 
d="M63 45v558c0 25 20 45 45 45h324c25 0 45 -20 45 -45c0 -15 12 -27 27 -27c25 0 45 -20 45 -45v-414c0 -25 -20 -45 -45 -45c-15 0 -27 -12 -27 -27c0 -25 -20 -45 -45 -45h-324c-25 0 -45 20 -45 45zM180 90h252c15 0 27 12 27 27v414c0 15 -12 27 -27 27h-252
c-15 0 -27 -12 -27 -27v-414c0 -15 12 -27 27 -27zM279 792h36c15 0 27 12 27 27c0 25 20 45 45 45s45 -20 45 -45s-20 -45 -45 -45c-15 0 -27 -12 -27 -27c0 -25 -20 -45 -45 -45h-36c-25 0 -45 20 -45 45c0 15 -12 27 -27 27c-25 0 -45 20 -45 45s20 45 45 45
s45 -20 45 -45c0 -15 12 -27 27 -27z" />
    <glyph glyph-name="dcaron" unicode="&#x10f;" horiz-adv-x="648" 
d="M180 90h180c15 0 27 12 27 27v270c0 15 -12 27 -27 27h-180c-15 0 -27 -12 -27 -27v-270c0 -15 12 -27 27 -27zM63 117v270c0 25 20 45 45 45c15 0 27 12 27 27c0 25 20 45 45 45h180c15 0 27 12 27 27v144c0 25 20 45 45 45s45 -20 45 -45v-630c0 -25 -20 -45 -45 -45
h-252c-25 0 -45 20 -45 45c0 15 -12 27 -27 27c-25 0 -45 20 -45 45zM531 531v144c0 25 20 45 45 45s45 -20 45 -45v-144c0 -25 -20 -45 -45 -45s-45 20 -45 45z" />
    <glyph glyph-name="Dcroat" unicode="&#x110;" horiz-adv-x="648" 
d="M99 45v207c0 15 -12 27 -27 27h-36c-25 0 -45 20 -45 45s20 45 45 45h36c15 0 27 12 27 27v207c0 25 20 45 45 45h324c25 0 45 -20 45 -45c0 -15 12 -27 27 -27c25 0 45 -20 45 -45v-414c0 -25 -20 -45 -45 -45c-15 0 -27 -12 -27 -27c0 -25 -20 -45 -45 -45h-324
c-25 0 -45 20 -45 45zM189 252v-135c0 -15 12 -27 27 -27h252c15 0 27 12 27 27v414c0 15 -12 27 -27 27h-252c-15 0 -27 -12 -27 -27v-135c0 -15 12 -27 27 -27h36c25 0 45 -20 45 -45s-20 -45 -45 -45h-36c-15 0 -27 -12 -27 -27z" />
    <glyph glyph-name="dcroat" unicode="&#x111;" horiz-adv-x="576" 
d="M432 0h-252c-25 0 -45 20 -45 45c0 15 -12 27 -27 27c-25 0 -45 20 -45 45v171c0 25 20 45 45 45c15 0 27 12 27 27c0 25 20 45 45 45h180c15 0 27 12 27 27v36c0 15 -12 27 -27 27h-36c-25 0 -45 20 -45 45s20 45 45 45h36c15 0 27 12 27 27v63c0 25 20 45 45 45
s45 -20 45 -45v-63c0 -15 12 -27 27 -27h36c25 0 45 -20 45 -45s-20 -45 -45 -45h-36c-15 0 -27 -12 -27 -27v-423c0 -25 -20 -45 -45 -45zM180 90h180c15 0 27 12 27 27v171c0 15 -12 27 -27 27h-180c-15 0 -27 -12 -27 -27v-171c0 -15 12 -27 27 -27z" />
    <glyph glyph-name="Emacron" unicode="&#x112;" horiz-adv-x="468" 
d="M63 45v558c0 25 20 45 45 45h288c25 0 45 -20 45 -45s-20 -45 -45 -45h-216c-15 0 -27 -12 -27 -27v-135c0 -15 12 -27 27 -27h180c25 0 45 -20 45 -45s-20 -45 -45 -45h-180c-15 0 -27 -12 -27 -27v-135c0 -15 12 -27 27 -27h216c25 0 45 -20 45 -45s-20 -45 -45 -45
h-288c-25 0 -45 20 -45 45zM162 864h180c25 0 45 -20 45 -45s-20 -45 -45 -45h-180c-25 0 -45 20 -45 45s20 45 45 45z" />
    <glyph glyph-name="emacron" unicode="&#x113;" horiz-adv-x="522" 
d="M180 297h180c15 0 27 12 27 27v63c0 15 -12 27 -27 27h-180c-15 0 -27 -12 -27 -27v-64c0 -14 12 -26 27 -26zM63 117v270c0 25 20 45 45 45c15 0 27 12 27 27c0 25 20 45 45 45h180c25 0 45 -20 45 -45c0 -15 12 -27 27 -27c25 0 45 -20 45 -45v-63
c0 -25 -20 -45 -45 -45c-15 0 -27 -12 -27 -27c0 -25 -20 -45 -45 -45h-180c-15 0 -27 -12 -27 -27v-63c0 -15 12 -27 27 -27h216c25 0 45 -20 45 -45s-20 -45 -45 -45h-216c-25 0 -45 20 -45 45c0 15 -12 27 -27 27c-25 0 -45 20 -45 45zM180 720h180c25 0 45 -20 45 -45
s-20 -45 -45 -45h-180c-25 0 -45 20 -45 45s20 45 45 45z" />
    <glyph glyph-name="Edotaccent" unicode="&#x116;" horiz-adv-x="468" 
d="M63 45v558c0 25 20 45 45 45h288c25 0 45 -20 45 -45s-20 -45 -45 -45h-216c-15 0 -27 -12 -27 -27v-135c0 -15 12 -27 27 -27h180c25 0 45 -20 45 -45s-20 -45 -45 -45h-180c-15 0 -27 -12 -27 -27v-135c0 -15 12 -27 27 -27h216c25 0 45 -20 45 -45s-20 -45 -45 -45
h-288c-25 0 -45 20 -45 45zM207 783v36c0 25 20 45 45 45s45 -20 45 -45v-36c0 -25 -20 -45 -45 -45s-45 20 -45 45z" />
    <glyph glyph-name="edotaccent" unicode="&#x117;" horiz-adv-x="522" 
d="M180 297h180c15 0 27 12 27 27v63c0 15 -12 27 -27 27h-180c-15 0 -27 -12 -27 -27v-64c0 -14 12 -26 27 -26zM63 117v270c0 25 20 45 45 45c15 0 27 12 27 27c0 25 20 45 45 45h180c25 0 45 -20 45 -45c0 -15 12 -27 27 -27c25 0 45 -20 45 -45v-63
c0 -25 -20 -45 -45 -45c-15 0 -27 -12 -27 -27c0 -25 -20 -45 -45 -45h-180c-15 0 -27 -12 -27 -27v-63c0 -15 12 -27 27 -27h216c25 0 45 -20 45 -45s-20 -45 -45 -45h-216c-25 0 -45 20 -45 45c0 15 -12 27 -27 27c-25 0 -45 20 -45 45zM225 639v36c0 25 20 45 45 45
s45 -20 45 -45v-36c0 -25 -20 -45 -45 -45s-45 20 -45 45z" />
    <glyph glyph-name="Eogonek" unicode="&#x118;" horiz-adv-x="468" 
d="M441 -153v-36c0 -25 -20 -45 -45 -45s-45 20 -45 45v36c0 15 -12 27 -27 27c-25 0 -45 20 -45 45v36c0 24 18 43 41 45h-212c-25 0 -45 20 -45 45v558c0 25 20 45 45 45h288c25 0 45 -20 45 -45s-20 -45 -45 -45h-216c-15 0 -27 -12 -27 -27v-135c0 -15 12 -27 27 -27
h180c25 0 45 -20 45 -45s-20 -45 -45 -45h-180c-15 0 -27 -12 -27 -27v-135c0 -15 12 -27 27 -27h216c25 0 45 -20 45 -45s-20 -45 -45 -45h-69c23 -2 42 -21 42 -45v-36c0 -15 12 -27 27 -27c25 0 45 -20 45 -45z" />
    <glyph glyph-name="eogonek" unicode="&#x119;" horiz-adv-x="522" 
d="M477 -153v-36c0 -25 -20 -45 -45 -45s-45 20 -45 45v36c0 15 -12 27 -27 27c-25 0 -45 20 -45 45v36c0 24 18 43 41 45h-176c-25 0 -45 20 -45 45c0 15 -12 27 -27 27c-25 0 -45 20 -45 45v270c0 25 20 45 45 45c15 0 27 12 27 27c0 25 20 45 45 45h180
c25 0 45 -20 45 -45c0 -15 12 -27 27 -27c25 0 45 -20 45 -45v-63c0 -25 -20 -45 -45 -45c-15 0 -27 -12 -27 -27c0 -25 -20 -45 -45 -45h-180c-15 0 -27 -12 -27 -27v-63c0 -15 12 -27 27 -27h216c25 0 45 -20 45 -45s-20 -45 -45 -45h-33c23 -2 42 -21 42 -45v-36
c0 -15 12 -27 27 -27c25 0 45 -20 45 -45zM180 297h180c15 0 27 12 27 27v63c0 15 -12 27 -27 27h-180c-15 0 -27 -12 -27 -27v-64c0 -14 12 -26 27 -26z" />
    <glyph glyph-name="Ecaron" unicode="&#x11a;" horiz-adv-x="468" 
d="M63 45v558c0 25 20 45 45 45h288c25 0 45 -20 45 -45s-20 -45 -45 -45h-216c-15 0 -27 -12 -27 -27v-135c0 -15 12 -27 27 -27h180c25 0 45 -20 45 -45s-20 -45 -45 -45h-180c-15 0 -27 -12 -27 -27v-135c0 -15 12 -27 27 -27h216c25 0 45 -20 45 -45s-20 -45 -45 -45
h-288c-25 0 -45 20 -45 45zM234 792h36c15 0 27 12 27 27c0 25 20 45 45 45s45 -20 45 -45s-20 -45 -45 -45c-15 0 -27 -12 -27 -27c0 -25 -20 -45 -45 -45h-36c-25 0 -45 20 -45 45c0 15 -12 27 -27 27c-25 0 -45 20 -45 45s20 45 45 45s45 -20 45 -45c0 -15 12 -27 27 -27
z" />
    <glyph glyph-name="ecaron" unicode="&#x11b;" horiz-adv-x="522" 
d="M180 297h180c15 0 27 12 27 27v63c0 15 -12 27 -27 27h-180c-15 0 -27 -12 -27 -27v-64c0 -14 12 -26 27 -26zM63 117v270c0 25 20 45 45 45c15 0 27 12 27 27c0 25 20 45 45 45h180c25 0 45 -20 45 -45c0 -15 12 -27 27 -27c25 0 45 -20 45 -45v-63
c0 -25 -20 -45 -45 -45c-15 0 -27 -12 -27 -27c0 -25 -20 -45 -45 -45h-180c-15 0 -27 -12 -27 -27v-63c0 -15 12 -27 27 -27h216c25 0 45 -20 45 -45s-20 -45 -45 -45h-216c-25 0 -45 20 -45 45c0 15 -12 27 -27 27c-25 0 -45 20 -45 45zM252 648h36c15 0 27 12 27 27
c0 25 20 45 45 45s45 -20 45 -45s-20 -45 -45 -45c-15 0 -27 -12 -27 -27c0 -25 -20 -45 -45 -45h-36c-25 0 -45 20 -45 45c0 15 -12 27 -27 27c-25 0 -45 20 -45 45s20 45 45 45s45 -20 45 -45c0 -15 12 -27 27 -27z" />
    <glyph glyph-name="Gcircumflex" unicode="&#x11c;" horiz-adv-x="603" 
d="M63 117v414c0 25 20 45 45 45c15 0 27 12 27 27c0 25 20 45 45 45h288c25 0 45 -20 45 -45s-20 -45 -45 -45h-288c-15 0 -27 -12 -27 -27v-414c0 -15 12 -27 27 -27h252c15 0 27 12 27 27v135c0 15 -12 27 -27 27h-108c-25 0 -45 20 -45 45s20 45 45 45h180
c25 0 45 -20 45 -45v-207c0 -25 -20 -45 -45 -45c-15 0 -27 -12 -27 -27c0 -25 -20 -45 -45 -45h-252c-25 0 -45 20 -45 45c0 15 -12 27 -27 27c-25 0 -45 20 -45 45zM324 774h-36c-15 0 -27 -12 -27 -27c0 -25 -20 -45 -45 -45s-45 20 -45 45s20 45 45 45c15 0 27 12 27 27
c0 25 20 45 45 45h36c25 0 45 -20 45 -45c0 -15 12 -27 27 -27c25 0 45 -20 45 -45s-20 -45 -45 -45s-45 20 -45 45c0 15 -12 27 -27 27z" />
    <glyph glyph-name="gcircumflex" unicode="&#x11d;" 
d="M180 90h180c15 0 27 12 27 27v270c0 15 -12 27 -27 27h-180c-15 0 -27 -12 -27 -27v-270c0 -15 12 -27 27 -27zM144 -126h216c15 0 27 12 27 27v72c0 15 -12 27 -27 27h-180c-25 0 -45 20 -45 45c0 15 -12 27 -27 27c-25 0 -45 20 -45 45v270c0 25 20 45 45 45
c15 0 27 12 27 27c0 25 20 45 45 45h252c25 0 45 -20 45 -45v-558c0 -25 -20 -45 -45 -45c-15 0 -27 -12 -27 -27c0 -25 -20 -45 -45 -45h-216c-25 0 -45 20 -45 45s20 45 45 45zM297 630h-36c-15 0 -27 -12 -27 -27c0 -25 -20 -45 -45 -45s-45 20 -45 45s20 45 45 45
c15 0 27 12 27 27c0 25 20 45 45 45h36c25 0 45 -20 45 -45c0 -15 12 -27 27 -27c25 0 45 -20 45 -45s-20 -45 -45 -45s-45 20 -45 45c0 15 -12 27 -27 27z" />
    <glyph glyph-name="Gbreve" unicode="&#x11e;" horiz-adv-x="603" 
d="M63 117v414c0 25 20 45 45 45c15 0 27 12 27 27c0 25 20 45 45 45h288c25 0 45 -20 45 -45s-20 -45 -45 -45h-288c-15 0 -27 -12 -27 -27v-414c0 -15 12 -27 27 -27h252c15 0 27 12 27 27v135c0 15 -12 27 -27 27h-108c-25 0 -45 20 -45 45s20 45 45 45h180
c25 0 45 -20 45 -45v-207c0 -25 -20 -45 -45 -45c-15 0 -27 -12 -27 -27c0 -25 -20 -45 -45 -45h-252c-25 0 -45 20 -45 45c0 15 -12 27 -27 27c-25 0 -45 20 -45 45zM252 792h108c15 0 27 12 27 27c0 25 20 45 45 45s45 -20 45 -45s-20 -45 -45 -45c-15 0 -27 -12 -27 -27
c0 -25 -20 -45 -45 -45h-108c-25 0 -45 20 -45 45c0 15 -12 27 -27 27c-25 0 -45 20 -45 45s20 45 45 45s45 -20 45 -45c0 -15 12 -27 27 -27z" />
    <glyph glyph-name="gbreve" unicode="&#x11f;" 
d="M180 90h180c15 0 27 12 27 27v270c0 15 -12 27 -27 27h-180c-15 0 -27 -12 -27 -27v-270c0 -15 12 -27 27 -27zM144 -126h216c15 0 27 12 27 27v72c0 15 -12 27 -27 27h-180c-25 0 -45 20 -45 45c0 15 -12 27 -27 27c-25 0 -45 20 -45 45v270c0 25 20 45 45 45
c15 0 27 12 27 27c0 25 20 45 45 45h252c25 0 45 -20 45 -45v-558c0 -25 -20 -45 -45 -45c-15 0 -27 -12 -27 -27c0 -25 -20 -45 -45 -45h-216c-25 0 -45 20 -45 45s20 45 45 45zM225 648h108c15 0 27 12 27 27c0 25 20 45 45 45s45 -20 45 -45s-20 -45 -45 -45
c-15 0 -27 -12 -27 -27c0 -25 -20 -45 -45 -45h-108c-25 0 -45 20 -45 45c0 15 -12 27 -27 27c-25 0 -45 20 -45 45s20 45 45 45s45 -20 45 -45c0 -15 12 -27 27 -27z" />
    <glyph glyph-name="Gdotaccent" unicode="&#x120;" horiz-adv-x="603" 
d="M63 117v414c0 25 20 45 45 45c15 0 27 12 27 27c0 25 20 45 45 45h288c25 0 45 -20 45 -45s-20 -45 -45 -45h-288c-15 0 -27 -12 -27 -27v-414c0 -15 12 -27 27 -27h252c15 0 27 12 27 27v135c0 15 -12 27 -27 27h-108c-25 0 -45 20 -45 45s20 45 45 45h180
c25 0 45 -20 45 -45v-207c0 -25 -20 -45 -45 -45c-15 0 -27 -12 -27 -27c0 -25 -20 -45 -45 -45h-252c-25 0 -45 20 -45 45c0 15 -12 27 -27 27c-25 0 -45 20 -45 45zM261 783v36c0 25 20 45 45 45s45 -20 45 -45v-36c0 -25 -20 -45 -45 -45s-45 20 -45 45z" />
    <glyph glyph-name="gdotaccent" unicode="&#x121;" 
d="M180 90h180c15 0 27 12 27 27v270c0 15 -12 27 -27 27h-180c-15 0 -27 -12 -27 -27v-270c0 -15 12 -27 27 -27zM144 -126h216c15 0 27 12 27 27v72c0 15 -12 27 -27 27h-180c-25 0 -45 20 -45 45c0 15 -12 27 -27 27c-25 0 -45 20 -45 45v270c0 25 20 45 45 45
c15 0 27 12 27 27c0 25 20 45 45 45h252c25 0 45 -20 45 -45v-558c0 -25 -20 -45 -45 -45c-15 0 -27 -12 -27 -27c0 -25 -20 -45 -45 -45h-216c-25 0 -45 20 -45 45s20 45 45 45zM225 639v36c0 25 20 45 45 45s45 -20 45 -45v-36c0 -25 -20 -45 -45 -45s-45 20 -45 45z" />
    <glyph glyph-name="Gcommaaccent" unicode="&#x122;" horiz-adv-x="603" 
d="M63 117v414c0 25 20 45 45 45c15 0 27 12 27 27c0 25 20 45 45 45h288c25 0 45 -20 45 -45s-20 -45 -45 -45h-288c-15 0 -27 -12 -27 -27v-414c0 -15 12 -27 27 -27h252c15 0 27 12 27 27v135c0 15 -12 27 -27 27h-108c-25 0 -45 20 -45 45s20 45 45 45h180
c25 0 45 -20 45 -45v-207c0 -25 -20 -45 -45 -45c-15 0 -27 -12 -27 -27c0 -25 -20 -45 -45 -45h-252c-25 0 -45 20 -45 45c0 15 -12 27 -27 27c-25 0 -45 20 -45 45zM207 -225v36c0 25 20 45 45 45c15 0 27 12 27 27v36c0 25 20 45 45 45s45 -20 45 -45v-36
c0 -25 -20 -45 -45 -45c-15 0 -27 -12 -27 -27v-36c0 -25 -20 -45 -45 -45s-45 20 -45 45z" />
    <glyph glyph-name="gcommaaccent" unicode="&#x123;" 
d="M180 90h180c15 0 27 12 27 27v270c0 15 -12 27 -27 27h-180c-15 0 -27 -12 -27 -27v-270c0 -15 12 -27 27 -27zM144 -126h216c15 0 27 12 27 27v72c0 15 -12 27 -27 27h-180c-25 0 -45 20 -45 45c0 15 -12 27 -27 27c-25 0 -45 20 -45 45v270c0 25 20 45 45 45
c15 0 27 12 27 27c0 25 20 45 45 45h252c25 0 45 -20 45 -45v-558c0 -25 -20 -45 -45 -45c-15 0 -27 -12 -27 -27c0 -25 -20 -45 -45 -45h-216c-25 0 -45 20 -45 45s20 45 45 45zM225 603v36c0 25 20 45 45 45c15 0 27 12 27 27v36c0 25 20 45 45 45s45 -20 45 -45v-36
c0 -25 -20 -45 -45 -45c-15 0 -27 -12 -27 -27v-36c0 -25 -20 -45 -45 -45s-45 20 -45 45z" />
    <glyph glyph-name="Hcircumflex" unicode="&#x124;" horiz-adv-x="612" 
d="M63 45v558c0 25 20 45 45 45s45 -20 45 -45v-207c0 -15 12 -27 27 -27h252c15 0 27 12 27 27v207c0 25 20 45 45 45s45 -20 45 -45v-558c0 -25 -20 -45 -45 -45s-45 20 -45 45v207c0 15 -12 27 -27 27h-252c-15 0 -27 -12 -27 -27v-207c0 -25 -20 -45 -45 -45
s-45 20 -45 45zM324 774h-36c-15 0 -27 -12 -27 -27c0 -25 -20 -45 -45 -45s-45 20 -45 45s20 45 45 45c15 0 27 12 27 27c0 25 20 45 45 45h36c25 0 45 -20 45 -45c0 -15 12 -27 27 -27c25 0 45 -20 45 -45s-20 -45 -45 -45s-45 20 -45 45c0 15 -12 27 -27 27z" />
    <glyph glyph-name="hcircumflex" unicode="&#x125;" 
d="M63 45v630c0 25 20 45 45 45s45 -20 45 -45v-144c0 -15 12 -27 27 -27h180c25 0 45 -20 45 -45c0 -15 12 -27 27 -27c25 0 45 -20 45 -45v-342c0 -25 -20 -45 -45 -45s-45 20 -45 45v342c0 15 -12 27 -27 27h-180c-15 0 -27 -12 -27 -27v-342c0 -25 -20 -45 -45 -45
s-45 20 -45 45zM288 774h-36c-15 0 -27 -12 -27 -27c0 -25 -20 -45 -45 -45s-45 20 -45 45s20 45 45 45c15 0 27 12 27 27c0 25 20 45 45 45h36c25 0 45 -20 45 -45c0 -15 12 -27 27 -27c25 0 45 -20 45 -45s-20 -45 -45 -45s-45 20 -45 45c0 15 -12 27 -27 27z" />
    <glyph glyph-name="Hbar" unicode="&#x126;" horiz-adv-x="684" 
d="M216 576h252c15 0 27 12 27 27c0 25 20 45 45 45s45 -20 45 -45c0 -15 12 -27 27 -27h18c25 0 45 -20 45 -45s-20 -45 -45 -45h-18c-15 0 -27 -12 -27 -27v-414c0 -25 -20 -45 -45 -45s-45 20 -45 45v207c0 15 -12 27 -27 27h-252c-15 0 -27 -12 -27 -27v-207
c0 -25 -20 -45 -45 -45s-45 20 -45 45v414c0 15 -12 27 -27 27h-18c-25 0 -45 20 -45 45s20 45 45 45h18c15 0 27 12 27 27c0 25 20 45 45 45s45 -20 45 -45c0 -15 12 -27 27 -27zM468 486h-252c-15 0 -27 -12 -27 -27v-63c0 -15 12 -27 27 -27h252c15 0 27 12 27 27v63
c0 15 -12 27 -27 27z" />
    <glyph glyph-name="hbar" unicode="&#x127;" horiz-adv-x="576" 
d="M189 288v-243c0 -25 -20 -45 -45 -45s-45 20 -45 45v423c0 15 -12 27 -27 27h-36c-25 0 -45 20 -45 45s20 45 45 45h36c15 0 27 12 27 27v63c0 25 20 45 45 45s45 -20 45 -45v-63c0 -15 12 -27 27 -27h36c25 0 45 -20 45 -45s-20 -45 -45 -45h-36c-15 0 -27 -12 -27 -27
v-36c0 -15 12 -27 27 -27h180c25 0 45 -20 45 -45c0 -15 12 -27 27 -27c25 0 45 -20 45 -45v-243c0 -25 -20 -45 -45 -45s-45 20 -45 45v243c0 15 -12 27 -27 27h-180c-15 0 -27 -12 -27 -27z" />
    <glyph glyph-name="Imacron" unicode="&#x12a;" horiz-adv-x="216" 
d="M63 45v558c0 25 20 45 45 45s45 -20 45 -45v-558c0 -25 -20 -45 -45 -45s-45 20 -45 45zM18 864h180c25 0 45 -20 45 -45s-20 -45 -45 -45h-180c-25 0 -45 20 -45 45s20 45 45 45z" />
    <glyph glyph-name="imacron" unicode="&#x12b;" horiz-adv-x="216" 
d="M63 45v414c0 25 20 45 45 45s45 -20 45 -45v-414c0 -25 -20 -45 -45 -45s-45 20 -45 45zM18 720h180c25 0 45 -20 45 -45s-20 -45 -45 -45h-180c-25 0 -45 20 -45 45s20 45 45 45z" />
    <glyph glyph-name="Iogonek" unicode="&#x12e;" horiz-adv-x="216" 
d="M63 45v558c0 25 20 45 45 45s45 -20 45 -45v-558c0 -25 -20 -45 -45 -45s-45 20 -45 45zM171 -153v-36c0 -25 -20 -45 -45 -45s-45 20 -45 45v36c0 15 -12 27 -27 27c-25 0 -45 20 -45 45v36c0 25 20 45 45 45s45 -20 45 -45v-36c0 -15 12 -27 27 -27c25 0 45 -20 45 -45
z" />
    <glyph glyph-name="iogonek" unicode="&#x12f;" horiz-adv-x="216" 
d="M63 639v36c0 25 20 45 45 45s45 -20 45 -45v-36c0 -25 -20 -45 -45 -45s-45 20 -45 45zM63 45v414c0 25 20 45 45 45s45 -20 45 -45v-414c0 -25 -20 -45 -45 -45s-45 20 -45 45zM171 -153v-36c0 -25 -20 -45 -45 -45s-45 20 -45 45v36c0 15 -12 27 -27 27
c-25 0 -45 20 -45 45v36c0 25 20 45 45 45s45 -20 45 -45v-36c0 -15 12 -27 27 -27c25 0 45 -20 45 -45z" />
    <glyph glyph-name="Idotaccent" unicode="&#x130;" horiz-adv-x="216" 
d="M63 45v558c0 25 20 45 45 45s45 -20 45 -45v-558c0 -25 -20 -45 -45 -45s-45 20 -45 45zM63 783v36c0 25 20 45 45 45s45 -20 45 -45v-36c0 -25 -20 -45 -45 -45s-45 20 -45 45z" />
    <glyph glyph-name="dotlessi" unicode="&#x131;" horiz-adv-x="216" 
d="M63 45v414c0 25 20 45 45 45s45 -20 45 -45v-414c0 -25 -20 -45 -45 -45s-45 20 -45 45z" />
    <glyph glyph-name="Jcircumflex" unicode="&#x134;" horiz-adv-x="378" 
d="M54 90h144c15 0 27 12 27 27v486c0 25 20 45 45 45s45 -20 45 -45v-486c0 -25 -20 -45 -45 -45c-15 0 -27 -12 -27 -27c0 -25 -20 -45 -45 -45h-144c-25 0 -45 20 -45 45s20 45 45 45zM288 774h-36c-15 0 -27 -12 -27 -27c0 -25 -20 -45 -45 -45s-45 20 -45 45
s20 45 45 45c15 0 27 12 27 27c0 25 20 45 45 45h36c25 0 45 -20 45 -45c0 -15 12 -27 27 -27c25 0 45 -20 45 -45s-20 -45 -45 -45s-45 20 -45 45c0 15 -12 27 -27 27z" />
    <glyph glyph-name="jcircumflex" unicode="&#x135;" horiz-adv-x="216" 
d="M63 -171v630c0 25 20 45 45 45s45 -20 45 -45v-630c0 -25 -20 -45 -45 -45s-45 20 -45 45zM126 630h-36c-15 0 -27 -12 -27 -27c0 -25 -20 -45 -45 -45s-45 20 -45 45s20 45 45 45c15 0 27 12 27 27c0 25 20 45 45 45h36c25 0 45 -20 45 -45c0 -15 12 -27 27 -27
c25 0 45 -20 45 -45s-20 -45 -45 -45s-45 20 -45 45c0 15 -12 27 -27 27z" />
    <glyph glyph-name="Kcommaaccent" unicode="&#x136;" horiz-adv-x="585" 
d="M459 414v-180c0 -15 12 -27 27 -27c25 0 45 -20 45 -45v-117c0 -25 -20 -45 -45 -45s-45 20 -45 45v117c0 15 -12 27 -27 27c-25 0 -45 20 -45 45v18c0 15 -12 27 -27 27h-162c-15 0 -27 -12 -27 -27v-207c0 -25 -20 -45 -45 -45s-45 20 -45 45v558c0 25 20 45 45 45
s45 -20 45 -45v-207c0 -15 12 -27 27 -27h162c15 0 27 12 27 27v18c0 25 20 45 45 45c15 0 27 12 27 27v117c0 25 20 45 45 45s45 -20 45 -45v-117c0 -25 -20 -45 -45 -45c-15 0 -27 -12 -27 -27zM180 -225v36c0 25 20 45 45 45c15 0 27 12 27 27v36c0 25 20 45 45 45
s45 -20 45 -45v-36c0 -25 -20 -45 -45 -45c-15 0 -27 -12 -27 -27v-36c0 -25 -20 -45 -45 -45s-45 20 -45 45z" />
    <glyph glyph-name="kcommaaccent" unicode="&#x137;" horiz-adv-x="495" 
d="M369 324v-144c0 -15 12 -27 27 -27c25 0 45 -20 45 -45v-63c0 -25 -20 -45 -45 -45s-45 20 -45 45v63c0 15 -12 27 -27 27c-25 0 -45 20 -45 45c0 15 -12 27 -27 27h-72c-15 0 -27 -12 -27 -27v-135c0 -25 -20 -45 -45 -45s-45 20 -45 45v630c0 25 20 45 45 45
s45 -20 45 -45v-351c0 -15 12 -27 27 -27h72c15 0 27 12 27 27c0 25 20 45 45 45c15 0 27 12 27 27v63c0 25 20 45 45 45s45 -20 45 -45v-63c0 -25 -20 -45 -45 -45c-15 0 -27 -12 -27 -27zM135 -225v36c0 25 20 45 45 45c15 0 27 12 27 27v36c0 25 20 45 45 45
s45 -20 45 -45v-36c0 -25 -20 -45 -45 -45c-15 0 -27 -12 -27 -27v-36c0 -25 -20 -45 -45 -45s-45 20 -45 45z" />
    <glyph glyph-name="Lacute" unicode="&#x139;" horiz-adv-x="450" 
d="M63 45v558c0 25 20 45 45 45s45 -20 45 -45v-486c0 -15 12 -27 27 -27h216c25 0 45 -20 45 -45s-20 -45 -45 -45h-288c-25 0 -45 20 -45 45zM279 819c0 -25 -20 -45 -45 -45h-54c-15 0 -27 -12 -27 -27c0 -25 -20 -45 -45 -45h-54c-25 0 -45 20 -45 45s20 45 45 45h54
c15 0 27 12 27 27c0 25 20 45 45 45h54c25 0 45 -20 45 -45z" />
    <glyph glyph-name="lacute" unicode="&#x13a;" horiz-adv-x="216" 
d="M279 819c0 -25 -20 -45 -45 -45h-54c-15 0 -27 -12 -27 -27s-7 -28 -18 -36c11 -8 18 -22 18 -36v-630c0 -25 -20 -45 -45 -45s-45 20 -45 45v630c0 10 3 19 8 27h-17c-25 0 -45 20 -45 45s20 45 45 45h54c15 0 27 12 27 27c0 25 20 45 45 45h54c25 0 45 -20 45 -45z" />
    <glyph glyph-name="Lcommaaccent" unicode="&#x13b;" horiz-adv-x="450" 
d="M63 45v558c0 25 20 45 45 45s45 -20 45 -45v-486c0 -15 12 -27 27 -27h216c25 0 45 -20 45 -45s-20 -45 -45 -45h-288c-25 0 -45 20 -45 45zM153 -225v36c0 25 20 45 45 45c15 0 27 12 27 27v36c0 25 20 45 45 45s45 -20 45 -45v-36c0 -25 -20 -45 -45 -45
c-15 0 -27 -12 -27 -27v-36c0 -25 -20 -45 -45 -45s-45 20 -45 45z" />
    <glyph glyph-name="lcommaaccent" unicode="&#x13c;" horiz-adv-x="216" 
d="M63 45v630c0 25 20 45 45 45s45 -20 45 -45v-630c0 -25 -20 -45 -45 -45s-45 20 -45 45zM9 -225v36c0 25 20 45 45 45c15 0 27 12 27 27v36c0 25 20 45 45 45s45 -20 45 -45v-36c0 -25 -20 -45 -45 -45c-15 0 -27 -12 -27 -27v-36c0 -25 -20 -45 -45 -45s-45 20 -45 45z
" />
    <glyph glyph-name="Lcaron" unicode="&#x13d;" horiz-adv-x="450" 
d="M63 45v558c0 25 20 45 45 45s45 -20 45 -45v-486c0 -15 12 -27 27 -27h216c25 0 45 -20 45 -45s-20 -45 -45 -45h-288c-25 0 -45 20 -45 45zM243 459v144c0 25 20 45 45 45s45 -20 45 -45v-144c0 -25 -20 -45 -45 -45s-45 20 -45 45z" />
    <glyph glyph-name="lcaron" unicode="&#x13e;" horiz-adv-x="324" 
d="M63 45v630c0 25 20 45 45 45s45 -20 45 -45v-630c0 -25 -20 -45 -45 -45s-45 20 -45 45zM207 531v144c0 25 20 45 45 45s45 -20 45 -45v-144c0 -25 -20 -45 -45 -45s-45 20 -45 45z" />
    <glyph glyph-name="Lslash" unicode="&#x141;" horiz-adv-x="477" 
d="M189 603v-207c0 -15 12 -27 27 -27h36c25 0 45 -20 45 -45s-20 -45 -45 -45h-36c-15 0 -27 -12 -27 -27v-135c0 -15 12 -27 27 -27h216c25 0 45 -20 45 -45s-20 -45 -45 -45h-288c-25 0 -45 20 -45 45v207c0 15 -12 27 -27 27h-36c-25 0 -45 20 -45 45s20 45 45 45h36
c15 0 27 12 27 27v207c0 25 20 45 45 45s45 -20 45 -45z" />
    <glyph glyph-name="lslash" unicode="&#x142;" horiz-adv-x="288" 
d="M189 252v-207c0 -25 -20 -45 -45 -45s-45 20 -45 45v207c0 15 -12 27 -27 27h-36c-25 0 -45 20 -45 45s20 45 45 45h36c15 0 27 12 27 27v279c0 25 20 45 45 45s45 -20 45 -45v-279c0 -15 12 -27 27 -27h36c25 0 45 -20 45 -45s-20 -45 -45 -45h-36
c-15 0 -27 -12 -27 -27z" />
    <glyph glyph-name="Nacute" unicode="&#x143;" horiz-adv-x="594" 
d="M531 531v-486c0 -25 -20 -45 -45 -45s-45 20 -45 45v486c0 15 -12 27 -27 27h-234c-15 0 -27 -12 -27 -27v-486c0 -25 -20 -45 -45 -45s-45 20 -45 45v486c0 25 20 45 45 45c15 0 27 12 27 27c0 25 20 45 45 45h234c25 0 45 -20 45 -45c0 -15 12 -27 27 -27
c25 0 45 -20 45 -45zM432 819c0 -25 -20 -45 -45 -45h-54c-15 0 -27 -12 -27 -27c0 -25 -20 -45 -45 -45h-54c-25 0 -45 20 -45 45s20 45 45 45h54c15 0 27 12 27 27c0 25 20 45 45 45h54c25 0 45 -20 45 -45z" />
    <glyph glyph-name="nacute" unicode="&#x144;" 
d="M63 45v414c0 25 20 45 45 45h252c25 0 45 -20 45 -45c0 -15 12 -27 27 -27c25 0 45 -20 45 -45v-342c0 -25 -20 -45 -45 -45s-45 20 -45 45v342c0 15 -12 27 -27 27h-180c-15 0 -27 -12 -27 -27v-342c0 -25 -20 -45 -45 -45s-45 20 -45 45zM405 675
c0 -25 -20 -45 -45 -45h-54c-15 0 -27 -12 -27 -27c0 -25 -20 -45 -45 -45h-54c-25 0 -45 20 -45 45s20 45 45 45h54c15 0 27 12 27 27c0 25 20 45 45 45h54c25 0 45 -20 45 -45z" />
    <glyph glyph-name="Ncommaaccent" unicode="&#x145;" horiz-adv-x="594" 
d="M531 531v-486c0 -25 -20 -45 -45 -45s-45 20 -45 45v486c0 15 -12 27 -27 27h-234c-15 0 -27 -12 -27 -27v-486c0 -25 -20 -45 -45 -45s-45 20 -45 45v486c0 25 20 45 45 45c15 0 27 12 27 27c0 25 20 45 45 45h234c25 0 45 -20 45 -45c0 -15 12 -27 27 -27
c25 0 45 -20 45 -45zM189 -225v36c0 25 20 45 45 45c15 0 27 12 27 27v36c0 25 20 45 45 45s45 -20 45 -45v-36c0 -25 -20 -45 -45 -45c-15 0 -27 -12 -27 -27v-36c0 -25 -20 -45 -45 -45s-45 20 -45 45z" />
    <glyph glyph-name="ncommaaccent" unicode="&#x146;" 
d="M63 45v414c0 25 20 45 45 45h252c25 0 45 -20 45 -45c0 -15 12 -27 27 -27c25 0 45 -20 45 -45v-342c0 -25 -20 -45 -45 -45s-45 20 -45 45v342c0 15 -12 27 -27 27h-180c-15 0 -27 -12 -27 -27v-342c0 -25 -20 -45 -45 -45s-45 20 -45 45zM153 -225v36c0 25 20 45 45 45
c15 0 27 12 27 27v36c0 25 20 45 45 45s45 -20 45 -45v-36c0 -25 -20 -45 -45 -45c-15 0 -27 -12 -27 -27v-36c0 -25 -20 -45 -45 -45s-45 20 -45 45z" />
    <glyph glyph-name="Ncaron" unicode="&#x147;" horiz-adv-x="594" 
d="M531 531v-486c0 -25 -20 -45 -45 -45s-45 20 -45 45v486c0 15 -12 27 -27 27h-234c-15 0 -27 -12 -27 -27v-486c0 -25 -20 -45 -45 -45s-45 20 -45 45v486c0 25 20 45 45 45c15 0 27 12 27 27c0 25 20 45 45 45h234c25 0 45 -20 45 -45c0 -15 12 -27 27 -27
c25 0 45 -20 45 -45zM279 792h36c15 0 27 12 27 27c0 25 20 45 45 45s45 -20 45 -45s-20 -45 -45 -45c-15 0 -27 -12 -27 -27c0 -25 -20 -45 -45 -45h-36c-25 0 -45 20 -45 45c0 15 -12 27 -27 27c-25 0 -45 20 -45 45s20 45 45 45s45 -20 45 -45c0 -15 12 -27 27 -27z" />
    <glyph glyph-name="ncaron" unicode="&#x148;" 
d="M63 45v414c0 25 20 45 45 45h252c25 0 45 -20 45 -45c0 -15 12 -27 27 -27c25 0 45 -20 45 -45v-342c0 -25 -20 -45 -45 -45s-45 20 -45 45v342c0 15 -12 27 -27 27h-180c-15 0 -27 -12 -27 -27v-342c0 -25 -20 -45 -45 -45s-45 20 -45 45zM252 648h36c15 0 27 12 27 27
c0 25 20 45 45 45s45 -20 45 -45s-20 -45 -45 -45c-15 0 -27 -12 -27 -27c0 -25 -20 -45 -45 -45h-36c-25 0 -45 20 -45 45c0 15 -12 27 -27 27c-25 0 -45 20 -45 45s20 45 45 45s45 -20 45 -45c0 -15 12 -27 27 -27z" />
    <glyph glyph-name="Omacron" unicode="&#x14c;" horiz-adv-x="648" 
d="M63 117v414c0 25 20 45 45 45c15 0 27 12 27 27c0 25 20 45 45 45h288c25 0 45 -20 45 -45c0 -15 12 -27 27 -27c25 0 45 -20 45 -45v-414c0 -25 -20 -45 -45 -45c-15 0 -27 -12 -27 -27c0 -25 -20 -45 -45 -45h-288c-25 0 -45 20 -45 45c0 15 -12 27 -27 27
c-25 0 -45 20 -45 45zM180 90h288c15 0 27 12 27 27v414c0 15 -12 27 -27 27h-288c-15 0 -27 -12 -27 -27v-414c0 -15 12 -27 27 -27zM234 864h180c25 0 45 -20 45 -45s-20 -45 -45 -45h-180c-25 0 -45 20 -45 45s20 45 45 45z" />
    <glyph glyph-name="omacron" unicode="&#x14d;" 
d="M63 117v270c0 25 20 45 45 45c15 0 27 12 27 27c0 25 20 45 45 45h180c25 0 45 -20 45 -45c0 -15 12 -27 27 -27c25 0 45 -20 45 -45v-270c0 -25 -20 -45 -45 -45c-15 0 -27 -12 -27 -27c0 -25 -20 -45 -45 -45h-180c-25 0 -45 20 -45 45c0 15 -12 27 -27 27
c-25 0 -45 20 -45 45zM180 90h180c15 0 27 12 27 27v270c0 15 -12 27 -27 27h-180c-15 0 -27 -12 -27 -27v-270c0 -15 12 -27 27 -27zM180 720h180c25 0 45 -20 45 -45s-20 -45 -45 -45h-180c-25 0 -45 20 -45 45s20 45 45 45z" />
    <glyph glyph-name="Ohungarumlaut" unicode="&#x150;" horiz-adv-x="648" 
d="M63 117v414c0 25 20 45 45 45c15 0 27 12 27 27c0 25 20 45 45 45h288c25 0 45 -20 45 -45c0 -15 12 -27 27 -27c25 0 45 -20 45 -45v-414c0 -25 -20 -45 -45 -45c-15 0 -27 -12 -27 -27c0 -25 -20 -45 -45 -45h-288c-25 0 -45 20 -45 45c0 15 -12 27 -27 27
c-25 0 -45 20 -45 45zM180 90h288c15 0 27 12 27 27v414c0 15 -12 27 -27 27h-288c-15 0 -27 -12 -27 -27v-414c0 -15 12 -27 27 -27zM297 774c-15 0 -27 -12 -27 -27c0 -25 -20 -45 -45 -45s-45 20 -45 45s20 45 45 45c15 0 27 12 27 27c0 25 20 45 45 45s45 -20 45 -45
s-20 -45 -45 -45zM360 747c0 25 20 45 45 45c15 0 27 12 27 27c0 25 20 45 45 45s45 -20 45 -45s-20 -45 -45 -45c-15 0 -27 -12 -27 -27c0 -25 -20 -45 -45 -45s-45 20 -45 45z" />
    <glyph glyph-name="ohungarumlaut" unicode="&#x151;" 
d="M63 117v270c0 25 20 45 45 45c15 0 27 12 27 27c0 25 20 45 45 45h180c25 0 45 -20 45 -45c0 -15 12 -27 27 -27c25 0 45 -20 45 -45v-270c0 -25 -20 -45 -45 -45c-15 0 -27 -12 -27 -27c0 -25 -20 -45 -45 -45h-180c-25 0 -45 20 -45 45c0 15 -12 27 -27 27
c-25 0 -45 20 -45 45zM180 90h180c15 0 27 12 27 27v270c0 15 -12 27 -27 27h-180c-15 0 -27 -12 -27 -27v-270c0 -15 12 -27 27 -27zM234 630c-15 0 -27 -12 -27 -27c0 -25 -20 -45 -45 -45s-45 20 -45 45s20 45 45 45c15 0 27 12 27 27c0 25 20 45 45 45s45 -20 45 -45
s-20 -45 -45 -45zM297 603c0 25 20 45 45 45c15 0 27 12 27 27c0 25 20 45 45 45s45 -20 45 -45s-20 -45 -45 -45c-15 0 -27 -12 -27 -27c0 -25 -20 -45 -45 -45s-45 20 -45 45z" />
    <glyph glyph-name="OE" unicode="&#x152;" horiz-adv-x="864" 
d="M180 90h252c15 0 27 12 27 27v414c0 15 -12 27 -27 27h-252c-15 0 -27 -12 -27 -27v-414c0 -15 12 -26 27 -27zM792 0h-612c-25 0 -45 20 -45 45c0 15 -12 27 -27 27c-25 0 -45 20 -45 45v414c0 25 20 45 45 45c15 0 27 12 27 27c0 25 20 45 45 45h612
c25 0 45 -20 45 -45s-20 -45 -45 -45h-216c-15 0 -27 -12 -27 -27v-135c0 -15 12 -27 27 -27h180c25 0 45 -20 45 -45s-20 -45 -45 -45h-180c-15 0 -27 -12 -27 -27v-135c0 -15 12 -27 27 -27h216c25 0 45 -20 45 -45s-20 -45 -45 -45z" />
    <glyph glyph-name="oe" unicode="&#x153;" horiz-adv-x="846" 
d="M432 432c15 0 27 12 27 27c0 25 20 45 45 45h180c25 0 45 -20 45 -45c0 -15 12 -27 27 -27c25 0 45 -20 45 -45v-63c0 -25 -20 -45 -45 -45c-15 0 -27 -12 -27 -27c0 -25 -20 -45 -45 -45h-180c-15 0 -27 -12 -27 -27v-63c0 -15 12 -27 27 -27h216c25 0 45 -20 45 -45
s-20 -45 -45 -45h-216c-25 0 -45 20 -45 45c0 15 -12 27 -27 27s-27 -12 -27 -27c0 -25 -20 -45 -45 -45h-180c-25 0 -45 20 -45 45c0 15 -12 27 -27 27c-25 0 -45 20 -45 45v270c0 25 20 45 45 45c15 0 27 12 27 27c0 25 20 45 45 45h180c25 0 45 -20 45 -45
c0 -15 12 -27 27 -27zM180 90h180c15 0 27 12 27 27v270c0 15 -12 27 -27 27h-180c-15 0 -27 -12 -27 -27v-270c0 -15 12 -27 27 -27zM504 297h180c15 0 27 12 27 27v63c0 15 -12 27 -27 27h-180c-15 0 -27 -12 -27 -27v-64c0 -14 12 -26 27 -26z" />
    <glyph glyph-name="Racute" unicode="&#x154;" horiz-adv-x="612" 
d="M180 369h252c15 0 27 12 27 27v135c0 15 -12 27 -27 27h-252c-15 0 -27 -12 -27 -27v-135c0 -15 12 -27 27 -27zM63 45v558c0 25 20 45 45 45h324c25 0 45 -20 45 -45c0 -15 12 -27 27 -27c25 0 45 -20 45 -45v-135c0 -25 -20 -45 -45 -45c-15 0 -27 -12 -27 -27
s12 -27 27 -27c25 0 45 -20 45 -45v-207c0 -25 -20 -45 -45 -45s-45 20 -45 45v207c0 15 -12 27 -27 27h-252c-15 0 -27 -12 -27 -27v-207c0 -25 -20 -45 -45 -45s-45 20 -45 45zM432 819c0 -25 -20 -45 -45 -45h-54c-15 0 -27 -12 -27 -27c0 -25 -20 -45 -45 -45h-54
c-25 0 -45 20 -45 45s20 45 45 45h54c15 0 27 12 27 27c0 25 20 45 45 45h54c25 0 45 -20 45 -45z" />
    <glyph glyph-name="racute" unicode="&#x155;" horiz-adv-x="369" 
d="M63 45v342c0 25 20 45 45 45c15 0 27 12 27 27c0 25 20 45 45 45h144c25 0 45 -20 45 -45s-20 -45 -45 -45h-144c-15 0 -27 -12 -27 -27v-342c0 -25 -20 -45 -45 -45s-45 20 -45 45zM342 675c0 -25 -20 -45 -45 -45h-54c-15 0 -27 -12 -27 -27c0 -25 -20 -45 -45 -45h-54
c-25 0 -45 20 -45 45s20 45 45 45h54c15 0 27 12 27 27c0 25 20 45 45 45h54c25 0 45 -20 45 -45z" />
    <glyph glyph-name="Rcommaaccent" unicode="&#x156;" horiz-adv-x="612" 
d="M180 369h252c15 0 27 12 27 27v135c0 15 -12 27 -27 27h-252c-15 0 -27 -12 -27 -27v-135c0 -15 12 -27 27 -27zM63 45v558c0 25 20 45 45 45h324c25 0 45 -20 45 -45c0 -15 12 -27 27 -27c25 0 45 -20 45 -45v-135c0 -25 -20 -45 -45 -45c-15 0 -27 -12 -27 -27
s12 -27 27 -27c25 0 45 -20 45 -45v-207c0 -25 -20 -45 -45 -45s-45 20 -45 45v207c0 15 -12 27 -27 27h-252c-15 0 -27 -12 -27 -27v-207c0 -25 -20 -45 -45 -45s-45 20 -45 45zM189 -225v36c0 25 20 45 45 45c15 0 27 12 27 27v36c0 25 20 45 45 45s45 -20 45 -45v-36
c0 -25 -20 -45 -45 -45c-15 0 -27 -12 -27 -27v-36c0 -25 -20 -45 -45 -45s-45 20 -45 45z" />
    <glyph glyph-name="rcommaaccent" unicode="&#x157;" horiz-adv-x="369" 
d="M63 45v342c0 25 20 45 45 45c15 0 27 12 27 27c0 25 20 45 45 45h144c25 0 45 -20 45 -45s-20 -45 -45 -45h-144c-15 0 -27 -12 -27 -27v-342c0 -25 -20 -45 -45 -45s-45 20 -45 45zM18 -225v36c0 25 20 45 45 45c15 0 27 12 27 27v36c0 25 20 45 45 45s45 -20 45 -45
v-36c0 -25 -20 -45 -45 -45c-15 0 -27 -12 -27 -27v-36c0 -25 -20 -45 -45 -45s-45 20 -45 45z" />
    <glyph glyph-name="Rcaron" unicode="&#x158;" horiz-adv-x="612" 
d="M180 369h252c15 0 27 12 27 27v135c0 15 -12 27 -27 27h-252c-15 0 -27 -12 -27 -27v-135c0 -15 12 -27 27 -27zM63 45v558c0 25 20 45 45 45h324c25 0 45 -20 45 -45c0 -15 12 -27 27 -27c25 0 45 -20 45 -45v-135c0 -25 -20 -45 -45 -45c-15 0 -27 -12 -27 -27
s12 -27 27 -27c25 0 45 -20 45 -45v-207c0 -25 -20 -45 -45 -45s-45 20 -45 45v207c0 15 -12 27 -27 27h-252c-15 0 -27 -12 -27 -27v-207c0 -25 -20 -45 -45 -45s-45 20 -45 45zM279 792h36c15 0 27 12 27 27c0 25 20 45 45 45s45 -20 45 -45s-20 -45 -45 -45
c-15 0 -27 -12 -27 -27c0 -25 -20 -45 -45 -45h-36c-25 0 -45 20 -45 45c0 15 -12 27 -27 27c-25 0 -45 20 -45 45s20 45 45 45s45 -20 45 -45c0 -15 12 -27 27 -27z" />
    <glyph glyph-name="rcaron" unicode="&#x159;" horiz-adv-x="369" 
d="M63 45v342c0 25 20 45 45 45c15 0 27 12 27 27c0 25 20 45 45 45h144c25 0 45 -20 45 -45s-20 -45 -45 -45h-144c-15 0 -27 -12 -27 -27v-342c0 -25 -20 -45 -45 -45s-45 20 -45 45zM180 648h36c15 0 27 12 27 27c0 25 20 45 45 45s45 -20 45 -45s-20 -45 -45 -45
c-15 0 -27 -12 -27 -27c0 -25 -20 -45 -45 -45h-36c-25 0 -45 20 -45 45c0 15 -12 27 -27 27c-25 0 -45 20 -45 45s20 45 45 45s45 -20 45 -45c0 -15 12 -27 27 -27z" />
    <glyph glyph-name="Sacute" unicode="&#x15a;" 
d="M126 90h252c15 0 27 12 27 27v135c0 15 -12 27 -27 27h-216c-25 0 -45 20 -45 45c0 15 -12 27 -27 27c-25 0 -45 20 -45 45v135c0 25 20 45 45 45c15 0 27 12 27 27c0 25 20 45 45 45h252c25 0 45 -20 45 -45s-20 -45 -45 -45h-252c-15 0 -27 -12 -27 -27v-135
c0 -15 12 -27 27 -27h216c25 0 45 -20 45 -45c0 -15 12 -27 27 -27c25 0 45 -20 45 -45v-135c0 -25 -20 -45 -45 -45c-15 0 -27 -12 -27 -27c0 -25 -20 -45 -45 -45h-252c-25 0 -45 20 -45 45s20 45 45 45zM405 819c0 -25 -20 -45 -45 -45h-54c-15 0 -27 -12 -27 -27
c0 -25 -20 -45 -45 -45h-54c-25 0 -45 20 -45 45s20 45 45 45h54c15 0 27 12 27 27c0 25 20 45 45 45h54c25 0 45 -20 45 -45z" />
    <glyph glyph-name="sacute" unicode="&#x15b;" horiz-adv-x="468" 
d="M126 90h180c15 0 27 12 27 27v63c0 15 -12 27 -27 27h-144c-25 0 -45 20 -45 45c0 15 -12 27 -27 27c-25 0 -45 20 -45 45v63c0 25 20 45 45 45c15 0 27 12 27 27c0 25 20 45 45 45h180c25 0 45 -20 45 -45s-20 -45 -45 -45h-180c-15 0 -27 -12 -27 -27v-63
c0 -15 12 -27 27 -27h144c25 0 45 -20 45 -45c0 -15 12 -27 27 -27c25 0 45 -20 45 -45v-63c0 -25 -20 -45 -45 -45c-15 0 -27 -12 -27 -27c0 -25 -20 -45 -45 -45h-180c-25 0 -45 20 -45 45s20 45 45 45zM369 675c0 -25 -20 -45 -45 -45h-54c-15 0 -27 -12 -27 -27
c0 -25 -20 -45 -45 -45h-54c-25 0 -45 20 -45 45s20 45 45 45h54c15 0 27 12 27 27c0 25 20 45 45 45h54c25 0 45 -20 45 -45z" />
    <glyph glyph-name="Scircumflex" unicode="&#x15c;" 
d="M126 90h252c15 0 27 12 27 27v135c0 15 -12 27 -27 27h-216c-25 0 -45 20 -45 45c0 15 -12 27 -27 27c-25 0 -45 20 -45 45v135c0 25 20 45 45 45c15 0 27 12 27 27c0 25 20 45 45 45h252c25 0 45 -20 45 -45s-20 -45 -45 -45h-252c-15 0 -27 -12 -27 -27v-135
c0 -15 12 -27 27 -27h216c25 0 45 -20 45 -45c0 -15 12 -27 27 -27c25 0 45 -20 45 -45v-135c0 -25 -20 -45 -45 -45c-15 0 -27 -12 -27 -27c0 -25 -20 -45 -45 -45h-252c-25 0 -45 20 -45 45s20 45 45 45zM288 774h-36c-15 0 -27 -12 -27 -27c0 -25 -20 -45 -45 -45
s-45 20 -45 45s20 45 45 45c15 0 27 12 27 27c0 25 20 45 45 45h36c25 0 45 -20 45 -45c0 -15 12 -27 27 -27c25 0 45 -20 45 -45s-20 -45 -45 -45s-45 20 -45 45c0 15 -12 27 -27 27z" />
    <glyph glyph-name="scircumflex" unicode="&#x15d;" horiz-adv-x="468" 
d="M126 90h180c15 0 27 12 27 27v63c0 15 -12 27 -27 27h-144c-25 0 -45 20 -45 45c0 15 -12 27 -27 27c-25 0 -45 20 -45 45v63c0 25 20 45 45 45c15 0 27 12 27 27c0 25 20 45 45 45h180c25 0 45 -20 45 -45s-20 -45 -45 -45h-180c-15 0 -27 -12 -27 -27v-63
c0 -15 12 -27 27 -27h144c25 0 45 -20 45 -45c0 -15 12 -27 27 -27c25 0 45 -20 45 -45v-63c0 -25 -20 -45 -45 -45c-15 0 -27 -12 -27 -27c0 -25 -20 -45 -45 -45h-180c-25 0 -45 20 -45 45s20 45 45 45zM252 630h-36c-15 0 -27 -12 -27 -27c0 -25 -20 -45 -45 -45
s-45 20 -45 45s20 45 45 45c15 0 27 12 27 27c0 25 20 45 45 45h36c25 0 45 -20 45 -45c0 -15 12 -27 27 -27c25 0 45 -20 45 -45s-20 -45 -45 -45s-45 20 -45 45c0 15 -12 27 -27 27z" />
    <glyph glyph-name="Scedilla" unicode="&#x15e;" 
d="M198 0h-72c-25 0 -45 20 -45 45s20 45 45 45h252c15 0 27 12 27 27v135c0 15 -12 27 -27 27h-216c-25 0 -45 20 -45 45c0 15 -12 27 -27 27c-25 0 -45 20 -45 45v135c0 25 20 45 45 45c15 0 27 12 27 27c0 25 20 45 45 45h252c25 0 45 -20 45 -45s-20 -45 -45 -45h-252
c-15 0 -27 -12 -27 -27v-135c0 -15 12 -27 27 -27h216c25 0 45 -20 45 -45c0 -15 12 -27 27 -27c25 0 45 -20 45 -45v-135c0 -25 -20 -45 -45 -45c-15 0 -27 -12 -27 -27c0 -25 -20 -45 -45 -45h-36c-15 0 -27 -12 -27 -27v-36c0 -25 -20 -45 -45 -45s-45 20 -45 45v36
c0 15 -12 27 -27 27z" />
    <glyph glyph-name="scedilla" unicode="&#x15f;" horiz-adv-x="468" 
d="M162 0h-36c-25 0 -45 20 -45 45s20 45 45 45h180c15 0 27 12 27 27v63c0 15 -12 27 -27 27h-144c-25 0 -45 20 -45 45c0 15 -12 27 -27 27c-25 0 -45 20 -45 45v63c0 25 20 45 45 45c15 0 27 12 27 27c0 25 20 45 45 45h180c25 0 45 -20 45 -45s-20 -45 -45 -45h-180
c-15 0 -27 -12 -27 -27v-63c0 -15 12 -27 27 -27h144c25 0 45 -20 45 -45c0 -15 12 -27 27 -27c25 0 45 -20 45 -45v-63c0 -25 -20 -45 -45 -45c-15 0 -27 -12 -27 -27c0 -25 -20 -45 -45 -45c-15 0 -27 -12 -27 -27v-36c0 -25 -20 -45 -45 -45s-45 20 -45 45v36
c0 15 -12 27 -27 27z" />
    <glyph glyph-name="Scaron" unicode="&#x160;" 
d="M126 90h252c15 0 27 12 27 27v135c0 15 -12 27 -27 27h-216c-25 0 -45 20 -45 45c0 15 -12 27 -27 27c-25 0 -45 20 -45 45v135c0 25 20 45 45 45c15 0 27 12 27 27c0 25 20 45 45 45h252c25 0 45 -20 45 -45s-20 -45 -45 -45h-252c-15 0 -27 -12 -27 -27v-135
c0 -15 12 -27 27 -27h216c25 0 45 -20 45 -45c0 -15 12 -27 27 -27c25 0 45 -20 45 -45v-135c0 -25 -20 -45 -45 -45c-15 0 -27 -12 -27 -27c0 -25 -20 -45 -45 -45h-252c-25 0 -45 20 -45 45s20 45 45 45zM252 792h36c15 0 27 12 27 27c0 25 20 45 45 45s45 -20 45 -45
s-20 -45 -45 -45c-15 0 -27 -12 -27 -27c0 -25 -20 -45 -45 -45h-36c-25 0 -45 20 -45 45c0 15 -12 27 -27 27c-25 0 -45 20 -45 45s20 45 45 45s45 -20 45 -45c0 -15 12 -27 27 -27z" />
    <glyph glyph-name="scaron" unicode="&#x161;" horiz-adv-x="468" 
d="M126 90h180c15 0 27 12 27 27v63c0 15 -12 27 -27 27h-144c-25 0 -45 20 -45 45c0 15 -12 27 -27 27c-25 0 -45 20 -45 45v63c0 25 20 45 45 45c15 0 27 12 27 27c0 25 20 45 45 45h180c25 0 45 -20 45 -45s-20 -45 -45 -45h-180c-15 0 -27 -12 -27 -27v-63
c0 -15 12 -27 27 -27h144c25 0 45 -20 45 -45c0 -15 12 -27 27 -27c25 0 45 -20 45 -45v-63c0 -25 -20 -45 -45 -45c-15 0 -27 -12 -27 -27c0 -25 -20 -45 -45 -45h-180c-25 0 -45 20 -45 45s20 45 45 45zM216 648h36c15 0 27 12 27 27c0 25 20 45 45 45s45 -20 45 -45
s-20 -45 -45 -45c-15 0 -27 -12 -27 -27c0 -25 -20 -45 -45 -45h-36c-25 0 -45 20 -45 45c0 15 -12 27 -27 27c-25 0 -45 20 -45 45s20 45 45 45s45 -20 45 -45c0 -15 12 -27 27 -27z" />
    <glyph glyph-name="Tcommaaccent" unicode="&#x162;" horiz-adv-x="504" 
d="M207 45v486c0 15 -12 27 -27 27h-126c-25 0 -45 20 -45 45s20 45 45 45h396c25 0 45 -20 45 -45s-20 -45 -45 -45h-126c-15 0 -27 -12 -27 -27v-486c0 -18 -10 -33 -25 -41c15 -7 25 -22 25 -40v-27c0 -25 -20 -45 -45 -45s-45 20 -45 45v27c0 18 10 33 25 40
c-15 8 -25 23 -25 41z" />
    <glyph glyph-name="tcommaaccent" unicode="&#x163;" horiz-adv-x="396" 
d="M117 117v270c0 15 -12 27 -27 27h-36c-25 0 -45 20 -45 45s20 45 45 45h36c15 0 27 12 27 27v72c0 25 20 45 45 45s45 -20 45 -45v-72c0 -15 12 -27 27 -27h108c25 0 45 -20 45 -45s-20 -45 -45 -45h-108c-15 0 -27 -12 -27 -27v-270c0 -15 12 -27 27 -27h108
c25 0 45 -20 45 -45s-20 -45 -45 -45h-81c11 -8 18 -21 18 -36v-27c0 -25 -20 -45 -45 -45s-45 20 -45 45v27c0 18 10 33 25 40c-15 8 -25 23 -25 41c0 15 -12 27 -27 27c-25 0 -45 20 -45 45z" />
    <glyph glyph-name="Tcaron" unicode="&#x164;" horiz-adv-x="504" 
d="M207 45v486c0 15 -12 27 -27 27h-126c-25 0 -45 20 -45 45s20 45 45 45h396c25 0 45 -20 45 -45s-20 -45 -45 -45h-126c-15 0 -27 -12 -27 -27v-486c0 -25 -20 -45 -45 -45s-45 20 -45 45zM234 792h36c15 0 27 12 27 27c0 25 20 45 45 45s45 -20 45 -45s-20 -45 -45 -45
c-15 0 -27 -12 -27 -27c0 -25 -20 -45 -45 -45h-36c-25 0 -45 20 -45 45c0 15 -12 27 -27 27c-25 0 -45 20 -45 45s20 45 45 45s45 -20 45 -45c0 -15 12 -27 27 -27z" />
    <glyph glyph-name="tcaron" unicode="&#x165;" horiz-adv-x="396" 
d="M117 117v270c0 15 -12 27 -27 27h-36c-25 0 -45 20 -45 45s20 45 45 45h36c15 0 27 12 27 27v72c0 25 20 45 45 45s45 -20 45 -45v-72c0 -15 12 -27 27 -27h108c25 0 45 -20 45 -45s-20 -45 -45 -45h-108c-15 0 -27 -12 -27 -27v-270c0 -15 12 -27 27 -27h108
c25 0 45 -20 45 -45s-20 -45 -45 -45h-108c-25 0 -45 20 -45 45c0 15 -12 27 -27 27c-25 0 -45 20 -45 45zM252 603v144c0 25 20 45 45 45s45 -20 45 -45v-144c0 -25 -20 -45 -45 -45s-45 20 -45 45z" />
    <glyph glyph-name="Umacron" unicode="&#x16a;" horiz-adv-x="594" 
d="M63 117v486c0 25 20 45 45 45s45 -20 45 -45v-486c0 -15 12 -27 27 -27h234c15 0 27 12 27 27v486c0 25 20 45 45 45s45 -20 45 -45v-486c0 -25 -20 -45 -45 -45c-15 0 -27 -12 -27 -27c0 -25 -20 -45 -45 -45h-234c-25 0 -45 20 -45 45c0 15 -12 27 -27 27
c-25 0 -45 20 -45 45zM207 864h180c25 0 45 -20 45 -45s-20 -45 -45 -45h-180c-25 0 -45 20 -45 45s20 45 45 45z" />
    <glyph glyph-name="umacron" unicode="&#x16b;" 
d="M63 117v342c0 25 20 45 45 45s45 -20 45 -45v-342c0 -15 12 -27 27 -27h180c15 0 27 12 27 27v342c0 25 20 45 45 45s45 -20 45 -45v-414c0 -25 -20 -45 -45 -45h-252c-25 0 -45 20 -45 45c0 15 -12 27 -27 27c-25 0 -45 20 -45 45zM180 720h180c25 0 45 -20 45 -45
s-20 -45 -45 -45h-180c-25 0 -45 20 -45 45s20 45 45 45z" />
    <glyph glyph-name="Ubreve" unicode="&#x16c;" horiz-adv-x="594" 
d="M63 117v486c0 25 20 45 45 45s45 -20 45 -45v-486c0 -15 12 -27 27 -27h234c15 0 27 12 27 27v486c0 25 20 45 45 45s45 -20 45 -45v-486c0 -25 -20 -45 -45 -45c-15 0 -27 -12 -27 -27c0 -25 -20 -45 -45 -45h-234c-25 0 -45 20 -45 45c0 15 -12 27 -27 27
c-25 0 -45 20 -45 45zM243 792h108c15 0 27 12 27 27c0 25 20 45 45 45s45 -20 45 -45s-20 -45 -45 -45c-15 0 -27 -12 -27 -27c0 -25 -20 -45 -45 -45h-108c-25 0 -45 20 -45 45c0 15 -12 27 -27 27c-25 0 -45 20 -45 45s20 45 45 45s45 -20 45 -45c0 -15 12 -27 27 -27z
" />
    <glyph glyph-name="ubreve" unicode="&#x16d;" 
d="M63 117v342c0 25 20 45 45 45s45 -20 45 -45v-342c0 -15 12 -27 27 -27h180c15 0 27 12 27 27v342c0 25 20 45 45 45s45 -20 45 -45v-414c0 -25 -20 -45 -45 -45h-252c-25 0 -45 20 -45 45c0 15 -12 27 -27 27c-25 0 -45 20 -45 45zM216 648h108c15 0 27 12 27 27
c0 25 20 45 45 45s45 -20 45 -45s-20 -45 -45 -45c-15 0 -27 -12 -27 -27c0 -25 -20 -45 -45 -45h-108c-25 0 -45 20 -45 45c0 15 -12 27 -27 27c-25 0 -45 20 -45 45s20 45 45 45s45 -20 45 -45c0 -15 12 -27 27 -27z" />
    <glyph glyph-name="Uring" unicode="&#x16e;" horiz-adv-x="594" 
d="M63 117v486c0 25 20 45 45 45s45 -20 45 -45v-486c0 -15 12 -27 27 -27h234c15 0 27 12 27 27v486c0 25 20 45 45 45s45 -20 45 -45v-486c0 -25 -20 -45 -45 -45c-15 0 -27 -12 -27 -27c0 -25 -20 -45 -45 -45h-234c-25 0 -45 20 -45 45c0 15 -12 27 -27 27
c-25 0 -45 20 -45 45zM180 783c0 25 20 45 45 45c15 0 27 12 27 27c0 25 20 45 45 45s45 -20 45 -45c0 -15 12 -27 27 -27c25 0 45 -20 45 -45s-20 -45 -45 -45c-15 0 -27 -12 -27 -27c0 -25 -20 -45 -45 -45s-45 20 -45 45c0 15 -12 27 -27 27c-25 0 -45 20 -45 45z
M324 783c0 15 -12 27 -27 27s-27 -12 -27 -27s12 -27 27 -27s27 12 27 27z" />
    <glyph glyph-name="uring" unicode="&#x16f;" 
d="M63 117v342c0 25 20 45 45 45s45 -20 45 -45v-342c0 -15 12 -27 27 -27h180c15 0 27 12 27 27v342c0 25 20 45 45 45s45 -20 45 -45v-414c0 -25 -20 -45 -45 -45h-252c-25 0 -45 20 -45 45c0 15 -12 27 -27 27c-25 0 -45 20 -45 45zM153 639c0 25 20 45 45 45
c15 0 27 12 27 27c0 25 20 45 45 45s45 -20 45 -45c0 -15 12 -27 27 -27c25 0 45 -20 45 -45s-20 -45 -45 -45c-15 0 -27 -12 -27 -27c0 -25 -20 -45 -45 -45s-45 20 -45 45c0 15 -12 27 -27 27c-25 0 -45 20 -45 45zM297 639c0 15 -12 27 -27 27s-27 -12 -27 -27
s12 -27 27 -27s27 12 27 27z" />
    <glyph glyph-name="Uhungarumlaut" unicode="&#x170;" horiz-adv-x="594" 
d="M63 117v486c0 25 20 45 45 45s45 -20 45 -45v-486c0 -15 12 -27 27 -27h234c15 0 27 12 27 27v486c0 25 20 45 45 45s45 -20 45 -45v-486c0 -25 -20 -45 -45 -45c-15 0 -27 -12 -27 -27c0 -25 -20 -45 -45 -45h-234c-25 0 -45 20 -45 45c0 15 -12 27 -27 27
c-25 0 -45 20 -45 45zM270 774c-15 0 -27 -12 -27 -27c0 -25 -20 -45 -45 -45s-45 20 -45 45s20 45 45 45c15 0 27 12 27 27c0 25 20 45 45 45s45 -20 45 -45s-20 -45 -45 -45zM333 747c0 25 20 45 45 45c15 0 27 12 27 27c0 25 20 45 45 45s45 -20 45 -45s-20 -45 -45 -45
c-15 0 -27 -12 -27 -27c0 -25 -20 -45 -45 -45s-45 20 -45 45z" />
    <glyph glyph-name="uhungarumlaut" unicode="&#x171;" 
d="M63 117v342c0 25 20 45 45 45s45 -20 45 -45v-342c0 -15 12 -27 27 -27h180c15 0 27 12 27 27v342c0 25 20 45 45 45s45 -20 45 -45v-414c0 -25 -20 -45 -45 -45h-252c-25 0 -45 20 -45 45c0 15 -12 27 -27 27c-25 0 -45 20 -45 45zM243 630c-15 0 -27 -12 -27 -27
c0 -25 -20 -45 -45 -45s-45 20 -45 45s20 45 45 45c15 0 27 12 27 27c0 25 20 45 45 45s45 -20 45 -45s-20 -45 -45 -45zM306 603c0 25 20 45 45 45c15 0 27 12 27 27c0 25 20 45 45 45s45 -20 45 -45s-20 -45 -45 -45c-15 0 -27 -12 -27 -27c0 -25 -20 -45 -45 -45
s-45 20 -45 45z" />
    <glyph glyph-name="Uogonek" unicode="&#x172;" horiz-adv-x="594" 
d="M522 -153v-36c0 -25 -20 -45 -45 -45s-45 20 -45 45v36c0 15 -12 27 -27 27c-25 0 -45 20 -45 45v36c0 24 18 43 41 45h-221c-25 0 -45 20 -45 45c0 15 -12 27 -27 27c-25 0 -45 20 -45 45v486c0 25 20 45 45 45s45 -20 45 -45v-486c0 -15 12 -27 27 -27h234
c15 0 27 12 27 27v486c0 25 20 45 45 45s45 -20 45 -45v-486c0 -25 -20 -45 -45 -45c-15 0 -27 -12 -27 -27c0 -25 -20 -45 -45 -45h-6c23 -2 42 -21 42 -45v-36c0 -15 12 -27 27 -27c25 0 45 -20 45 -45z" />
    <glyph glyph-name="uogonek" unicode="&#x173;" 
d="M477 -153v-36c0 -25 -20 -45 -45 -45s-45 20 -45 45v36c0 15 -12 27 -27 27c-25 0 -45 20 -45 45v36c0 24 18 43 41 45h-176c-25 0 -45 20 -45 45c0 15 -12 27 -27 27c-25 0 -45 20 -45 45v342c0 25 20 45 45 45s45 -20 45 -45v-342c0 -15 12 -27 27 -27h180
c15 0 27 12 27 27v342c0 25 20 45 45 45s45 -20 45 -45v-414c0 -25 -20 -45 -45 -45h-69c23 -2 42 -21 42 -45v-36c0 -15 12 -27 27 -27c25 0 45 -20 45 -45z" />
    <glyph glyph-name="Ydieresis" unicode="&#x178;" horiz-adv-x="558" 
d="M234 45v207c0 15 -12 27 -27 27h-36c-25 0 -45 20 -45 45c0 15 -12 27 -27 27c-25 0 -45 20 -45 45v207c0 25 20 45 45 45s45 -20 45 -45v-207c0 -15 12 -27 27 -27h216c15 0 27 12 27 27v207c0 25 20 45 45 45s45 -20 45 -45v-207c0 -25 -20 -45 -45 -45
c-15 0 -27 -12 -27 -27c0 -25 -20 -45 -45 -45h-36c-15 0 -27 -12 -27 -27v-207c0 -25 -20 -45 -45 -45s-45 20 -45 45zM144 783v36c0 25 20 45 45 45s45 -20 45 -45v-36c0 -25 -20 -45 -45 -45s-45 20 -45 45zM324 783v36c0 25 20 45 45 45s45 -20 45 -45v-36
c0 -25 -20 -45 -45 -45s-45 20 -45 45z" />
    <glyph glyph-name="Zacute" unicode="&#x179;" horiz-adv-x="522" 
d="M54 45v207c0 25 20 45 45 45c15 0 27 12 27 27c0 25 20 45 45 45h180c15 0 27 12 27 27v135c0 15 -12 27 -27 27h-252c-25 0 -45 20 -45 45s20 45 45 45h324c25 0 45 -20 45 -45v-207c0 -25 -20 -45 -45 -45c-15 0 -27 -12 -27 -27c0 -25 -20 -45 -45 -45h-180
c-15 0 -27 -12 -27 -27v-135c0 -15 12 -27 27 -27h252c25 0 45 -20 45 -45s-20 -45 -45 -45h-324c-25 0 -45 20 -45 45zM396 819c0 -25 -20 -45 -45 -45h-54c-15 0 -27 -12 -27 -27c0 -25 -20 -45 -45 -45h-54c-25 0 -45 20 -45 45s20 45 45 45h54c15 0 27 12 27 27
c0 25 20 45 45 45h54c25 0 45 -20 45 -45z" />
    <glyph glyph-name="zacute" unicode="&#x17a;" horiz-adv-x="468" 
d="M45 45v135c0 25 20 45 45 45c15 0 27 12 27 27c0 25 20 45 45 45h144c15 0 27 12 27 27v63c0 15 -12 27 -27 27h-216c-25 0 -45 20 -45 45s20 45 45 45h288c25 0 45 -20 45 -45v-135c0 -25 -20 -45 -45 -45c-15 0 -27 -12 -27 -27c0 -25 -20 -45 -45 -45h-144
c-15 0 -27 -12 -27 -27v-63c0 -15 12 -27 27 -27h216c25 0 45 -20 45 -45s-20 -45 -45 -45h-288c-25 0 -45 20 -45 45zM369 675c0 -25 -20 -45 -45 -45h-54c-15 0 -27 -12 -27 -27c0 -25 -20 -45 -45 -45h-54c-25 0 -45 20 -45 45s20 45 45 45h54c15 0 27 12 27 27
c0 25 20 45 45 45h54c25 0 45 -20 45 -45z" />
    <glyph glyph-name="Zdotaccent" unicode="&#x17b;" horiz-adv-x="522" 
d="M54 45v207c0 25 20 45 45 45c15 0 27 12 27 27c0 25 20 45 45 45h180c15 0 27 12 27 27v135c0 15 -12 27 -27 27h-252c-25 0 -45 20 -45 45s20 45 45 45h324c25 0 45 -20 45 -45v-207c0 -25 -20 -45 -45 -45c-15 0 -27 -12 -27 -27c0 -25 -20 -45 -45 -45h-180
c-15 0 -27 -12 -27 -27v-135c0 -15 12 -27 27 -27h252c25 0 45 -20 45 -45s-20 -45 -45 -45h-324c-25 0 -45 20 -45 45zM216 783v36c0 25 20 45 45 45s45 -20 45 -45v-36c0 -25 -20 -45 -45 -45s-45 20 -45 45z" />
    <glyph glyph-name="zdotaccent" unicode="&#x17c;" horiz-adv-x="468" 
d="M45 45v135c0 25 20 45 45 45c15 0 27 12 27 27c0 25 20 45 45 45h144c15 0 27 12 27 27v63c0 15 -12 27 -27 27h-216c-25 0 -45 20 -45 45s20 45 45 45h288c25 0 45 -20 45 -45v-135c0 -25 -20 -45 -45 -45c-15 0 -27 -12 -27 -27c0 -25 -20 -45 -45 -45h-144
c-15 0 -27 -12 -27 -27v-63c0 -15 12 -27 27 -27h216c25 0 45 -20 45 -45s-20 -45 -45 -45h-288c-25 0 -45 20 -45 45zM189 639v36c0 25 20 45 45 45s45 -20 45 -45v-36c0 -25 -20 -45 -45 -45s-45 20 -45 45z" />
    <glyph glyph-name="Zcaron" unicode="&#x17d;" horiz-adv-x="522" 
d="M54 45v207c0 25 20 45 45 45c15 0 27 12 27 27c0 25 20 45 45 45h180c15 0 27 12 27 27v135c0 15 -12 27 -27 27h-252c-25 0 -45 20 -45 45s20 45 45 45h324c25 0 45 -20 45 -45v-207c0 -25 -20 -45 -45 -45c-15 0 -27 -12 -27 -27c0 -25 -20 -45 -45 -45h-180
c-15 0 -27 -12 -27 -27v-135c0 -15 12 -27 27 -27h252c25 0 45 -20 45 -45s-20 -45 -45 -45h-324c-25 0 -45 20 -45 45zM243 792h36c15 0 27 12 27 27c0 25 20 45 45 45s45 -20 45 -45s-20 -45 -45 -45c-15 0 -27 -12 -27 -27c0 -25 -20 -45 -45 -45h-36
c-25 0 -45 20 -45 45c0 15 -12 27 -27 27c-25 0 -45 20 -45 45s20 45 45 45s45 -20 45 -45c0 -15 12 -27 27 -27z" />
    <glyph glyph-name="zcaron" unicode="&#x17e;" horiz-adv-x="468" 
d="M45 45v135c0 25 20 45 45 45c15 0 27 12 27 27c0 25 20 45 45 45h144c15 0 27 12 27 27v63c0 15 -12 27 -27 27h-216c-25 0 -45 20 -45 45s20 45 45 45h288c25 0 45 -20 45 -45v-135c0 -25 -20 -45 -45 -45c-15 0 -27 -12 -27 -27c0 -25 -20 -45 -45 -45h-144
c-15 0 -27 -12 -27 -27v-63c0 -15 12 -27 27 -27h216c25 0 45 -20 45 -45s-20 -45 -45 -45h-288c-25 0 -45 20 -45 45zM216 648h36c15 0 27 12 27 27c0 25 20 45 45 45s45 -20 45 -45s-20 -45 -45 -45c-15 0 -27 -12 -27 -27c0 -25 -20 -45 -45 -45h-36c-25 0 -45 20 -45 45
c0 15 -12 27 -27 27c-25 0 -45 20 -45 45s20 45 45 45s45 -20 45 -45c0 -15 12 -27 27 -27z" />
    <glyph glyph-name="florin" unicode="&#x192;" horiz-adv-x="432" 
d="M135 -99v486c0 15 -12 27 -27 27h-36c-25 0 -45 20 -45 45s20 45 45 45h36c15 0 27 12 27 27v72c0 25 20 45 45 45c15 0 27 12 27 27c0 25 20 45 45 45h108c25 0 45 -20 45 -45s-20 -45 -45 -45h-108c-15 0 -27 -12 -27 -27v-73c0 -15 12 -26 27 -26h108
c25 0 45 -20 45 -45s-20 -45 -45 -45h-108c-15 0 -27 -12 -27 -27v-486c0 -25 -20 -45 -45 -45c-15 0 -27 -12 -27 -27c0 -25 -20 -45 -45 -45h-90c-25 0 -45 20 -45 45s20 45 45 45h90c15 0 27 12 27 27z" />
    <glyph glyph-name="Scommaaccent" unicode="&#x218;" 
d="M126 90h252c15 0 27 12 27 27v135c0 15 -12 27 -27 27h-216c-25 0 -45 20 -45 45c0 15 -12 27 -27 27c-25 0 -45 20 -45 45v135c0 25 20 45 45 45c15 0 27 12 27 27c0 25 20 45 45 45h252c25 0 45 -20 45 -45s-20 -45 -45 -45h-252c-15 0 -27 -12 -27 -27v-135
c0 -15 12 -27 27 -27h216c25 0 45 -20 45 -45c0 -15 12 -27 27 -27c25 0 45 -20 45 -45v-135c0 -25 -20 -45 -45 -45c-15 0 -27 -12 -27 -27c0 -25 -20 -45 -45 -45h-252c-25 0 -45 20 -45 45s20 45 45 45zM162 -225v36c0 25 20 45 45 45c15 0 27 12 27 27v36
c0 25 20 45 45 45s45 -20 45 -45v-36c0 -25 -20 -45 -45 -45c-15 0 -27 -12 -27 -27v-36c0 -25 -20 -45 -45 -45s-45 20 -45 45z" />
    <glyph glyph-name="scommaaccent" unicode="&#x219;" horiz-adv-x="468" 
d="M126 90h180c15 0 27 12 27 27v63c0 15 -12 27 -27 27h-144c-25 0 -45 20 -45 45c0 15 -12 27 -27 27c-25 0 -45 20 -45 45v63c0 25 20 45 45 45c15 0 27 12 27 27c0 25 20 45 45 45h180c25 0 45 -20 45 -45s-20 -45 -45 -45h-180c-15 0 -27 -12 -27 -27v-63
c0 -15 12 -27 27 -27h144c25 0 45 -20 45 -45c0 -15 12 -27 27 -27c25 0 45 -20 45 -45v-63c0 -25 -20 -45 -45 -45c-15 0 -27 -12 -27 -27c0 -25 -20 -45 -45 -45h-180c-25 0 -45 20 -45 45s20 45 45 45zM135 -225v36c0 25 20 45 45 45c15 0 27 12 27 27v36
c0 25 20 45 45 45s45 -20 45 -45v-36c0 -25 -20 -45 -45 -45c-15 0 -27 -12 -27 -27v-36c0 -25 -20 -45 -45 -45s-45 20 -45 45z" />
    <glyph glyph-name="uni021A" unicode="&#x21a;" horiz-adv-x="504" 
d="M207 45v486c0 15 -12 27 -27 27h-126c-25 0 -45 20 -45 45s20 45 45 45h396c25 0 45 -20 45 -45s-20 -45 -45 -45h-126c-15 0 -27 -12 -27 -27v-486c0 -25 -20 -45 -45 -45s-45 20 -45 45zM153 -225v36c0 25 20 45 45 45c15 0 27 12 27 27v36c0 25 20 45 45 45
s45 -20 45 -45v-36c0 -25 -20 -45 -45 -45c-15 0 -27 -12 -27 -27v-36c0 -25 -20 -45 -45 -45s-45 20 -45 45z" />
    <glyph glyph-name="uni021B" unicode="&#x21b;" horiz-adv-x="396" 
d="M117 117v270c0 15 -12 27 -27 27h-36c-25 0 -45 20 -45 45s20 45 45 45h36c15 0 27 12 27 27v72c0 25 20 45 45 45s45 -20 45 -45v-72c0 -15 12 -27 27 -27h108c25 0 45 -20 45 -45s-20 -45 -45 -45h-108c-15 0 -27 -12 -27 -27v-270c0 -15 12 -27 27 -27h108
c25 0 45 -20 45 -45s-20 -45 -45 -45h-108c-25 0 -45 20 -45 45c0 15 -12 27 -27 27c-25 0 -45 20 -45 45zM144 -225v36c0 25 20 45 45 45c15 0 27 12 27 27v36c0 25 20 45 45 45s45 -20 45 -45v-36c0 -25 -20 -45 -45 -45c-15 0 -27 -12 -27 -27v-36c0 -25 -20 -45 -45 -45
s-45 20 -45 45z" />
    <glyph glyph-name="uni0237" unicode="&#x237;" horiz-adv-x="216" 
d="M63 -171v630c0 25 20 45 45 45s45 -20 45 -45v-630c0 -25 -20 -45 -45 -45s-45 20 -45 45z" />
    <glyph glyph-name="circumflex" unicode="&#x2c6;" horiz-adv-x="396" 
d="M216 630h-36c-15 0 -27 -12 -27 -27c0 -25 -20 -45 -45 -45s-45 20 -45 45s20 45 45 45c15 0 27 12 27 27c0 25 20 45 45 45h36c25 0 45 -20 45 -45c0 -15 12 -27 27 -27c25 0 45 -20 45 -45s-20 -45 -45 -45s-45 20 -45 45c0 15 -12 27 -27 27z" />
    <glyph glyph-name="caron" unicode="&#x2c7;" horiz-adv-x="396" 
d="M180 648h36c15 0 27 12 27 27c0 25 20 45 45 45s45 -20 45 -45s-20 -45 -45 -45c-15 0 -27 -12 -27 -27c0 -25 -20 -45 -45 -45h-36c-25 0 -45 20 -45 45c0 15 -12 27 -27 27c-25 0 -45 20 -45 45s20 45 45 45s45 -20 45 -45c0 -15 12 -27 27 -27z" />
    <glyph glyph-name="breve" unicode="&#x2d8;" horiz-adv-x="468" 
d="M180 648h108c15 0 27 12 27 27c0 25 20 45 45 45s45 -20 45 -45s-20 -45 -45 -45c-15 0 -27 -12 -27 -27c0 -25 -20 -45 -45 -45h-108c-25 0 -45 20 -45 45c0 15 -12 27 -27 27c-25 0 -45 20 -45 45s20 45 45 45s45 -20 45 -45c0 -15 12 -27 27 -27z" />
    <glyph glyph-name="dotaccent" unicode="&#x2d9;" horiz-adv-x="216" 
d="M63 639v36c0 25 20 45 45 45s45 -20 45 -45v-36c0 -25 -20 -45 -45 -45s-45 20 -45 45z" />
    <glyph glyph-name="ring" unicode="&#x2da;" horiz-adv-x="360" 
d="M63 639c0 25 20 45 45 45c15 0 27 12 27 27c0 25 20 45 45 45s45 -20 45 -45c0 -15 12 -27 27 -27c25 0 45 -20 45 -45s-20 -45 -45 -45c-15 0 -27 -12 -27 -27c0 -25 -20 -45 -45 -45s-45 20 -45 45c0 15 -12 27 -27 27c-25 0 -45 20 -45 45zM207 639
c0 15 -12 27 -27 27s-27 -12 -27 -27s12 -27 27 -27s27 12 27 27z" />
    <glyph glyph-name="ogonek" unicode="&#x2db;" horiz-adv-x="288" 
d="M225 -63v-36c0 -25 -20 -45 -45 -45s-45 20 -45 45v36c0 15 -12 27 -27 27c-25 0 -45 20 -45 45v36c0 25 20 45 45 45s45 -20 45 -45v-36c0 -15 12 -27 27 -27c25 0 45 -20 45 -45z" />
    <glyph glyph-name="tilde" unicode="&#x2dc;" horiz-adv-x="432" 
d="M180 630c-15 0 -27 -12 -27 -27c0 -25 -20 -45 -45 -45s-45 20 -45 45s20 45 45 45c15 0 27 12 27 27c0 25 20 45 45 45s45 -20 45 -45c0 -15 12 -27 27 -27s27 12 27 27c0 25 20 45 45 45s45 -20 45 -45s-20 -45 -45 -45c-15 0 -27 -12 -27 -27c0 -25 -20 -45 -45 -45
s-45 20 -45 45c0 15 -12 27 -27 27z" />
    <glyph glyph-name="hungarumlaut" unicode="&#x2dd;" horiz-adv-x="468" 
d="M180 630c-15 0 -27 -12 -27 -27c0 -25 -20 -45 -45 -45s-45 20 -45 45s20 45 45 45c15 0 27 12 27 27c0 25 20 45 45 45s45 -20 45 -45s-20 -45 -45 -45zM243 603c0 25 20 45 45 45c15 0 27 12 27 27c0 25 20 45 45 45s45 -20 45 -45s-20 -45 -45 -45
c-15 0 -27 -12 -27 -27c0 -25 -20 -45 -45 -45s-45 20 -45 45z" />
    <glyph glyph-name="uni0326" unicode="&#x326;" horiz-adv-x="1" 
d="M-225 -225v36c0 25 20 45 45 45c15 0 27 12 27 27v36c0 25 20 45 45 45s45 -20 45 -45v-36c0 -25 -20 -45 -45 -45c-15 0 -27 -12 -27 -27v-36c0 -25 -20 -45 -45 -45s-45 20 -45 45z" />
    <glyph glyph-name="uni0394" unicode="&#x394;" horiz-adv-x="684" 
d="M621 180v-135c0 -25 -20 -45 -45 -45h-468c-25 0 -45 20 -45 45v135c0 25 20 45 45 45c15 0 27 12 27 27v108c0 25 20 45 45 45c15 0 27 12 27 27v99c0 25 20 45 45 45c15 0 27 12 27 27c0 25 20 45 45 45h36c25 0 45 -20 45 -45c0 -15 12 -27 27 -27c25 0 45 -20 45 -45
v-99c0 -15 12 -27 27 -27c25 0 45 -20 45 -45v-108c0 -15 12 -27 27 -27c25 0 45 -20 45 -45zM531 117v63c0 15 -12 27 -27 27c-25 0 -45 20 -45 45v108c0 15 -12 27 -27 27c-25 0 -45 20 -45 45v99c0 15 -12 27 -27 27h-36c-15 0 -27 -12 -27 -27v-99
c0 -25 -20 -45 -45 -45c-15 0 -27 -12 -27 -27v-108c0 -25 -20 -45 -45 -45c-15 0 -27 -12 -27 -27v-63c0 -15 12 -27 27 -27h324c15 0 27 12 27 27z" />
    <glyph glyph-name="uni03A9" unicode="&#x3a9;" horiz-adv-x="711" 
d="M639 459v-198c0 -25 -20 -45 -45 -45c-15 0 -27 -12 -27 -27c0 -25 -20 -45 -45 -45c-15 0 -27 -12 -27 -27s12 -27 27 -27h81c25 0 45 -20 45 -45s-20 -45 -45 -45h-81c-25 0 -45 20 -45 45c0 15 -12 27 -27 27c-25 0 -45 20 -45 45s20 45 45 45c15 0 27 12 27 27
c0 25 20 45 45 45c15 0 27 12 27 27v198c0 15 -12 27 -27 27c-25 0 -45 20 -45 45c0 15 -12 27 -27 27h-189c-15 0 -27 -12 -27 -27c0 -25 -20 -45 -45 -45c-15 0 -27 -12 -27 -27v-198c0 -15 12 -27 27 -27c25 0 45 -20 45 -45c0 -15 12 -27 27 -27c25 0 45 -20 45 -45
s-20 -45 -45 -45c-15 0 -27 -12 -27 -27c0 -25 -20 -45 -45 -45h-81c-25 0 -45 20 -45 45s20 45 45 45h81c15 0 27 12 27 27s-12 27 -27 27c-25 0 -45 20 -45 45c0 15 -12 27 -27 27c-25 0 -45 20 -45 45v198c0 25 20 45 45 45c15 0 27 12 27 27c0 25 20 45 45 45
c15 0 27 12 27 27c0 25 20 45 45 45h189c25 0 45 -20 45 -45c0 -15 12 -27 27 -27c25 0 45 -20 45 -45c0 -15 12 -27 27 -27c25 0 45 -20 45 -45z" />
    <glyph glyph-name="uni03BC" unicode="&#x3bc;" 
d="M63 -171v629c0 25 20 45 45 45s45 -20 45 -45v-341c0 -15 12 -27 27 -27h180c15 0 27 12 27 27v342c0 25 20 45 45 45s45 -20 45 -45v-342c0 -25 -20 -45 -45 -45c-15 0 -27 -12 -27 -27c0 -25 -20 -45 -45 -45h-180c-15 0 -27 -12 -27 -27v-144c0 -25 -20 -45 -45 -45
s-45 20 -45 45z" />
    <glyph glyph-name="pi" unicode="&#x3c0;" horiz-adv-x="648" 
d="M108 504h432c25 0 45 -20 45 -45s-20 -45 -45 -45h-18c-15 0 -27 -12 -27 -27v-342c0 -25 -20 -45 -45 -45s-45 20 -45 45v342c0 15 -12 27 -27 27h-108c-15 0 -27 -12 -27 -27v-342c0 -25 -20 -45 -45 -45s-45 20 -45 45v342c0 15 -12 27 -27 27h-18
c-25 0 -45 20 -45 45s20 45 45 45z" />
    <glyph glyph-name="uni2007" unicode="&#x2007;" horiz-adv-x="576" 
 />
    <glyph glyph-name="uni2008" unicode="&#x2008;" horiz-adv-x="216" 
 />
    <glyph glyph-name="uni200B" unicode="&#x200b;" horiz-adv-x="0" 
 />
    <glyph glyph-name="uniFEFF" unicode="&#xfeff;" horiz-adv-x="0" 
 />
    <glyph glyph-name="endash" unicode="&#x2013;" 
d="M108 369h324c25 0 45 -20 45 -45s-20 -45 -45 -45h-324c-25 0 -45 20 -45 45s20 45 45 45z" />
    <glyph glyph-name="emdash" unicode="&#x2014;" horiz-adv-x="792" 
d="M108 369h576c25 0 45 -20 45 -45s-20 -45 -45 -45h-576c-25 0 -45 20 -45 45s20 45 45 45z" />
    <glyph glyph-name="quoteleft" unicode="&#x2018;" horiz-adv-x="216" 
d="M27 531v36c0 25 20 45 45 45c15 0 27 12 27 27v36c0 25 20 45 45 45s45 -20 45 -45v-36c0 -25 -20 -45 -45 -45c-15 0 -27 -12 -27 -27v-36c0 -25 -20 -45 -45 -45s-45 20 -45 45z" />
    <glyph glyph-name="quoteright" unicode="&#x2019;" horiz-adv-x="216" 
d="M27 531v36c0 25 20 45 45 45c15 0 27 12 27 27v36c0 25 20 45 45 45s45 -20 45 -45v-36c0 -25 -20 -45 -45 -45c-15 0 -27 -12 -27 -27v-36c0 -25 -20 -45 -45 -45s-45 20 -45 45z" />
    <glyph glyph-name="quotesinglbase" unicode="&#x201a;" horiz-adv-x="216" 
d="M27 -63v36c0 25 20 45 45 45c15 0 27 12 27 27v36c0 25 20 45 45 45s45 -20 45 -45v-36c0 -25 -20 -45 -45 -45c-15 0 -27 -12 -27 -27v-36c0 -25 -20 -45 -45 -45s-45 20 -45 45z" />
    <glyph glyph-name="quotedblleft" unicode="&#x201c;" horiz-adv-x="396" 
d="M207 531v36c0 25 20 45 45 45c15 0 27 12 27 27v36c0 25 20 45 45 45s45 -20 45 -45v-36c0 -25 -20 -45 -45 -45c-15 0 -27 -12 -27 -27v-36c0 -25 -20 -45 -45 -45s-45 20 -45 45zM27 531v36c0 25 20 45 45 45c15 0 27 12 27 27v36c0 25 20 45 45 45s45 -20 45 -45v-36
c0 -25 -20 -45 -45 -45c-15 0 -27 -12 -27 -27v-36c0 -25 -20 -45 -45 -45s-45 20 -45 45z" />
    <glyph glyph-name="quotedblright" unicode="&#x201d;" horiz-adv-x="396" 
d="M207 531v36c0 25 20 45 45 45c15 0 27 12 27 27v36c0 25 20 45 45 45s45 -20 45 -45v-36c0 -25 -20 -45 -45 -45c-15 0 -27 -12 -27 -27v-36c0 -25 -20 -45 -45 -45s-45 20 -45 45zM27 531v36c0 25 20 45 45 45c15 0 27 12 27 27v36c0 25 20 45 45 45s45 -20 45 -45v-36
c0 -25 -20 -45 -45 -45c-15 0 -27 -12 -27 -27v-36c0 -25 -20 -45 -45 -45s-45 20 -45 45z" />
    <glyph glyph-name="quotedblbase" unicode="&#x201e;" horiz-adv-x="396" 
d="M207 -63v36c0 25 20 45 45 45c15 0 27 12 27 27v36c0 25 20 45 45 45s45 -20 45 -45v-36c0 -25 -20 -45 -45 -45c-15 0 -27 -12 -27 -27v-36c0 -25 -20 -45 -45 -45s-45 20 -45 45zM27 -63v36c0 25 20 45 45 45c15 0 27 12 27 27v36c0 25 20 45 45 45s45 -20 45 -45v-36
c0 -25 -20 -45 -45 -45c-15 0 -27 -12 -27 -27v-36c0 -25 -20 -45 -45 -45s-45 20 -45 45z" />
    <glyph glyph-name="dagger" unicode="&#x2020;" horiz-adv-x="504" 
d="M252 -180c-25 0 -45 20 -45 45v522c0 15 -12 27 -27 27h-108c-25 0 -45 20 -45 45s20 45 45 45h108c15 0 27 12 27 27v108c0 25 20 45 45 45s45 -20 45 -45v-108c0 -15 12 -27 27 -27h108c25 0 45 -20 45 -45s-20 -45 -45 -45h-108c-15 0 -27 -12 -27 -27v-522
c0 -25 -20 -45 -45 -45z" />
    <glyph glyph-name="daggerdbl" unicode="&#x2021;" horiz-adv-x="504" 
d="M207 531v108c0 25 20 45 45 45s45 -20 45 -45v-108c0 -15 12 -27 27 -27h108c25 0 45 -20 45 -45s-20 -45 -45 -45h-108c-15 0 -27 -12 -27 -27v-270c0 -15 12 -27 27 -27h108c25 0 45 -20 45 -45s-20 -45 -45 -45h-108c-15 0 -27 -12 -27 -27v-108
c0 -25 -20 -45 -45 -45s-45 20 -45 45v108c0 15 -12 27 -27 27h-108c-25 0 -45 20 -45 45s20 45 45 45h108c15 0 27 12 27 27v270c0 15 -12 27 -27 27h-108c-25 0 -45 20 -45 45s20 45 45 45h108c15 0 27 12 27 27z" />
    <glyph glyph-name="bullet" unicode="&#x2022;" 
d="M63 207v180c0 25 20 45 45 45c15 0 27 12 27 27c0 25 20 45 45 45h180c25 0 45 -20 45 -45c0 -15 12 -27 27 -27c25 0 45 -20 45 -45v-180c0 -25 -20 -45 -45 -45c-15 0 -27 -12 -27 -27c0 -25 -20 -45 -45 -45h-180c-25 0 -45 20 -45 45c0 15 -12 27 -27 27
c-25 0 -45 20 -45 45z" />
    <glyph glyph-name="ellipsis" unicode="&#x2026;" horiz-adv-x="576" 
d="M243 45v36c0 25 20 45 45 45s45 -20 45 -45v-36c0 -25 -20 -45 -45 -45s-45 20 -45 45zM423 45v36c0 25 20 45 45 45s45 -20 45 -45v-36c0 -25 -20 -45 -45 -45s-45 20 -45 45zM63 45v36c0 25 20 45 45 45s45 -20 45 -45v-36c0 -25 -20 -45 -45 -45s-45 20 -45 45z" />
    <glyph glyph-name="perthousand" unicode="&#x2030;" horiz-adv-x="1242" 
d="M513 117v126c0 25 20 45 45 45c15 0 27 12 27 27c0 25 20 45 45 45h90c25 0 45 -20 45 -45c0 -15 12 -27 27 -27c25 0 45 -20 45 -45v-126c0 -25 -20 -45 -45 -45c-15 0 -27 -12 -27 -27c0 -25 -20 -45 -45 -45h-90c-25 0 -45 20 -45 45c0 15 -12 27 -27 27
c-25 0 -45 20 -45 45zM630 90h90c15 0 27 12 27 27v126c0 15 -12 27 -27 27h-90c-15 0 -27 -12 -27 -27v-126c0 -15 12 -27 27 -27zM27 477v126c0 25 20 45 45 45c15 0 27 12 27 27c0 25 20 45 45 45h90c25 0 45 -20 45 -45c0 -15 12 -27 27 -27c25 0 45 -20 45 -45v-126
c0 -25 -20 -45 -45 -45c-15 0 -27 -12 -27 -27c0 -25 -20 -45 -45 -45h-90c-25 0 -45 20 -45 45c0 15 -12 27 -27 27c-25 0 -45 20 -45 45zM144 450h90c15 0 27 12 27 27v126c0 15 -12 27 -27 27h-90c-15 0 -27 -12 -27 -27v-126c0 -15 12 -27 27 -27zM891 117v126
c0 25 20 45 45 45c15 0 27 12 27 27c0 25 20 45 45 45h90c25 0 45 -20 45 -45c0 -15 12 -27 27 -27c25 0 45 -20 45 -45v-126c0 -25 -20 -45 -45 -45c-15 0 -27 -12 -27 -27c0 -25 -20 -45 -45 -45h-90c-25 0 -45 20 -45 45c0 15 -12 27 -27 27c-25 0 -45 20 -45 45z
M1008 90h90c15 0 27 12 27 27v126c0 15 -12 27 -27 27h-90c-15 0 -27 -12 -27 -27v-126c0 -15 12 -27 27 -27zM549 675v-162c0 -25 -20 -45 -45 -45c-15 0 -27 -12 -27 -27v-162c0 -25 -20 -45 -45 -45c-15 0 -27 -12 -27 -27v-162c0 -25 -20 -45 -45 -45s-45 20 -45 45v162
c0 25 20 45 45 45c15 0 27 12 27 27v162c0 25 20 45 45 45c15 0 27 12 27 27v162c0 25 20 45 45 45s45 -20 45 -45z" />
    <glyph glyph-name="guilsinglleft" unicode="&#x2039;" horiz-adv-x="396" 
d="M324 135h-36c-25 0 -45 20 -45 45c0 15 -12 27 -27 27h-36c-25 0 -45 20 -45 45c0 15 -12 27 -27 27h-36c-25 0 -45 20 -45 45s20 45 45 45h36c15 0 27 12 27 27c0 25 20 45 45 45h36c15 0 27 12 27 27c0 25 20 45 45 45h36c25 0 45 -20 45 -45s-20 -45 -45 -45h-36
c-15 0 -27 -12 -27 -27c0 -25 -20 -45 -45 -45h-36c-15 0 -27 -12 -27 -27s12 -27 27 -27h36c25 0 45 -20 45 -45c0 -15 12 -27 27 -27h36c25 0 45 -20 45 -45s-20 -45 -45 -45z" />
    <glyph glyph-name="guilsinglright" unicode="&#x203a;" horiz-adv-x="396" 
d="M72 512h36c25 0 45 -20 45 -45c0 -15 12 -27 27 -27h36c25 0 45 -20 45 -45c0 -15 12 -27 27 -27h36c25 0 45 -20 45 -45s-20 -45 -45 -45h-36c-15 0 -27 -12 -27 -27c0 -25 -20 -45 -45 -45h-36c-15 0 -27 -12 -27 -27c0 -25 -20 -45 -45 -45h-36c-25 0 -45 20 -45 45
s20 45 45 45h36c15 0 27 12 27 27c0 25 20 45 45 45h36c15 0 27 12 27 27s-12 27 -27 27h-36c-25 0 -45 20 -45 45c0 15 -12 27 -27 27h-36c-25 0 -45 20 -45 45s20 45 45 45z" />
    <glyph glyph-name="fraction" unicode="&#x2044;" horiz-adv-x="360" 
d="M297 675v-162c0 -25 -20 -45 -45 -45c-15 0 -27 -12 -27 -27v-162c0 -25 -20 -45 -45 -45c-15 0 -27 -12 -27 -27v-162c0 -25 -20 -45 -45 -45s-45 20 -45 45v162c0 25 20 45 45 45c15 0 27 12 27 27v162c0 25 20 45 45 45c15 0 27 12 27 27v162c0 25 20 45 45 45
s45 -20 45 -45z" />
    <glyph glyph-name="Euro" unicode="&#x20ac;" horiz-adv-x="531" 
d="M225 324c0 -15 12 -27 27 -27h180c25 0 45 -20 45 -45s-20 -45 -45 -45h-180c-15 0 -27 -12 -27 -27v-63c0 -15 12 -27 27 -27h180c25 0 45 -20 45 -45s-20 -45 -45 -45h-180c-25 0 -45 20 -45 45c0 15 -12 27 -27 27c-25 0 -45 20 -45 45v63c0 15 -12 27 -27 27h-36
c-25 0 -45 20 -45 45s20 45 45 45h36c15 0 27 12 27 27s-12 27 -27 27h-36c-25 0 -45 20 -45 45s20 45 45 45h36c15 0 27 12 27 27v63c0 25 20 45 45 45c15 0 27 12 27 27c0 25 20 45 45 45h180c25 0 45 -20 45 -45s-20 -45 -45 -45h-180c-15 0 -27 -12 -27 -27v-63
c0 -15 12 -27 27 -27h180c25 0 45 -20 45 -45s-20 -45 -45 -45h-180c-15 0 -27 -12 -27 -27z" />
    <glyph glyph-name="trademark" unicode="&#x2122;" horiz-adv-x="873" 
d="M144 378v225c0 15 -12 27 -27 27h-54c-25 0 -45 20 -45 45s20 45 45 45h243c25 0 45 -20 45 -45s-20 -45 -45 -45h-45c-15 0 -27 -12 -27 -27v-225c0 -25 -20 -45 -45 -45s-45 20 -45 45zM396 378v225c0 25 20 45 45 45c15 0 27 12 27 27c0 25 20 45 45 45h216
c25 0 45 -20 45 -45c0 -15 12 -27 27 -27c25 0 45 -20 45 -45v-225c0 -25 -20 -45 -45 -45s-45 20 -45 45v225c0 15 -12 27 -27 27h-36c-15 0 -27 -12 -27 -27v-225c0 -25 -20 -45 -45 -45s-45 20 -45 45v225c0 15 -12 27 -27 27h-36c-15 0 -27 -12 -27 -27v-225
c0 -25 -20 -45 -45 -45s-45 20 -45 45z" />
    <glyph glyph-name="Omega" unicode="&#x2126;" horiz-adv-x="711" 
d="M639 459v-198c0 -25 -20 -45 -45 -45c-15 0 -27 -12 -27 -27c0 -25 -20 -45 -45 -45c-15 0 -27 -12 -27 -27s12 -27 27 -27h81c25 0 45 -20 45 -45s-20 -45 -45 -45h-81c-25 0 -45 20 -45 45c0 15 -12 27 -27 27c-25 0 -45 20 -45 45s20 45 45 45c15 0 27 12 27 27
c0 25 20 45 45 45c15 0 27 12 27 27v198c0 15 -12 27 -27 27c-25 0 -45 20 -45 45c0 15 -12 27 -27 27h-189c-15 0 -27 -12 -27 -27c0 -25 -20 -45 -45 -45c-15 0 -27 -12 -27 -27v-198c0 -15 12 -27 27 -27c25 0 45 -20 45 -45c0 -15 12 -27 27 -27c25 0 45 -20 45 -45
s-20 -45 -45 -45c-15 0 -27 -12 -27 -27c0 -25 -20 -45 -45 -45h-81c-25 0 -45 20 -45 45s20 45 45 45h81c15 0 27 12 27 27s-12 27 -27 27c-25 0 -45 20 -45 45c0 15 -12 27 -27 27c-25 0 -45 20 -45 45v198c0 25 20 45 45 45c15 0 27 12 27 27c0 25 20 45 45 45
c15 0 27 12 27 27c0 25 20 45 45 45h189c25 0 45 -20 45 -45c0 -15 12 -27 27 -27c25 0 45 -20 45 -45c0 -15 12 -27 27 -27c25 0 45 -20 45 -45z" />
    <glyph glyph-name="partialdiff" unicode="&#x2202;" horiz-adv-x="531" 
d="M378 117v171c0 15 -12 27 -27 27h-171c-15 0 -27 -12 -27 -27v-171c0 -15 12 -27 27 -27h171c15 0 27 12 27 27zM378 432v27c0 15 -12 27 -27 27c-25 0 -45 20 -45 45c0 15 -12 27 -27 27h-135c-25 0 -45 20 -45 45s20 45 45 45h135c25 0 45 -20 45 -45
c0 -15 12 -27 27 -27c25 0 45 -20 45 -45c0 -15 12 -27 27 -27c25 0 45 -20 45 -45v-342c0 -25 -20 -45 -45 -45c-15 0 -27 -12 -27 -27c0 -25 -20 -45 -45 -45h-171c-25 0 -45 20 -45 45c0 15 -12 27 -27 27c-25 0 -45 20 -45 45v171c0 25 20 45 45 45c15 0 27 12 27 27
c0 25 20 45 45 45h171c15 0 27 12 27 27z" />
    <glyph glyph-name="Delta" unicode="&#x2206;" horiz-adv-x="684" 
d="M621 180v-135c0 -25 -20 -45 -45 -45h-468c-25 0 -45 20 -45 45v135c0 25 20 45 45 45c15 0 27 12 27 27v108c0 25 20 45 45 45c15 0 27 12 27 27v99c0 25 20 45 45 45c15 0 27 12 27 27c0 25 20 45 45 45h36c25 0 45 -20 45 -45c0 -15 12 -27 27 -27c25 0 45 -20 45 -45
v-99c0 -15 12 -27 27 -27c25 0 45 -20 45 -45v-108c0 -15 12 -27 27 -27c25 0 45 -20 45 -45zM531 117v63c0 15 -12 27 -27 27c-25 0 -45 20 -45 45v108c0 15 -12 27 -27 27c-25 0 -45 20 -45 45v99c0 15 -12 27 -27 27h-36c-15 0 -27 -12 -27 -27v-99
c0 -25 -20 -45 -45 -45c-15 0 -27 -12 -27 -27v-108c0 -25 -20 -45 -45 -45c-15 0 -27 -12 -27 -27v-63c0 -15 12 -27 27 -27h324c15 0 27 12 27 27z" />
    <glyph glyph-name="product" unicode="&#x220f;" horiz-adv-x="585" 
d="M63 -171v846c0 25 20 45 45 45h369c25 0 45 -20 45 -45v-846c0 -25 -20 -45 -45 -45s-45 20 -45 45v774c0 15 -12 27 -27 27h-225c-15 0 -27 -12 -27 -27v-774c0 -25 -20 -45 -45 -45s-45 20 -45 45z" />
    <glyph glyph-name="summation" unicode="&#x2211;" horiz-adv-x="558" 
d="M63 -171v90c0 25 20 45 45 45c15 0 27 12 27 27v54c0 25 20 45 45 45c15 0 27 12 27 27v45c0 25 20 45 45 45c15 0 27 12 27 27v36c0 15 -12 27 -27 27c-25 0 -45 20 -45 45v54c0 15 -12 27 -27 27c-25 0 -45 20 -45 45v45c0 15 -12 27 -27 27c-25 0 -45 20 -45 45v90
c0 25 20 45 45 45h342c25 0 45 -20 45 -45s-20 -45 -45 -45h-270c-15 0 -27 -12 -27 -27v-18c0 -15 12 -27 27 -27c25 0 45 -20 45 -45v-45c0 -15 12 -27 27 -27c25 0 45 -20 45 -45v-54c0 -15 12 -27 27 -27c25 0 45 -20 45 -45v-36c0 -25 -20 -45 -45 -45
c-15 0 -27 -12 -27 -27v-45c0 -25 -20 -45 -45 -45c-15 0 -27 -12 -27 -27v-54c0 -25 -20 -45 -45 -45c-15 0 -27 -12 -27 -27v-18c0 -15 12 -27 27 -27h270c25 0 45 -20 45 -45s-20 -45 -45 -45h-342c-25 0 -45 20 -45 45z" />
    <glyph glyph-name="minus" unicode="&#x2212;" horiz-adv-x="576" 
d="M108 369h360c25 0 45 -20 45 -45s-20 -45 -45 -45h-360c-25 0 -45 20 -45 45s20 45 45 45z" />
    <glyph glyph-name="uni2219" unicode="&#x2219;" horiz-adv-x="576" 
d="M81 207v180c0 25 20 45 45 45c15 0 27 12 27 27c0 25 20 45 45 45h180c25 0 45 -20 45 -45c0 -15 12 -27 27 -27c25 0 45 -20 45 -45v-180c0 -25 -20 -45 -45 -45c-15 0 -27 -12 -27 -27c0 -25 -20 -45 -45 -45h-180c-25 0 -45 20 -45 45c0 15 -12 27 -27 27
c-25 0 -45 20 -45 45z" />
    <glyph glyph-name="radical" unicode="&#x221a;" horiz-adv-x="756" 
d="M621 504v-99c0 -25 -20 -45 -45 -45c-15 0 -27 -12 -27 -27v-99c0 -25 -20 -45 -45 -45c-15 0 -27 -12 -27 -27v-99c0 -25 -20 -45 -45 -45c-15 0 -27 -12 -27 -27v-90c0 -25 -20 -45 -45 -45c-15 0 -27 -12 -27 -27c0 -25 -20 -45 -45 -45h-36c-25 0 -45 20 -45 45
c0 15 -12 27 -27 27c-25 0 -45 20 -45 45v90c0 15 -12 27 -27 27c-25 0 -45 20 -45 45v99c0 25 20 45 45 45s45 -20 45 -45v-99c0 -15 12 -27 27 -27c25 0 45 -20 45 -45v-90c0 -15 12 -27 27 -27h36c15 0 27 12 27 27v90c0 25 20 45 45 45c15 0 27 12 27 27v99
c0 25 20 45 45 45c15 0 27 12 27 27v99c0 25 20 45 45 45c15 0 27 12 27 27v99c0 25 20 45 45 45c15 0 27 12 27 27v99c0 25 20 45 45 45s45 -20 45 -45v-99c0 -25 -20 -45 -45 -45c-15 0 -27 -12 -27 -27z" />
    <glyph glyph-name="infinity" unicode="&#x221e;" horiz-adv-x="864" 
d="M684 144h-180c-25 0 -45 20 -45 45c0 15 -12 27 -27 27s-27 -12 -27 -27c0 -25 -20 -45 -45 -45h-180c-25 0 -45 20 -45 45c0 15 -12 27 -27 27c-25 0 -45 20 -45 45v135c0 25 20 45 45 45c15 0 27 12 27 27c0 25 20 45 45 45h180c25 0 45 -20 45 -45
c0 -15 12 -27 27 -27s27 12 27 27c0 25 20 45 45 45h180c25 0 45 -20 45 -45c0 -15 12 -27 27 -27c25 0 45 -20 45 -45v-135c0 -25 -20 -45 -45 -45c-15 0 -27 -12 -27 -27c0 -25 -20 -45 -45 -45zM387 261v135c0 15 -12 27 -27 27h-180c-15 0 -27 -12 -27 -27v-135
c0 -15 12 -27 27 -27h180c15 0 27 12 27 27zM711 261v135c0 15 -12 27 -27 27h-180c-15 0 -27 -12 -27 -27v-135c0 -15 12 -27 27 -27h180c15 0 27 12 27 27z" />
    <glyph glyph-name="integral" unicode="&#x222b;" horiz-adv-x="468" 
d="M135 -99v702c0 25 20 45 45 45c15 0 27 12 27 27c0 25 20 45 45 45h108c25 0 45 -20 45 -45s-20 -45 -45 -45h-108c-15 0 -27 -12 -27 -27v-702c0 -25 -20 -45 -45 -45c-15 0 -27 -12 -27 -27c0 -25 -20 -45 -45 -45h-90c-25 0 -45 20 -45 45s20 45 45 45h90
c15 0 27 12 27 27z" />
    <glyph glyph-name="approxequal" unicode="&#x2248;" 
d="M306 423h54c15 0 27 12 27 27c0 25 20 45 45 45s45 -20 45 -45s-20 -45 -45 -45c-15 0 -27 -12 -27 -27c0 -25 -20 -45 -45 -45h-54c-25 0 -45 20 -45 45c0 15 -12 27 -27 27h-54c-15 0 -27 -12 -27 -27c0 -25 -20 -45 -45 -45s-45 20 -45 45s20 45 45 45
c15 0 27 12 27 27c0 25 20 45 45 45h54c25 0 45 -20 45 -45c0 -15 12 -27 27 -27zM306 243h54c15 0 27 12 27 27c0 25 20 45 45 45s45 -20 45 -45s-20 -45 -45 -45c-15 0 -27 -12 -27 -27c0 -25 -20 -45 -45 -45h-54c-25 0 -45 20 -45 45c0 15 -12 27 -27 27h-54
c-15 0 -27 -12 -27 -27c0 -25 -20 -45 -45 -45s-45 20 -45 45s20 45 45 45c15 0 27 12 27 27c0 25 20 45 45 45h54c25 0 45 -20 45 -45c0 -15 12 -27 27 -27z" />
    <glyph glyph-name="notequal" unicode="&#x2260;" 
d="M288 504v63c0 25 20 45 45 45s45 -20 45 -45v-63c0 -15 12 -27 27 -27h27c25 0 45 -20 45 -45s-20 -45 -45 -45h-90c-15 0 -27 -12 -27 -27v-72c0 -15 12 -27 27 -27h90c25 0 45 -20 45 -45s-20 -45 -45 -45h-153c-15 0 -27 -12 -27 -27v-54c0 -25 -20 -45 -45 -45
s-45 20 -45 45v54c0 15 -12 27 -27 27h-27c-25 0 -45 20 -45 45s20 45 45 45h90c15 0 27 12 27 27v72c0 15 -12 27 -27 27h-90c-25 0 -45 20 -45 45s20 45 45 45h153c15 0 27 12 27 27z" />
    <glyph glyph-name="lessequal" unicode="&#x2264;" 
d="M432 135h-63c-25 0 -45 20 -45 45c0 15 -12 27 -27 27h-63c-25 0 -45 20 -45 45c0 15 -12 27 -27 27h-54c-25 0 -45 20 -45 45s20 45 45 45h54c15 0 27 12 27 27c0 25 20 45 45 45h63c15 0 27 12 27 27c0 25 20 45 45 45h63c25 0 45 -20 45 -45s-20 -45 -45 -45h-63
c-15 0 -27 -12 -27 -27c0 -25 -20 -45 -45 -45h-63c-15 0 -27 -12 -27 -27s12 -27 27 -27h63c25 0 45 -20 45 -45c0 -15 12 -27 27 -27h63c25 0 45 -20 45 -45s-20 -45 -45 -45zM108 81h324c25 0 45 -20 45 -45s-20 -45 -45 -45h-324c-25 0 -45 20 -45 45s20 45 45 45z" />
    <glyph glyph-name="greaterequal" unicode="&#x2265;" 
d="M171 135h-63c-25 0 -45 20 -45 45s20 45 45 45h63c15 0 27 12 27 27c0 25 20 45 45 45h63c15 0 27 12 27 27s-12 27 -27 27h-63c-25 0 -45 20 -45 45c0 15 -12 27 -27 27h-63c-25 0 -45 20 -45 45s20 45 45 45h63c25 0 45 -20 45 -45c0 -15 12 -27 27 -27h63
c25 0 45 -20 45 -45c0 -15 12 -27 27 -27h54c25 0 45 -20 45 -45s-20 -45 -45 -45h-54c-15 0 -27 -12 -27 -27c0 -25 -20 -45 -45 -45h-63c-15 0 -27 -12 -27 -27c0 -25 -20 -45 -45 -45zM108 81h324c25 0 45 -20 45 -45s-20 -45 -45 -45h-324c-25 0 -45 20 -45 45
s20 45 45 45z" />
    <glyph glyph-name="dotmath" unicode="&#x22c5;" horiz-adv-x="576" 
d="M243 324v36c0 25 20 45 45 45s45 -20 45 -45v-36c0 -25 -20 -45 -45 -45s-45 20 -45 45z" />
    <glyph glyph-name="lozenge" unicode="&#x25ca;" horiz-adv-x="666" 
d="M603 297v-90c0 -25 -20 -45 -45 -45c-15 0 -27 -12 -27 -27v-90c0 -25 -20 -45 -45 -45c-15 0 -27 -12 -27 -27v-72c0 -25 -20 -45 -45 -45c-15 0 -27 -12 -27 -27c0 -25 -20 -45 -45 -45h-18c-25 0 -45 20 -45 45c0 15 -12 27 -27 27c-25 0 -45 20 -45 45v72
c0 15 -12 27 -27 27c-25 0 -45 20 -45 45v90c0 15 -12 27 -27 27c-25 0 -45 20 -45 45v90c0 25 20 45 45 45c15 0 27 12 27 27v90c0 25 20 45 45 45c15 0 27 12 27 27v72c0 25 20 45 45 45c15 0 27 12 27 27c0 25 20 45 45 45h18c25 0 45 -20 45 -45c0 -15 12 -27 27 -27
c25 0 45 -20 45 -45v-72c0 -15 12 -27 27 -27c25 0 45 -20 45 -45v-90c0 -15 12 -27 27 -27c25 0 45 -20 45 -45zM486 180c15 0 27 12 27 27v90c0 15 -12 27 -27 27c-25 0 -45 20 -45 45v90c0 15 -12 27 -27 27c-25 0 -45 20 -45 45v72c0 15 -12 27 -27 27h-18
c-15 0 -27 -12 -27 -27v-72c0 -25 -20 -45 -45 -45c-15 0 -27 -12 -27 -27v-90c0 -25 -20 -45 -45 -45c-15 0 -27 -12 -27 -27v-90c0 -15 12 -27 27 -27c25 0 45 -20 45 -45v-90c0 -15 12 -27 27 -27c25 0 45 -20 45 -45v-72c0 -15 12 -27 27 -27h18c15 0 27 12 27 27v72
c0 25 20 45 45 45c15 0 27 12 27 27v90c0 25 20 45 45 45z" />
    <glyph glyph-name="fi" unicode="&#xfb01;" horiz-adv-x="603" 
d="M117 45v342c0 15 -12 27 -27 27h-36c-25 0 -45 20 -45 45s20 45 45 45h36c15 0 27 12 27 27v72c0 25 20 45 45 45c15 0 27 12 27 27c0 25 20 45 45 45h261c25 0 45 -20 45 -45s-20 -45 -45 -45h-261c-15 0 -27 -12 -27 -27v-73c0 -15 12 -26 27 -26h108
c25 0 45 -20 45 -45s-20 -45 -45 -45h-108c-15 0 -27 -12 -27 -27v-342c0 -25 -20 -45 -45 -45s-45 20 -45 45zM450 46v413c0 25 20 45 45 45s45 -20 45 -45v-413c0 -25 -20 -45 -45 -45s-45 20 -45 45z" />
    <glyph glyph-name="fl" unicode="&#xfb02;" horiz-adv-x="603" 
d="M117 45v342c0 15 -12 27 -27 27h-36c-25 0 -45 20 -45 45s20 45 45 45h36c15 0 27 12 27 27v72c0 25 20 45 45 45c15 0 27 12 27 27c0 25 20 45 45 45h108c25 0 45 -20 45 -45s-20 -45 -45 -45h-108c-15 0 -27 -12 -27 -27v-72c0 -15 12 -27 27 -27h108
c25 0 45 -20 45 -45s-20 -45 -45 -45h-108c-15 0 -27 -12 -27 -27v-342c0 -25 -20 -45 -45 -45s-45 20 -45 45zM450 45v630c0 25 20 45 45 45s45 -20 45 -45v-630c0 -25 -20 -45 -45 -45s-45 20 -45 45z" />
    <glyph glyph-name="i.latn_TRK" horiz-adv-x="216" 
d="M63 639v36c0 25 20 45 45 45s45 -20 45 -45v-36c0 -25 -20 -45 -45 -45s-45 20 -45 45zM63 45v414c0 25 20 45 45 45s45 -20 45 -45v-414c0 -25 -20 -45 -45 -45s-45 20 -45 45z" />
    </font>
</defs>
</svg>
